{"glyphs":{"0":{"ha":886,"x_min":69,"x_max":817,"o":"m 511 1042 q 684 996 617 1042 q 784 867 751 950 q 817 675 817 785 q 786 415 817 538 q 697 199 756 293 q 557 53 639 106 q 371 0 475 0 q 151 94 232 0 q 69 367 69 189 q 101 633 69 510 q 192 847 133 756 q 333 990 251 939 q 511 1042 414 1042 m 510 965 q 426 924 467 965 q 356 807 386 883 q 310 660 332 746 q 276 475 289 574 q 263 275 263 376 q 292 124 263 171 q 376 76 321 76 q 458 116 418 76 q 531 235 499 156 q 577 381 556 296 q 611 566 599 467 q 624 767 624 665 q 592 922 624 878 q 510 965 561 965 z "},"1":{"ha":494,"x_min":68,"x_max":432,"o":"m 71 861 q 212 947 158 906 q 290 1015 265 989 q 314 1042 314 1042 q 412 1006 392 1042 q 418 890 432 971 l 288 146 q 281 44 275 74 q 286 14 286 14 q 268 7 286 14 q 207 0 250 0 q 110 35 131 0 q 103 151 89 71 l 226 863 l 182 835 q 149 817 165 825 q 111 808 133 808 q 78 825 89 808 q 71 861 68 842 z "},"2":{"ha":815,"x_min":14,"x_max":746,"o":"m 14 75 q 50 170 14 117 q 142 280 86 224 q 257 388 199 336 q 417 540 351 471 q 518 678 483 610 q 553 822 553 746 q 515 931 553 896 q 413 967 478 967 q 337 942 371 967 q 283 876 303 917 q 263 789 263 836 q 275 725 263 746 q 288 704 288 704 q 270 688 288 704 q 207 671 253 671 q 135 700 163 671 q 107 785 107 729 q 149 910 107 851 q 267 1005 190 968 q 447 1042 343 1042 q 607 1007 540 1042 q 710 915 674 972 q 746 786 746 857 q 713 627 746 697 q 606 492 679 557 q 417 354 533 428 q 227 231 311 286 q 108 114 143 175 q 178 134 140 125 q 268 149 215 143 q 408 156 339 156 q 540 161 478 157 q 653 182 603 165 q 661 167 653 182 q 669 125 669 153 q 622 34 669 68 q 479 0 575 0 q 365 6 415 0 q 272 19 315 13 q 185 25 229 25 q 104 13 132 25 q 76 0 76 0 q 32 24 50 0 q 14 75 14 49 z "},"3":{"ha":814,"x_min":25,"x_max":744,"o":"m 318 0 q 163 33 225 0 q 69 113 101 65 q 29 206 36 161 q 38 256 25 233 q 76 274 51 279 q 138 163 83 206 q 267 121 192 121 q 389 151 340 121 q 463 232 438 182 q 488 339 488 282 q 462 449 488 407 q 390 506 436 490 l 347 506 q 297 520 310 506 q 283 558 283 535 q 284 569 283 565 q 285 574 285 574 q 422 606 363 574 q 517 696 482 639 q 551 826 551 753 q 517 928 551 890 q 417 965 482 965 q 300 912 347 965 q 253 779 253 858 q 263 723 253 742 q 272 704 272 704 q 254 688 272 704 q 190 671 236 671 q 122 697 147 671 q 96 774 96 724 q 147 914 96 854 q 278 1008 197 974 q 449 1042 358 1042 q 665 972 586 1042 q 744 793 744 903 q 678 631 744 700 q 515 531 613 563 q 638 447 594 504 q 681 308 681 390 q 639 156 681 226 q 517 43 597 86 q 318 0 436 0 z "},"4":{"ha":822,"x_min":14,"x_max":781,"o":"m 213 994 q 226 1007 213 996 q 266 1030 240 1018 q 329 1042 292 1042 q 402 1013 374 1042 q 431 925 431 985 q 405 787 431 858 q 336 645 379 715 q 242 513 293 575 q 138 401 190 450 l 446 401 l 533 897 q 540 999 546 969 q 535 1028 535 1028 q 553 1035 535 1028 q 614 1042 571 1042 q 712 1006 692 1042 q 718 890 732 971 l 632 401 l 693 401 q 752 408 735 401 q 769 414 769 414 q 775 406 769 414 q 781 378 781 397 q 756 314 781 339 q 665 289 731 289 l 613 289 l 588 146 q 581 44 575 74 q 586 14 586 14 q 568 7 586 14 q 507 0 550 0 q 410 35 431 0 q 403 151 389 71 l 426 289 l 154 289 q 47 314 81 289 q 14 381 14 339 q 15 394 14 389 q 15 399 15 399 q 97 479 54 428 q 175 597 139 531 q 233 736 211 663 q 256 882 256 810 q 245 945 256 921 q 224 982 235 969 q 213 994 213 994 z "},"5":{"ha":786,"x_min":25,"x_max":786,"o":"m 186 986 q 213 1030 192 1018 q 264 1042 233 1042 q 408 1026 317 1042 q 639 1010 500 1010 q 735 1021 700 1010 q 769 1032 769 1032 q 781 1013 775 1026 q 786 975 786 1000 q 747 883 786 915 q 621 850 708 850 q 492 865 556 850 q 371 897 429 879 q 258 925 313 915 l 203 597 q 286 625 242 615 q 386 635 331 635 q 548 599 482 635 q 649 502 614 563 q 683 365 683 442 q 635 172 683 254 q 503 45 588 90 q 310 0 419 0 q 167 29 226 0 q 75 106 108 58 q 31 206 42 153 q 39 259 25 238 q 78 274 53 281 q 134 163 86 204 q 260 121 182 121 q 382 153 331 121 q 462 244 433 186 q 490 376 490 303 q 448 503 490 457 q 333 550 406 550 q 239 531 276 550 q 183 491 201 511 q 164 471 164 471 q 119 486 135 471 q 108 531 103 501 l 186 986 z "},"6":{"ha":849,"x_min":69,"x_max":779,"o":"m 533 965 q 449 926 488 965 q 381 826 411 888 q 328 693 350 764 q 294 560 307 622 q 386 610 338 590 q 499 629 435 629 q 678 563 614 629 q 743 378 743 497 q 696 186 743 272 q 563 50 649 100 q 363 0 478 0 q 214 38 281 0 q 108 152 147 76 q 69 342 69 228 q 103 606 69 481 q 199 830 136 732 q 349 985 261 928 q 544 1042 436 1042 q 682 1016 631 1042 q 756 947 733 990 q 779 854 779 904 q 747 764 779 803 q 664 725 715 725 q 597 742 619 725 q 574 758 574 758 q 584 772 574 758 q 605 812 594 786 q 615 871 615 838 q 533 965 615 965 m 432 532 q 357 514 389 532 q 304 473 325 496 q 272 435 283 450 q 265 387 272 435 q 258 272 258 339 q 291 122 258 167 q 374 76 324 76 q 451 103 418 76 q 506 174 483 131 q 539 269 528 218 q 550 369 550 321 q 519 493 550 454 q 432 532 489 532 z "},"7":{"ha":661,"x_min":56,"x_max":693,"o":"m 683 918 q 549 743 615 843 q 431 531 483 643 q 348 308 379 419 q 317 97 317 196 q 322 37 317 60 q 326 14 326 14 q 307 7 326 14 q 244 0 288 0 q 153 28 176 0 q 129 126 129 57 q 166 325 129 221 q 264 533 203 429 q 401 728 325 636 q 554 889 476 819 l 210 889 q 108 874 144 889 q 72 860 72 860 q 64 873 72 860 q 56 917 56 886 q 91 1006 56 971 q 221 1042 126 1042 q 360 1033 286 1042 q 508 1011 433 1024 q 647 986 582 999 q 685 958 676 981 q 683 918 693 936 z "},"8":{"ha":825,"x_min":28,"x_max":769,"o":"m 483 1042 q 695 978 621 1042 q 769 815 769 915 q 747 717 769 760 q 690 642 724 674 q 622 590 656 611 q 565 559 588 569 q 542 549 542 549 l 588 508 q 672 407 643 460 q 701 289 701 354 q 658 151 701 218 q 534 42 615 85 q 335 0 453 0 q 180 33 250 0 q 69 122 110 65 q 28 251 28 179 q 53 362 28 314 q 114 444 78 410 q 187 501 150 479 q 249 533 224 522 q 274 543 274 543 q 183 656 210 604 q 157 771 157 707 q 202 906 157 844 q 322 1005 247 968 q 483 1042 396 1042 m 407 422 l 332 489 q 307 475 332 489 q 250 433 282 461 q 193 360 218 404 q 168 254 168 315 q 216 126 168 176 q 344 76 264 76 q 471 121 424 76 q 518 229 518 165 q 493 322 518 275 q 407 422 468 368 m 483 965 q 378 923 419 965 q 338 815 338 881 q 360 725 338 761 q 425 651 382 689 l 486 599 q 508 613 486 599 q 558 656 529 628 q 608 724 586 683 q 629 818 629 765 q 588 926 629 888 q 483 965 546 965 z "},"9":{"ha":836,"x_min":69,"x_max":767,"o":"m 317 76 q 408 132 365 76 q 485 280 451 188 q 542 482 519 372 q 450 432 499 451 q 338 413 401 413 q 158 479 222 413 q 93 664 93 546 q 140 856 93 771 q 274 992 188 942 q 474 1042 360 1042 q 622 1003 556 1042 q 728 890 689 965 q 767 700 767 814 q 735 435 767 561 q 644 212 704 310 q 499 57 585 114 q 306 0 414 0 q 169 26 221 0 q 93 95 117 53 q 69 188 69 138 q 101 278 69 239 q 185 317 133 317 q 252 300 229 317 q 275 283 275 283 q 265 269 275 283 q 244 231 254 256 q 233 171 233 206 q 317 76 233 76 m 404 510 q 479 528 447 510 q 533 569 511 546 q 564 607 554 593 q 571 655 564 607 q 578 769 578 703 q 545 920 578 875 q 463 965 513 965 q 386 938 419 965 q 331 867 353 911 q 297 772 308 824 q 286 672 286 721 q 317 549 286 588 q 404 510 347 510 z "}," ":{"ha":306,"x_min":0,"x_max":0,"o":""},"!":{"ha":411,"x_min":28,"x_max":356,"o":"m 344 890 l 204 397 q 181 276 182 315 q 179 238 179 238 q 170 233 179 238 q 144 228 161 228 q 109 243 122 228 q 96 293 96 258 q 97 338 96 317 q 103 400 99 360 l 160 897 q 164 944 163 924 q 165 979 165 965 q 163 1017 165 1006 q 161 1028 161 1028 q 179 1035 161 1028 q 240 1042 197 1042 q 356 956 356 1042 q 344 890 356 931 m 28 69 q 57 141 28 113 q 125 169 86 169 q 188 144 165 169 q 211 82 211 119 q 184 16 211 46 q 111 -14 157 -14 q 51 10 74 -14 q 28 69 28 33 z "},"\"":{"ha":506,"x_min":97,"x_max":506,"o":"m 175 694 l 97 694 q 101 724 97 694 q 109 799 104 753 q 117 897 114 846 q 121 994 121 949 q 120 1015 121 1008 q 119 1022 119 1022 q 149 1032 119 1022 q 228 1042 178 1042 q 267 1027 256 1042 q 278 990 278 1013 q 268 929 278 968 q 243 846 258 890 q 210 761 228 801 q 175 694 192 721 m 403 694 l 325 694 q 328 724 325 694 q 337 799 332 753 q 345 897 342 846 q 349 994 349 949 q 348 1015 349 1008 q 347 1022 347 1022 q 376 1032 347 1022 q 456 1042 406 1042 q 494 1027 483 1042 q 506 990 506 1013 q 496 929 506 968 q 471 846 486 890 q 438 761 456 801 q 403 694 419 721 z "},"#":{"ha":874,"x_min":42,"x_max":832,"o":"m 231 -17 q 169 -1 186 -17 q 153 47 151 14 q 163 135 154 81 l 194 321 l 129 321 q 70 315 88 321 q 53 308 53 308 q 47 317 53 308 q 42 344 42 325 q 67 409 42 385 q 157 433 93 433 l 214 433 l 249 632 l 182 632 q 123 624 140 632 q 106 617 106 617 q 100 624 106 617 q 94 651 94 632 q 128 722 94 692 q 225 751 161 751 l 269 751 l 303 943 q 317 1048 315 1017 q 318 1079 318 1079 q 330 1084 318 1079 q 364 1089 342 1089 q 426 1074 410 1089 q 442 1025 443 1058 q 432 938 442 992 l 400 751 l 549 751 l 582 943 q 596 1048 594 1017 q 597 1079 597 1079 q 609 1084 597 1079 q 643 1089 621 1089 q 706 1074 689 1089 q 722 1025 722 1058 q 711 938 721 992 l 679 751 l 744 751 q 803 759 786 751 q 821 767 821 767 q 826 759 821 767 q 832 732 832 751 q 799 662 832 692 q 701 632 765 632 l 658 632 l 624 433 l 688 433 q 747 440 729 433 q 764 446 764 446 q 769 438 764 446 q 775 410 775 429 q 750 346 775 371 q 660 321 725 321 l 604 321 l 571 129 q 557 25 558 57 q 556 -7 556 -7 q 544 -12 556 -7 q 510 -17 533 -17 q 448 -1 465 -17 q 432 47 431 14 q 442 135 433 81 l 474 321 l 325 321 l 292 129 q 278 25 279 57 q 276 -7 276 -7 q 265 -12 276 -7 q 231 -17 254 -17 m 379 632 l 344 433 l 493 433 l 528 632 l 379 632 z "},"$":{"ha":831,"x_min":28,"x_max":803,"o":"m 331 -149 q 269 -133 286 -149 q 253 -83 251 -117 q 263 6 254 -49 q 90 83 153 24 q 28 218 28 142 q 62 330 28 292 q 146 368 96 368 q 199 359 179 368 q 226 341 218 350 q 235 332 235 332 q 223 319 235 332 q 199 281 211 307 q 186 217 186 256 q 210 137 186 171 q 276 88 233 103 l 340 460 l 279 500 q 157 613 194 556 q 119 746 119 671 q 158 884 119 819 q 269 992 197 949 q 440 1040 342 1035 q 456 1149 454 1117 q 457 1181 457 1181 q 469 1185 457 1181 q 503 1190 481 1190 q 564 1175 547 1190 q 581 1125 581 1160 q 578 1085 581 1107 q 569 1035 575 1063 q 685 997 632 1025 q 770 922 738 968 q 803 808 803 875 q 767 692 803 732 q 667 651 731 651 q 596 669 617 651 q 575 688 575 688 q 592 701 575 688 q 627 745 610 714 q 644 828 644 776 q 623 899 644 864 q 556 951 601 933 l 492 582 l 533 556 q 674 430 632 492 q 715 294 715 368 q 679 156 715 219 q 572 52 643 93 q 392 1 500 11 q 378 -107 379 -75 q 376 -139 376 -139 q 365 -144 376 -139 q 331 -149 354 -149 m 538 240 q 518 315 538 282 q 457 382 499 349 l 406 81 q 504 138 471 94 q 538 240 538 181 m 297 806 q 375 658 297 717 l 426 961 q 334 908 371 950 q 297 806 297 867 z "},"%":{"ha":1294,"x_min":56,"x_max":1239,"o":"m 371 -22 q 313 35 313 -1 q 325 80 313 54 q 358 142 338 106 l 817 949 q 865 1042 853 1013 q 878 1071 878 1071 q 892 1071 878 1071 q 924 1064 907 1071 q 982 1007 982 1043 q 969 963 982 989 q 936 900 957 936 l 478 93 q 429 0 442 29 q 417 -29 417 -29 q 402 -28 417 -29 q 371 -22 388 -28 m 1035 529 q 1184 472 1129 529 q 1239 321 1239 415 q 1203 159 1239 232 q 1099 43 1167 86 q 936 0 1032 0 q 788 54 846 0 q 729 207 729 108 q 769 379 729 307 q 877 490 808 451 q 1035 529 946 529 m 882 265 q 875 185 875 221 q 896 102 875 126 q 947 78 917 78 q 1035 128 1000 78 q 1085 264 1071 179 q 1090 307 1088 283 q 1092 344 1092 331 q 1072 426 1092 401 q 1019 451 1051 451 q 967 435 994 451 q 917 378 940 418 q 882 265 894 338 m 361 1042 q 510 985 456 1042 q 565 833 565 928 q 529 672 565 744 q 426 556 493 599 q 263 513 358 513 q 114 567 172 513 q 56 719 56 621 q 95 892 56 819 q 203 1003 135 964 q 361 1042 272 1042 m 208 778 q 201 697 201 733 q 222 615 201 639 q 274 590 243 590 q 362 641 326 590 q 411 776 397 692 q 416 819 414 796 q 418 857 418 843 q 398 939 418 914 q 346 964 378 964 q 294 947 321 964 q 244 890 267 931 q 208 778 221 850 z "},"&":{"ha":950,"x_min":42,"x_max":950,"o":"m 563 324 q 529 365 529 324 q 554 440 529 406 q 622 489 579 475 q 694 506 665 503 q 753 510 724 508 q 825 521 782 513 q 897 544 872 531 q 922 558 922 558 q 936 540 922 558 q 950 486 950 522 q 916 403 950 432 q 831 374 882 374 q 785 378 806 374 q 737 235 774 303 q 644 114 700 167 q 515 31 588 61 q 360 0 443 0 q 201 31 274 0 q 85 120 129 61 q 42 264 42 179 q 108 432 42 358 q 292 536 174 506 q 193 621 228 567 q 158 740 158 675 q 206 896 158 828 q 336 1003 253 964 q 525 1042 419 1042 q 680 1012 618 1042 q 773 933 742 982 q 804 825 804 883 q 770 715 804 758 q 669 671 736 671 q 605 688 625 671 q 585 704 585 704 q 600 722 585 704 q 631 775 615 740 q 647 857 647 810 q 540 965 647 965 q 443 934 486 965 q 375 851 400 903 q 350 738 350 800 q 365 657 350 696 q 415 594 379 618 q 513 574 450 571 q 513 569 513 574 q 514 558 514 565 q 440 506 514 506 l 408 506 q 279 429 325 486 q 233 301 233 372 q 251 209 233 251 q 310 141 268 167 q 424 115 351 115 q 613 194 539 115 q 714 396 688 272 q 699 398 707 397 q 682 399 692 399 q 614 381 647 399 q 563 324 581 364 z "},"'":{"ha":278,"x_min":97,"x_max":278,"o":"m 175 694 l 97 694 q 101 724 97 694 q 109 799 104 753 q 117 897 114 846 q 121 994 121 949 q 120 1015 121 1008 q 119 1022 119 1022 q 149 1032 119 1022 q 228 1042 178 1042 q 267 1027 256 1042 q 278 990 278 1013 q 268 929 278 968 q 243 846 258 890 q 210 761 228 801 q 175 694 192 721 z "},"(":{"ha":531,"x_min":56,"x_max":586,"o":"m 275 869 q 369 961 319 922 q 460 1022 418 1000 q 501 1038 481 1033 q 536 1042 522 1042 q 586 1010 579 1042 q 397 822 479 939 q 268 553 314 706 q 222 221 222 400 q 239 24 222 108 q 277 -116 256 -60 q 315 -200 299 -172 q 332 -228 332 -228 q 296 -246 321 -246 q 246 -233 269 -246 q 204 -200 222 -219 q 130 -83 164 -154 q 76 74 96 -11 q 56 247 56 160 q 113 589 56 438 q 275 869 171 740 z "},")":{"ha":517,"x_min":-125,"x_max":406,"o":"m 186 -75 q 93 -166 143 -128 q 1 -228 43 -204 q -40 -243 -19 -239 q -75 -247 -61 -247 q -125 -215 -118 -247 q 65 -28 -17 -144 q 193 242 147 89 q 239 574 239 396 q 222 770 239 686 q 184 910 206 854 q 146 994 163 967 q 129 1022 129 1022 q 165 1040 140 1040 q 215 1027 192 1040 q 257 994 239 1014 q 332 877 299 949 q 385 720 365 806 q 406 547 406 635 q 348 206 406 357 q 186 -75 290 54 z "},"*":{"ha":636,"x_min":71,"x_max":572,"o":"m 381 890 l 375 863 l 396 871 q 492 915 465 899 q 519 931 519 931 q 531 915 519 931 q 553 879 543 900 q 564 819 572 839 q 524 788 556 799 q 440 763 493 776 l 410 754 l 417 743 q 473 666 450 689 q 496 643 496 643 q 483 628 496 643 q 451 600 471 614 q 394 578 415 574 q 356 611 372 582 q 315 689 339 640 l 306 710 l 286 686 q 224 599 239 628 q 208 571 208 571 q 190 578 208 571 q 153 599 172 585 q 113 649 117 626 q 132 696 110 671 q 194 757 154 721 l 208 769 l 206 771 q 103 800 135 796 q 71 804 71 804 q 72 824 71 804 q 78 865 72 843 q 112 920 92 910 q 164 918 132 931 q 243 879 196 906 l 264 868 l 265 896 q 265 1001 269 969 q 261 1032 261 1032 q 280 1037 261 1032 q 321 1042 299 1042 q 382 1026 367 1042 q 394 978 397 1011 q 381 890 392 944 z "},"+":{"ha":706,"x_min":42,"x_max":622,"o":"m 422 582 l 403 475 l 535 475 q 594 481 576 475 q 611 488 611 488 q 617 479 611 488 q 622 451 622 471 q 597 388 622 413 q 507 363 572 363 l 382 363 l 354 210 q 350 151 347 169 q 353 132 353 132 q 344 128 353 132 q 315 128 335 125 q 253 165 276 135 q 240 257 229 194 l 260 363 l 129 363 q 70 356 88 363 q 53 350 53 350 q 47 358 53 350 q 42 386 42 367 q 67 451 42 426 q 157 475 93 475 l 281 475 l 308 629 q 313 688 315 669 q 310 707 310 707 q 319 710 310 707 q 347 711 329 714 q 410 675 388 704 q 422 582 433 646 z "},",":{"ha":354,"x_min":28,"x_max":215,"o":"m 28 69 q 57 141 28 113 q 125 169 86 169 q 190 143 165 169 q 215 72 215 117 q 201 -2 215 36 q 163 -74 186 -40 q 114 -127 140 -107 q 64 -147 88 -147 q 38 -137 46 -147 q 29 -118 29 -128 q 67 -69 53 -97 q 86 -11 81 -40 q 28 69 28 4 z "},"-":{"ha":678,"x_min":-28,"x_max":525,"o":"m 410 321 l 60 321 q 1 315 18 321 q -17 308 -17 308 q -22 317 -17 308 q -28 344 -28 325 q -2 409 -28 385 q 88 433 24 433 l 438 433 q 497 440 479 433 q 514 446 514 446 q 519 438 514 446 q 525 410 525 429 q 500 346 525 371 q 410 321 475 321 z "},".":{"ha":350,"x_min":28,"x_max":211,"o":"m 28 69 q 57 141 28 113 q 125 169 86 169 q 188 144 165 169 q 211 82 211 119 q 184 16 211 46 q 111 -14 157 -14 q 51 10 74 -14 q 28 69 28 33 z "},"/":{"ha":725,"x_min":28,"x_max":697,"o":"m 86 -22 q 28 35 28 -1 q 40 80 28 54 q 74 142 53 106 l 532 949 q 581 1042 568 1013 q 593 1071 593 1071 q 608 1071 593 1071 q 639 1064 622 1071 q 697 1007 697 1043 q 685 963 697 989 q 651 900 672 936 l 193 93 q 144 0 157 29 q 132 -29 132 -29 q 117 -28 132 -29 q 86 -22 103 -28 z "},":":{"ha":379,"x_min":28,"x_max":296,"o":"m 28 69 q 57 141 28 113 q 125 169 86 169 q 188 144 165 169 q 211 82 211 119 q 184 16 211 46 q 111 -14 157 -14 q 51 10 74 -14 q 28 69 28 33 m 113 596 q 142 667 113 639 q 210 696 171 696 q 273 671 250 696 q 296 608 296 646 q 269 542 296 572 q 196 513 242 513 q 135 536 158 513 q 113 596 113 560 z "},";":{"ha":379,"x_min":28,"x_max":296,"o":"m 113 596 q 142 667 113 639 q 210 696 171 696 q 273 671 250 696 q 296 608 296 646 q 269 542 296 572 q 196 513 242 513 q 135 536 158 513 q 113 596 113 560 m 28 69 q 57 141 28 113 q 125 169 86 169 q 190 143 165 169 q 215 72 215 117 q 201 -2 215 36 q 163 -74 186 -40 q 114 -127 140 -107 q 64 -147 88 -147 q 38 -137 46 -147 q 29 -118 29 -128 q 67 -69 53 -97 q 86 -11 81 -40 q 28 69 28 4 z "},"<":{"ha":688,"x_min":28,"x_max":604,"o":"m 356 38 l 28 347 l 504 646 q 553 681 540 669 q 567 692 567 692 q 575 687 567 692 q 593 664 583 682 q 604 619 604 642 q 588 569 604 594 q 532 521 572 543 l 222 346 l 464 111 q 510 75 493 82 q 528 68 528 68 q 526 59 528 68 q 510 35 524 50 q 478 10 496 19 q 438 0 460 0 q 399 8 419 0 q 356 38 379 17 z "},"=":{"ha":749,"x_min":42,"x_max":665,"o":"m 507 226 l 129 226 q 70 220 88 226 q 53 214 53 214 q 47 222 53 214 q 42 250 42 231 q 67 315 42 290 q 157 339 93 339 l 535 339 q 594 345 576 339 q 611 351 611 351 q 617 343 611 351 q 622 315 622 335 q 597 251 622 276 q 507 226 572 226 m 550 469 l 172 469 q 113 463 131 469 q 96 457 96 457 q 90 465 96 457 q 85 493 85 474 q 110 558 85 533 q 200 582 136 582 l 578 582 q 637 588 619 582 q 654 594 654 594 q 660 586 654 594 q 665 558 665 578 q 640 494 665 519 q 550 469 615 469 z "},">":{"ha":688,"x_min":28,"x_max":604,"o":"m 276 657 l 604 347 l 128 49 q 78 15 92 26 q 65 3 65 3 q 57 8 65 3 q 39 31 49 13 q 28 75 28 53 q 44 126 28 100 q 100 174 61 151 l 410 349 l 168 583 q 122 619 139 613 q 104 626 104 626 q 106 636 104 626 q 122 660 108 646 q 155 685 138 675 q 194 694 172 694 q 234 686 214 694 q 276 657 254 678 z "},"?":{"ha":686,"x_min":0,"x_max":631,"o":"m 203 293 q 228 431 203 363 q 318 572 254 499 q 415 719 392 657 q 438 833 438 782 q 404 931 438 896 q 310 967 371 967 q 231 942 265 967 q 176 878 196 918 q 156 789 156 838 q 168 725 156 746 q 181 704 181 704 q 163 688 181 704 q 100 671 146 671 q 28 700 56 671 q 0 785 0 729 q 43 910 0 851 q 162 1005 86 968 q 338 1042 238 1042 q 501 1011 436 1042 q 599 930 567 981 q 631 821 631 879 q 610 709 631 757 q 547 617 590 661 q 432 514 504 572 q 349 428 389 479 q 293 313 310 378 q 285 256 283 274 q 286 238 286 238 q 277 233 286 238 q 251 228 268 228 q 213 245 224 228 q 203 293 203 263 m 135 69 q 164 141 135 113 q 232 169 193 169 q 295 144 272 169 q 318 82 318 119 q 291 16 318 46 q 218 -14 264 -14 q 158 10 181 -14 q 135 69 135 33 z "},"@":{"ha":1294,"x_min":0,"x_max":1156,"o":"m 839 603 l 790 329 q 795 235 778 261 q 843 210 813 210 q 919 251 883 210 q 978 364 956 292 q 1001 531 1001 436 q 960 722 1001 640 q 838 850 918 804 q 639 896 757 896 q 471 864 556 896 q 314 765 386 832 q 198 596 242 699 q 154 351 154 493 q 204 151 154 239 q 344 14 254 64 q 556 -36 435 -36 q 699 -22 642 -36 q 791 11 757 -7 q 840 44 825 29 q 856 58 856 58 q 888 26 888 58 q 848 -35 888 -3 q 733 -91 808 -68 q 551 -114 658 -114 q 266 -54 390 -114 q 71 113 142 6 q 0 361 0 219 q 51 604 0 493 q 191 798 101 715 q 400 926 281 881 q 658 972 519 972 q 919 918 807 972 q 1093 768 1031 864 q 1156 549 1156 672 q 1131 403 1156 476 q 1061 268 1107 329 q 950 170 1015 207 q 801 133 885 133 q 692 167 733 133 q 640 258 650 201 q 469 133 571 133 q 350 186 394 133 q 306 332 306 239 q 347 528 306 447 q 451 651 388 608 q 579 694 514 694 q 651 678 621 694 q 700 639 681 663 q 742 682 715 669 q 810 694 768 694 q 851 689 838 694 q 865 683 865 683 q 856 665 865 683 q 839 603 847 647 m 514 238 q 562 262 538 238 q 608 326 586 286 q 647 410 631 365 q 669 497 663 456 l 678 546 q 660 585 674 565 q 611 606 647 606 q 541 571 576 606 q 483 475 506 536 q 460 335 460 414 q 514 238 460 238 z "},"[":{"ha":561,"x_min":56,"x_max":589,"o":"m 278 -246 l 124 -246 q 72 -231 88 -246 q 56 -181 56 -215 q 59 -142 56 -164 q 67 -94 63 -121 l 239 896 q 252 998 250 961 q 254 1035 254 1035 q 278 1038 254 1035 q 333 1042 303 1042 l 501 1042 q 560 1048 543 1042 q 578 1054 578 1054 q 583 1046 578 1054 q 589 1018 589 1038 q 564 954 589 979 q 474 929 539 929 l 401 929 l 218 -133 l 306 -133 q 365 -127 347 -133 q 382 -121 382 -121 q 388 -129 382 -121 q 393 -157 393 -137 q 368 -221 393 -196 q 278 -246 343 -246 z "},"\\":{"ha":593,"x_min":28,"x_max":565,"o":"m 531 -11 q 469 -28 492 -33 q 430 6 446 -24 q 394 85 414 35 l 86 893 q 44 992 60 964 q 28 1019 28 1019 q 35 1030 28 1019 q 61 1051 43 1040 q 123 1070 100 1075 q 162 1036 146 1065 q 197 957 178 1007 l 507 149 q 550 49 535 76 q 565 22 565 22 q 558 13 565 22 q 531 -11 550 3 z "},"]":{"ha":561,"x_min":-28,"x_max":506,"o":"m 283 1042 l 438 1042 q 490 1026 474 1042 q 506 976 506 1011 q 502 938 506 960 q 494 890 499 917 l 322 -100 q 309 -202 311 -165 q 307 -239 307 -239 q 283 -242 307 -239 q 228 -246 258 -246 l 60 -246 q 1 -252 18 -246 q -17 -258 -17 -258 q -22 -250 -17 -258 q -28 -222 -28 -242 q -2 -158 -28 -182 q 88 -133 24 -133 l 160 -133 l 343 929 l 256 929 q 197 923 214 929 q 179 917 179 917 q 174 925 179 917 q 168 953 168 933 q 194 1017 168 993 q 283 1042 219 1042 z "},"_":{"ha":622,"x_min":-111,"x_max":567,"o":"m 451 -165 l -24 -165 q -83 -172 -65 -165 q -100 -178 -100 -178 q -106 -169 -100 -178 q -111 -142 -111 -161 q -85 -77 -111 -101 q 4 -53 -60 -53 l 479 -53 q 538 -47 521 -53 q 556 -40 556 -40 q 561 -49 556 -40 q 567 -76 567 -57 q 542 -140 567 -115 q 451 -165 517 -165 z "},"{":{"ha":540,"x_min":83,"x_max":568,"o":"m 117 439 q 201 469 175 439 q 226 563 226 500 q 221 687 226 611 q 215 833 215 763 q 237 931 215 883 q 304 1010 258 979 q 422 1042 350 1042 q 484 1035 450 1042 q 543 1008 518 1028 q 568 953 568 989 q 565 935 568 940 q 561 931 561 931 q 540 942 561 931 q 475 953 519 953 q 399 919 419 953 q 379 818 379 886 q 384 716 379 763 q 389 614 389 669 q 351 465 389 525 q 247 379 313 406 q 303 328 288 361 q 319 251 319 296 q 302 144 319 192 q 267 49 285 96 q 250 -60 250 1 q 272 -131 250 -106 q 342 -157 294 -157 q 408 -146 390 -157 q 426 -135 426 -135 q 430 -140 426 -135 q 433 -157 433 -144 q 397 -217 433 -187 q 276 -246 360 -246 q 163 -223 206 -246 q 102 -162 121 -200 q 83 -81 83 -124 q 97 22 83 -31 q 130 124 111 74 q 163 219 149 175 q 176 300 176 264 q 135 350 176 350 q 108 359 121 350 q 96 390 96 368 q 117 439 96 421 z "},"}":{"ha":540,"x_min":-28,"x_max":457,"o":"m 424 356 q 340 325 365 356 q 314 232 314 294 q 319 108 314 185 q 325 -39 325 32 q 303 -137 325 -89 q 236 -216 282 -185 q 118 -247 190 -247 q 56 -240 90 -247 q -3 -214 22 -233 q -28 -158 -28 -194 q -24 -141 -28 -146 q -21 -136 -21 -136 q 0 -147 -21 -136 q 65 -158 21 -158 q 141 -125 121 -158 q 161 -24 161 -92 q 156 79 161 33 q 151 181 151 125 q 190 330 151 271 q 293 415 228 389 q 237 467 253 433 q 221 543 221 500 q 238 651 221 603 q 273 747 256 699 q 290 854 290 794 q 269 926 290 900 q 199 951 247 951 q 132 940 150 951 q 114 929 114 929 q 110 934 114 929 q 107 951 107 939 q 144 1011 107 982 q 264 1040 181 1040 q 378 1017 336 1040 q 438 957 419 994 q 457 875 457 919 q 443 773 457 825 q 410 670 429 721 q 378 575 392 619 q 364 494 364 531 q 406 444 364 444 q 433 436 421 444 q 444 404 444 428 q 424 356 444 374 z "},"‚":{"ha":354,"x_min":28,"x_max":215,"o":"m 28 69 q 57 141 28 113 q 125 169 86 169 q 190 143 165 169 q 215 72 215 117 q 201 -2 215 36 q 163 -74 186 -40 q 114 -127 140 -107 q 64 -147 88 -147 q 38 -137 46 -147 q 29 -118 29 -128 q 67 -69 53 -97 q 86 -11 81 -40 q 28 69 28 4 z "},"’":{"ha":285,"x_min":97,"x_max":285,"o":"m 97 942 q 126 1013 97 985 q 194 1042 156 1042 q 260 1015 235 1042 q 285 944 285 989 q 270 870 285 908 q 233 799 256 832 q 183 745 210 765 q 133 725 157 725 q 107 735 115 725 q 99 754 99 744 q 136 803 122 775 q 156 861 150 832 q 97 942 97 876 z "},"“":{"ha":521,"x_min":97,"x_max":521,"o":"m 521 839 q 492 767 521 796 q 424 739 464 739 q 359 765 385 739 q 333 836 333 792 q 348 910 333 872 q 385 982 363 949 q 435 1035 408 1015 q 485 1056 461 1056 q 511 1047 503 1056 q 519 1026 519 1038 q 483 977 497 1006 q 463 919 468 949 q 521 839 521 904 m 285 839 q 256 767 285 796 q 188 739 228 739 q 123 765 149 739 q 97 836 97 792 q 112 910 97 872 q 149 982 126 949 q 199 1035 172 1015 q 249 1056 225 1056 q 275 1047 267 1056 q 283 1026 283 1038 q 247 977 261 1006 q 226 919 232 949 q 285 839 285 904 z "},"”":{"ha":521,"x_min":97,"x_max":521,"o":"m 97 942 q 126 1013 97 985 q 194 1042 156 1042 q 260 1015 235 1042 q 285 944 285 989 q 270 870 285 908 q 233 799 256 832 q 183 745 210 765 q 133 725 157 725 q 107 735 115 725 q 99 754 99 744 q 136 803 122 775 q 156 861 150 832 q 97 942 97 876 m 333 942 q 363 1013 333 985 q 431 1042 392 1042 q 496 1015 471 1042 q 521 944 521 989 q 506 870 521 908 q 469 799 492 832 q 419 745 446 765 q 369 725 393 725 q 343 735 351 725 q 335 754 335 744 q 372 803 358 775 q 392 861 386 832 q 333 942 333 876 z "},"–":{"ha":858,"x_min":-28,"x_max":706,"o":"m 590 321 l 60 321 q 1 315 18 321 q -17 308 -17 308 q -22 317 -17 308 q -28 344 -28 325 q -2 409 -28 385 q 88 433 24 433 l 618 433 q 677 440 660 433 q 694 446 694 446 q 700 438 694 446 q 706 410 706 429 q 681 346 706 371 q 590 321 656 321 z "},"—":{"ha":1025,"x_min":-28,"x_max":872,"o":"m 757 321 l 60 321 q 1 315 18 321 q -17 308 -17 308 q -22 317 -17 308 q -28 344 -28 325 q -2 409 -28 385 q 88 433 24 433 l 785 433 q 844 440 826 433 q 861 446 861 446 q 867 438 861 446 q 872 410 872 429 q 847 346 872 371 q 757 321 822 321 z "},"•":{"ha":690,"x_min":222,"x_max":468,"o":"m 222 419 q 261 515 222 476 q 353 554 300 554 q 437 521 406 554 q 468 438 468 488 q 432 348 468 388 q 333 308 396 308 q 253 340 285 308 q 222 419 222 371 z "},"№":{"ha":1663,"x_min":-42,"x_max":1593,"o":"m 1389 1042 q 1538 985 1483 1042 q 1593 833 1593 928 q 1557 672 1593 744 q 1453 556 1521 599 q 1290 513 1386 513 q 1142 567 1200 513 q 1083 719 1083 621 q 1123 892 1083 819 q 1231 1003 1163 964 q 1389 1042 1300 1042 m 1236 778 q 1229 697 1229 733 q 1250 615 1229 639 q 1301 590 1271 590 q 1390 641 1354 590 q 1439 776 1425 692 q 1444 819 1442 796 q 1446 857 1446 843 q 1426 939 1446 914 q 1374 964 1406 964 q 1322 947 1349 964 q 1272 890 1294 931 q 1236 778 1249 850 m 1383 303 l 1131 303 q 1072 297 1089 303 q 1054 290 1054 290 q 1049 299 1054 290 q 1043 326 1043 307 q 1069 391 1043 367 q 1158 415 1094 415 l 1411 415 q 1470 422 1453 415 q 1488 428 1488 428 q 1493 419 1488 428 q 1499 392 1499 411 q 1474 328 1499 353 q 1383 303 1449 303 m 218 283 l 325 894 q 332 941 332 931 q 333 965 332 951 l 318 965 q 176 920 224 965 q 129 815 129 875 q 144 769 129 786 q 185 751 158 751 q 202 753 196 751 q 208 756 208 756 q 209 753 208 756 q 210 743 210 750 q 183 692 210 718 q 104 665 157 665 q -3 703 36 665 q -42 804 -42 742 q 49 974 -42 907 q 308 1042 140 1042 l 432 1042 q 519 1017 488 1042 q 568 932 551 993 l 779 188 l 861 651 q 885 881 888 796 q 873 1004 883 967 q 863 1042 863 1042 q 874 1048 863 1042 q 911 1054 885 1054 q 969 1035 951 1054 q 986 967 986 1015 q 978 880 986 932 q 958 758 971 828 l 851 147 q 840 47 839 78 q 843 14 842 17 q 821 7 843 14 q 744 0 799 0 q 658 27 688 0 q 613 110 628 54 l 399 864 l 315 390 q 292 161 290 247 q 304 38 294 75 q 314 0 314 0 q 303 -6 314 0 q 265 -12 292 -12 q 208 8 226 -12 q 190 75 190 28 q 198 163 190 111 q 218 283 206 214 z "},"…":{"ha":964,"x_min":28,"x_max":825,"o":"m 28 69 q 57 141 28 113 q 125 169 86 169 q 188 144 165 169 q 211 82 211 119 q 184 16 211 46 q 111 -14 157 -14 q 51 10 74 -14 q 28 69 28 33 m 335 69 q 364 141 335 113 q 432 169 393 169 q 495 144 472 169 q 518 82 518 119 q 491 16 518 46 q 418 -14 464 -14 q 358 10 381 -14 q 335 69 335 33 m 642 69 q 671 141 642 113 q 739 169 700 169 q 802 144 779 169 q 825 82 825 119 q 798 16 825 46 q 725 -14 771 -14 q 665 10 688 -14 q 642 69 642 33 z "},"‘":{"ha":285,"x_min":97,"x_max":285,"o":"m 285 839 q 256 767 285 796 q 188 739 228 739 q 123 765 149 739 q 97 836 97 792 q 112 910 97 872 q 149 982 126 949 q 199 1035 172 1015 q 249 1056 225 1056 q 275 1047 267 1056 q 283 1026 283 1038 q 247 977 261 1006 q 226 919 232 949 q 285 839 285 904 z "},"„":{"ha":590,"x_min":28,"x_max":451,"o":"m 28 69 q 57 141 28 113 q 125 169 86 169 q 190 143 165 169 q 215 72 215 117 q 201 -2 215 36 q 163 -74 186 -40 q 114 -127 140 -107 q 64 -147 88 -147 q 38 -137 46 -147 q 29 -118 29 -128 q 67 -69 53 -97 q 86 -11 81 -40 q 28 69 28 4 m 264 69 q 293 141 264 113 q 361 169 322 169 q 426 143 401 169 q 451 72 451 117 q 437 -2 451 36 q 399 -74 422 -40 q 350 -127 376 -107 q 300 -147 324 -147 q 274 -137 282 -147 q 265 -118 265 -128 q 303 -69 289 -97 q 322 -11 317 -40 q 264 69 264 4 z "},"|":{"ha":518,"x_min":83,"x_max":407,"o":"m 163 -246 q 101 -231 118 -246 q 85 -181 83 -215 q 94 -94 86 -147 l 267 896 q 281 1001 279 969 q 282 1032 282 1032 q 294 1037 282 1032 q 328 1042 306 1042 q 390 1026 374 1042 q 406 978 407 1011 q 396 890 406 944 l 224 -100 q 210 -204 211 -172 q 208 -236 208 -236 q 197 -241 208 -236 q 163 -246 186 -246 z "},"«":{"ha":849,"x_min":28,"x_max":703,"o":"m 300 38 l 28 347 l 376 646 q 412 683 400 665 q 424 701 424 701 q 440 692 424 701 q 465 664 456 683 q 467 595 483 629 q 404 521 450 561 l 201 349 l 408 111 q 454 74 436 81 q 472 68 472 68 q 470 59 472 68 q 454 35 468 50 q 420 10 440 19 q 376 0 400 0 q 338 8 358 0 q 300 38 318 17 m 513 111 l 310 347 l 596 576 q 638 615 626 600 q 650 631 650 631 q 663 622 650 631 q 685 594 675 613 q 689 525 703 560 q 624 451 675 490 l 485 347 l 621 185 q 667 148 649 154 q 685 142 685 142 q 683 133 685 142 q 667 108 681 124 q 633 83 653 93 q 589 72 613 72 q 551 81 571 72 q 513 111 531 90 z "},"»":{"ha":751,"x_min":-7,"x_max":668,"o":"m 396 657 l 668 347 l 319 49 q 284 11 296 29 q 272 -7 272 -7 q 257 2 272 -7 q 231 31 242 11 q 229 100 213 65 q 292 174 246 135 l 494 346 l 288 583 q 242 621 261 615 q 224 626 224 626 q 226 636 224 626 q 242 660 228 646 q 277 685 257 675 q 319 694 297 694 q 358 686 339 694 q 396 657 378 678 m 183 583 l 386 347 l 100 118 q 58 79 69 94 q 46 64 46 64 q 33 73 46 64 q 11 100 21 82 q 7 169 -7 135 q 72 243 21 204 l 211 347 l 75 510 q 30 547 49 542 q 11 553 11 553 q 13 563 11 553 q 29 586 15 572 q 65 612 44 601 q 107 622 85 622 q 146 613 126 622 q 183 583 165 604 z "},"±":{"ha":742,"x_min":28,"x_max":658,"o":"m 453 635 l 439 558 l 571 558 q 630 565 613 558 q 647 571 647 571 q 653 563 647 571 q 658 535 658 554 q 633 471 658 496 q 543 446 608 446 l 418 446 l 394 315 q 390 290 392 301 q 389 271 389 279 l 521 271 q 580 277 563 271 q 597 283 597 283 q 603 275 597 283 q 608 247 608 267 q 583 183 608 208 q 493 158 558 158 l 115 158 q 56 152 74 158 q 39 146 39 146 q 33 154 39 146 q 28 182 28 163 q 53 247 28 222 q 143 271 79 271 l 288 271 q 281 363 268 303 l 296 446 l 165 446 q 106 440 124 446 q 89 433 89 433 q 83 442 89 433 q 78 469 78 450 q 103 534 78 510 q 193 558 129 558 l 317 558 l 339 682 q 343 741 346 722 q 340 760 340 760 q 350 763 340 760 q 378 764 360 767 q 441 728 418 757 q 453 635 464 699 z "},"€":{"ha":940,"x_min":0,"x_max":913,"o":"m 74 606 l 179 606 q 283 833 211 735 q 453 986 356 931 q 657 1042 550 1042 q 800 1014 743 1042 q 885 940 857 986 q 913 838 913 893 q 879 734 913 781 q 778 688 846 688 q 729 697 746 688 q 707 717 713 707 q 701 726 701 726 q 716 738 701 726 q 745 778 731 750 q 760 851 760 806 q 734 935 760 904 q 654 965 708 965 q 546 923 604 965 q 440 801 488 881 q 369 606 392 721 l 696 606 q 701 594 696 606 q 706 569 706 583 q 694 540 706 551 q 658 529 682 529 l 357 529 q 353 487 356 515 q 353 435 351 458 l 614 435 q 619 424 614 435 q 624 399 624 413 q 612 369 624 381 q 576 358 600 358 l 361 358 q 462 176 386 238 q 649 115 538 115 q 842 193 776 115 q 865 163 875 193 q 837 113 860 142 q 774 57 814 83 q 683 17 738 33 q 564 0 629 0 q 375 42 460 0 q 235 165 290 85 q 165 358 181 246 l 10 358 q 5 369 10 358 q 0 394 0 381 q 13 424 0 413 q 47 435 25 435 l 160 435 q 161 485 160 463 q 165 529 163 508 l 36 529 q 31 540 36 529 q 26 565 26 551 q 39 594 26 583 q 74 606 51 606 z "},"©":{"ha":1275,"x_min":69,"x_max":1178,"o":"m 519 472 q 566 330 519 382 q 701 278 613 278 q 765 288 740 278 q 801 307 789 297 q 813 317 813 317 q 832 288 838 317 q 803 240 828 267 q 737 192 779 213 q 635 172 694 172 q 488 208 549 172 q 397 306 428 244 q 365 439 365 367 q 408 611 365 536 q 519 729 450 686 q 669 772 589 772 q 811 729 767 772 q 856 626 856 686 q 826 538 856 571 q 751 506 797 506 q 706 520 719 506 q 692 535 692 535 q 704 548 692 535 q 728 586 717 561 q 740 643 740 611 q 669 713 740 713 q 598 683 632 713 q 542 599 564 653 q 519 472 519 544 m 224 428 q 269 240 224 324 q 397 106 314 156 q 594 57 481 57 q 780 97 700 57 q 914 201 860 136 q 996 348 968 267 q 1024 513 1024 429 q 979 710 1024 622 q 850 848 935 797 q 644 899 765 899 q 477 863 554 899 q 343 761 400 826 q 255 611 286 696 q 224 428 224 526 m 69 424 q 122 649 69 547 q 260 822 174 750 q 451 933 346 894 q 663 972 556 972 q 933 915 817 972 q 1113 756 1049 858 q 1178 515 1178 653 q 1133 314 1178 410 q 1006 144 1088 218 q 814 26 924 69 q 576 -17 704 -17 q 315 38 429 -17 q 135 192 200 93 q 69 424 69 292 z "},"а":{"ha":774,"x_min":-42,"x_max":789,"o":"m 614 581 l 554 243 q 560 151 543 181 q 614 121 576 121 q 692 153 650 121 q 760 242 733 186 q 781 233 774 242 q 786 206 789 225 q 760 143 781 178 q 707 76 740 108 q 631 22 674 43 q 538 0 588 0 q 425 41 469 0 q 375 157 381 82 q 277 40 332 81 q 163 0 222 0 q 18 58 78 0 q -42 239 -42 117 q -11 441 -42 356 q 69 583 19 526 q 180 667 119 639 q 301 694 240 694 q 391 676 354 694 q 451 626 428 657 q 497 679 468 664 q 576 694 525 694 q 629 688 613 694 q 646 681 646 681 q 635 659 646 681 q 614 581 625 638 m 218 121 q 288 155 256 121 q 344 242 319 189 q 388 356 369 296 q 417 468 407 417 l 429 533 q 399 577 419 554 q 338 600 378 600 q 244 556 290 600 q 167 430 197 511 q 136 236 136 349 q 158 149 136 178 q 218 121 179 121 z "},"в":{"ha":765,"x_min":-14,"x_max":817,"o":"m 247 0 q 56 72 125 0 q -14 289 -14 144 q 13 536 -14 422 q 81 744 39 650 q 171 915 124 839 q 337 1094 244 1035 q 524 1153 429 1153 q 667 1105 622 1153 q 711 975 711 1057 q 692 872 711 926 q 623 758 672 817 q 483 638 574 700 q 592 551 556 613 q 628 407 628 490 q 624 342 628 374 q 711 376 675 350 q 767 426 747 403 q 788 450 788 450 q 813 415 817 450 q 781 363 808 392 q 709 310 753 333 q 610 279 665 288 q 538 135 588 199 q 414 36 488 72 q 247 0 340 0 m 260 69 q 363 138 315 69 q 433 311 411 206 q 376 425 376 351 q 394 486 376 460 q 446 519 413 513 q 433 565 442 547 q 414 596 425 583 q 303 547 356 565 q 200 508 251 528 q 173 351 182 428 q 164 211 164 275 q 190 101 164 133 q 260 69 215 69 m 503 1083 q 432 1046 471 1083 q 356 945 393 1008 q 288 804 318 882 q 251 698 268 753 q 219 588 233 643 q 399 714 324 638 q 516 873 475 790 q 557 1024 557 956 q 540 1070 557 1057 q 503 1083 524 1083 z "},"г":{"ha":461,"x_min":-31,"x_max":481,"o":"m 214 0 q 77 53 118 0 q 36 181 36 107 q 44 244 36 208 q 67 310 53 279 l 158 511 q 167 536 164 524 q 171 558 171 549 q 129 600 171 600 q 67 566 100 600 q 10 461 33 532 q 8 460 10 461 q 0 460 6 460 q -22 471 -14 460 q -26 504 -31 482 q 12 594 -18 551 q 88 666 42 638 q 192 694 133 694 q 308 656 267 694 q 349 556 349 617 q 340 495 349 529 q 319 438 331 461 l 235 257 q 221 160 208 199 q 283 121 233 121 q 378 155 338 121 q 447 242 418 189 q 474 204 481 242 q 446 142 468 178 q 388 75 424 107 q 308 22 353 43 q 214 0 264 0 z "},"ж":{"ha":1108,"x_min":-69,"x_max":1128,"o":"m 389 364 l 410 364 l 444 563 q 451 655 456 628 q 446 682 446 682 q 463 688 446 682 q 518 694 479 694 q 616 663 599 694 q 621 557 633 631 l 588 364 l 629 364 q 678 391 657 364 q 713 443 700 418 l 767 554 q 845 667 808 639 q 926 694 882 694 q 993 669 969 694 q 1017 600 1017 643 q 1005 548 1017 569 q 981 515 993 526 q 968 504 968 504 q 963 517 968 504 q 943 542 957 529 q 901 554 929 554 q 804 471 843 554 l 781 421 q 732 358 763 381 q 793 325 771 349 q 826 268 815 301 l 842 219 q 886 142 860 164 q 949 121 913 121 q 1010 140 982 121 q 1059 188 1038 160 q 1094 242 1081 217 q 1121 206 1128 242 q 1077 116 1113 164 q 989 34 1042 68 q 875 0 936 0 q 749 42 796 0 q 679 163 703 83 l 657 236 q 631 282 647 268 q 582 296 614 296 l 575 296 l 547 132 q 541 40 536 67 q 546 13 546 13 q 529 6 546 13 q 474 0 513 0 q 376 33 393 0 q 371 138 358 65 l 397 296 q 336 283 360 296 q 293 235 313 271 l 257 163 q 176 44 219 88 q 54 0 132 0 q -39 44 -8 0 q -69 144 -69 89 q -48 222 -69 197 q -3 246 -26 246 q 18 243 11 246 q 25 240 25 240 q 19 218 25 240 q 13 176 13 196 q 38 133 13 133 q 64 149 53 133 q 93 200 75 165 l 131 271 q 187 334 151 311 q 283 358 222 357 q 263 386 271 369 q 249 421 254 403 l 236 471 q 156 554 215 554 q 112 542 129 554 q 86 517 94 529 q 78 504 78 504 q 62 524 78 504 q 46 578 46 543 q 78 660 46 626 q 160 694 110 694 q 233 667 204 694 q 286 554 263 639 l 317 443 q 341 391 324 418 q 389 364 358 364 z "},"и":{"ha":779,"x_min":-28,"x_max":794,"o":"m 381 174 q 381 195 381 183 q 382 221 381 207 q 319 118 351 161 q 228 29 276 58 q 124 0 181 0 q 13 44 54 0 q -28 161 -28 89 q -24 239 -28 200 q -11 332 -21 278 l 29 563 q 35 655 40 628 q 31 682 31 682 q 47 688 31 682 q 103 694 64 694 q 201 663 183 694 q 206 557 218 631 l 150 236 q 153 149 140 176 q 196 121 165 121 q 246 147 219 121 q 299 214 272 172 q 357 321 329 260 q 407 449 385 382 q 439 576 429 515 q 444 658 449 633 q 439 682 439 682 q 456 688 439 682 q 511 694 472 694 q 609 663 592 694 q 614 557 626 631 l 560 243 q 566 151 550 181 q 619 121 582 121 q 697 153 656 121 q 765 242 739 186 q 787 233 779 242 q 792 206 794 225 q 766 143 786 178 q 713 76 746 108 q 636 22 679 43 q 543 0 593 0 q 426 45 471 0 q 381 174 381 90 z "},"й":{"ha":779,"x_min":-28,"x_max":794,"o":"m 381 174 q 381 195 381 183 q 382 221 381 207 q 319 118 351 161 q 228 29 276 58 q 124 0 181 0 q 13 44 54 0 q -28 161 -28 89 q -24 239 -28 200 q -11 332 -21 278 l 29 563 q 35 655 40 628 q 31 682 31 682 q 47 688 31 682 q 103 694 64 694 q 201 663 183 694 q 206 557 218 631 l 150 236 q 153 149 140 176 q 196 121 165 121 q 246 147 219 121 q 299 214 272 172 q 357 321 329 260 q 407 449 385 382 q 439 576 429 515 q 444 658 449 633 q 439 682 439 682 q 456 688 439 682 q 511 694 472 694 q 609 663 592 694 q 614 557 626 631 l 560 243 q 566 151 550 181 q 619 121 582 121 q 697 153 656 121 q 765 242 739 186 q 787 233 779 242 q 792 206 794 225 q 766 143 786 178 q 713 76 746 108 q 636 22 679 43 q 543 0 593 0 q 426 45 471 0 q 381 174 381 90 m 408 897 q 489 928 461 897 q 529 989 517 958 q 551 981 543 989 q 556 953 558 972 q 528 890 551 925 q 460 831 506 856 q 346 806 415 806 q 215 847 261 806 q 169 949 169 888 q 197 1022 169 993 q 274 1050 225 1050 q 325 1039 308 1050 q 342 1028 342 1028 q 333 1014 342 1028 q 325 972 325 1000 q 347 917 325 938 q 408 897 369 897 z "},"к":{"ha":717,"x_min":-47,"x_max":732,"o":"m 215 557 l 182 364 l 238 364 q 288 391 267 364 q 321 443 308 418 l 375 554 q 453 667 417 639 q 535 694 490 694 q 601 669 578 694 q 625 600 625 643 q 613 548 625 569 q 589 515 601 526 q 576 504 576 504 q 571 517 576 504 q 551 542 565 529 q 510 554 538 554 q 456 533 479 554 q 413 471 432 511 l 389 421 q 340 358 371 381 q 401 325 379 349 q 435 268 424 301 l 450 219 q 488 147 465 172 q 554 121 511 121 q 640 158 599 121 q 703 242 681 194 q 724 233 717 242 q 729 206 732 225 q 704 143 725 178 q 649 76 683 108 q 572 22 615 43 q 481 0 529 0 q 288 163 338 0 l 265 236 q 242 281 257 265 q 199 296 226 296 l 169 296 l 142 132 q 135 40 131 67 q 140 13 140 13 q 124 6 140 13 q 68 0 107 0 q -30 33 -12 0 q -35 138 -47 65 l 39 563 q 45 655 50 628 q 40 682 40 682 q 57 688 40 682 q 113 694 74 694 q 210 663 193 694 q 215 557 228 631 z "},"л":{"ha":799,"x_min":-83,"x_max":814,"o":"m 413 306 l 457 563 q 463 605 461 586 q 464 624 464 624 q 374 577 411 618 q 311 451 336 536 l 238 196 q 165 51 211 101 q 47 0 119 0 q -48 39 -12 0 q -83 136 -83 78 q -51 227 -83 193 q 25 261 -18 261 q 74 251 58 261 q 90 242 90 242 q 79 218 90 242 q 68 169 68 194 q 78 133 68 144 q 103 121 89 121 q 140 143 124 121 q 169 215 156 165 l 242 472 q 348 643 275 592 q 521 694 421 694 q 607 681 581 694 q 638 636 633 667 q 633 557 642 606 l 579 243 q 585 151 569 181 q 639 121 601 121 q 717 153 675 121 q 785 242 758 186 q 806 233 799 242 q 811 206 814 225 q 785 143 806 178 q 732 76 765 108 q 656 22 699 43 q 563 0 613 0 q 445 45 490 0 q 400 174 400 90 q 403 229 400 194 q 413 306 406 264 z "},"м":{"ha":1049,"x_min":-83,"x_max":1064,"o":"m 283 682 q 314 688 283 682 q 378 694 344 694 q 454 670 425 694 q 485 585 483 646 l 493 189 l 653 531 q 699 645 689 608 q 708 682 708 682 q 725 688 708 682 q 781 694 742 694 q 878 663 861 694 q 883 557 896 631 l 829 243 q 835 151 819 181 q 889 121 851 121 q 967 153 925 121 q 1035 242 1008 186 q 1056 233 1049 242 q 1061 206 1064 225 q 1035 143 1056 178 q 982 76 1015 108 q 906 22 949 43 q 813 0 863 0 q 695 45 740 0 q 650 174 650 90 q 653 231 650 194 q 663 306 657 267 l 685 438 l 544 133 q 513 52 522 83 q 503 21 503 21 q 426 0 476 0 q 351 33 379 0 q 319 135 322 67 l 311 449 l 235 189 q 161 46 207 92 q 47 0 115 0 q -48 39 -12 0 q -83 135 -83 78 q -51 226 -83 192 q 25 261 -19 261 q 74 251 58 261 q 90 242 90 242 q 79 219 90 242 q 68 164 68 196 q 78 132 68 143 q 103 121 89 121 q 139 142 122 121 q 171 215 156 164 l 249 488 q 282 639 281 596 q 283 682 283 682 z "},"н":{"ha":781,"x_min":-47,"x_max":796,"o":"m 621 121 q 699 153 657 121 q 767 242 740 186 q 788 233 781 242 q 793 206 796 225 q 767 143 788 178 q 714 76 747 108 q 638 22 681 43 q 544 0 594 0 q 427 45 472 0 q 382 174 382 90 q 385 228 382 194 q 394 306 388 263 l 171 306 l 142 132 q 135 40 131 67 q 140 13 140 13 q 124 6 140 13 q 68 0 107 0 q -30 33 -12 0 q -35 138 -47 65 l 39 563 q 45 655 50 628 q 40 682 40 682 q 57 688 40 682 q 113 694 74 694 q 210 663 193 694 q 215 557 228 631 l 183 375 l 406 375 l 439 563 q 445 655 450 628 q 440 682 440 682 q 457 688 440 682 q 513 694 474 694 q 610 663 593 694 q 615 557 628 631 l 561 243 q 567 151 551 182 q 621 121 583 121 z "},"п":{"ha":790,"x_min":-47,"x_max":806,"o":"m 411 332 l 438 485 q 437 553 446 535 q 404 572 428 572 q 333 537 371 572 q 256 440 294 501 q 188 299 218 378 q 142 132 158 219 q 135 40 131 67 q 140 13 140 13 q 124 6 140 13 q 68 0 107 0 q -30 33 -12 0 q -35 138 -47 65 l 39 563 q 45 655 50 628 q 40 682 40 682 q 57 688 40 682 q 113 694 74 694 q 210 663 193 694 q 215 557 228 631 l 204 493 q 274 585 232 539 q 369 663 317 632 q 476 694 421 694 q 581 656 542 694 q 619 551 619 617 q 616 500 619 529 q 607 439 613 471 l 574 243 q 576 156 564 192 q 631 121 588 121 q 713 154 675 121 q 776 242 750 188 q 798 233 790 242 q 803 206 806 225 q 778 144 799 179 q 725 76 758 110 q 649 22 692 43 q 558 0 607 0 q 435 48 481 0 q 390 174 390 96 q 398 249 390 201 q 411 332 406 297 z "},"р":{"ha":775,"x_min":-131,"x_max":826,"o":"m 217 557 l 213 532 q 436 694 303 694 q 585 631 533 694 q 636 458 636 567 q 633 399 636 428 q 625 342 631 369 q 697 363 665 346 q 751 401 729 381 q 785 435 774 421 q 797 450 797 450 q 822 415 826 450 q 789 361 818 392 q 713 307 760 331 q 610 278 667 283 q 534 129 583 192 q 423 33 485 67 q 293 0 361 0 q 202 19 243 0 q 132 68 161 38 l 58 -354 q 52 -447 47 -419 q 57 -474 57 -474 q 40 -480 57 -474 q -15 -486 24 -486 q -113 -453 -96 -486 q -118 -349 -131 -421 l 40 563 q 47 655 51 628 q 42 682 42 682 q 58 688 42 682 q 114 694 75 694 q 212 663 194 694 q 217 557 229 631 m 386 425 q 404 486 386 460 q 456 519 422 513 q 388 588 443 588 q 258 478 328 588 q 202 366 229 431 q 156 207 175 301 l 146 154 q 185 113 160 132 q 251 94 210 94 q 360 156 308 94 q 438 315 411 217 q 386 425 386 356 z "},"с":{"ha":626,"x_min":-42,"x_max":639,"o":"m 272 0 q 110 36 181 0 q -1 139 39 72 q -42 294 -42 206 q -11 458 -42 385 q 72 585 19 532 q 190 666 124 638 q 328 694 257 694 q 469 650 414 694 q 524 538 524 606 q 491 434 524 475 q 404 393 458 393 q 352 410 367 393 q 338 426 338 426 q 351 441 338 426 q 376 485 364 456 q 389 561 389 515 q 371 608 389 590 q 325 625 353 625 q 239 588 282 625 q 167 482 196 550 q 139 322 139 414 q 192 167 139 225 q 343 110 246 110 q 466 131 414 110 q 554 182 518 151 q 608 242 590 213 q 631 206 639 242 q 599 149 625 183 q 526 80 572 114 q 417 23 481 46 q 272 0 353 0 z "},"т":{"ha":1118,"x_min":-47,"x_max":1133,"o":"m 958 121 q 1039 153 1000 121 q 1104 242 1078 186 q 1126 233 1118 242 q 1131 206 1133 225 q 1106 144 1126 179 q 1052 76 1085 110 q 977 22 1019 43 q 886 0 935 0 q 763 48 808 0 q 718 174 718 96 q 726 249 718 201 q 739 332 733 296 l 765 485 q 765 553 774 533 q 732 572 756 572 q 674 538 706 572 q 612 442 643 503 q 554 301 581 381 q 511 132 528 221 q 505 40 500 67 q 510 13 510 13 q 493 6 510 13 q 438 0 476 0 q 340 33 357 0 q 335 138 322 65 l 396 485 q 364 572 413 572 q 287 516 331 572 q 204 360 243 460 q 142 132 165 261 q 135 40 131 67 q 140 13 140 13 q 124 6 140 13 q 68 0 107 0 q -30 33 -12 0 q -35 138 -47 65 l 39 563 q 45 655 50 628 q 40 682 40 682 q 57 688 40 682 q 113 694 74 694 q 210 663 193 694 q 215 557 228 631 l 210 524 q 267 601 233 563 q 344 667 301 640 q 433 694 386 694 q 538 656 499 694 q 578 550 578 618 q 577 535 578 543 q 576 519 576 528 q 633 600 599 560 q 712 667 668 640 q 804 694 756 694 q 908 656 869 694 q 947 551 947 617 q 944 500 947 529 q 935 439 940 471 l 901 243 q 958 121 881 121 z "},"ф":{"ha":1150,"x_min":-42,"x_max":1201,"o":"m 690 1015 l 606 535 q 821 694 694 694 q 959 632 907 694 q 1011 458 1011 569 q 1008 399 1011 428 q 1001 342 1006 369 q 1073 363 1042 346 q 1126 401 1104 381 q 1160 435 1149 421 q 1172 450 1172 450 q 1197 415 1201 450 q 1165 362 1193 392 q 1090 308 1136 332 q 986 278 1043 285 q 913 127 961 189 q 805 33 865 65 q 681 0 744 0 q 589 22 628 0 q 522 68 550 43 l 451 -354 q 445 -447 440 -419 q 450 -474 450 -474 q 433 -480 450 -474 q 378 -486 417 -486 q 280 -453 297 -486 q 275 -349 263 -421 l 364 160 q 149 0 275 0 q 11 63 64 0 q -42 236 -42 125 q 6 483 -42 381 q 131 640 54 586 q 289 694 207 694 q 380 673 340 694 q 447 626 419 651 l 514 1021 q 520 1113 525 1086 q 515 1140 515 1140 q 532 1147 515 1140 q 588 1153 549 1153 q 685 1121 668 1153 q 690 1015 703 1089 m 318 217 q 375 330 347 263 q 421 486 403 397 l 432 542 q 396 581 421 561 q 336 600 371 600 q 238 547 283 600 q 164 405 192 494 q 136 207 136 315 q 152 130 136 153 q 196 107 168 107 q 260 142 228 107 q 318 217 293 178 m 761 425 q 779 486 761 460 q 831 519 797 513 q 812 572 826 556 q 774 588 797 588 q 710 553 743 588 q 651 478 676 518 q 594 365 622 432 q 549 208 567 297 l 538 153 q 574 115 549 135 q 633 94 599 94 q 739 156 690 94 q 813 317 788 218 q 761 425 761 357 z "},"х":{"ha":633,"x_min":-111,"x_max":649,"o":"m 76 694 q 162 674 132 694 q 211 592 192 653 l 265 426 l 314 461 q 386 544 364 497 q 408 642 408 590 q 403 682 408 664 q 417 688 403 682 q 456 694 431 694 q 517 674 497 694 q 536 621 536 654 q 510 542 536 582 q 408 447 485 503 l 288 360 l 326 246 q 458 121 368 121 q 546 149 507 121 q 619 242 585 178 q 641 233 633 242 q 646 206 649 225 q 599 110 638 157 q 506 31 561 63 q 386 0 450 0 q 246 47 301 0 q 157 199 190 94 l 139 253 l 111 233 q 39 152 61 199 q 17 53 17 106 q 22 13 17 31 q 8 6 22 13 q -31 0 -6 0 q -92 20 -72 0 q -111 74 -111 40 q -85 152 -111 113 q 17 247 -60 192 l 118 321 l 51 531 q 28 583 40 569 q -4 596 15 596 q -23 592 -15 596 q -31 589 -31 589 q -33 597 -32 593 q -33 607 -33 601 q -4 667 -33 639 q 76 694 25 694 z "},"ц":{"ha":785,"x_min":-28,"x_max":729,"o":"m 668 186 q 675 188 668 186 q 692 190 682 190 q 729 153 729 190 q 721 14 729 82 q 693 -110 713 -54 q 640 -198 674 -165 q 554 -231 606 -231 q 490 -209 513 -231 q 467 -149 467 -187 q 469 -128 467 -135 q 471 -122 471 -122 q 581 -68 538 -119 q 647 61 625 -17 q 594 16 625 32 q 524 0 564 0 q 420 46 460 0 q 381 169 381 92 q 381 196 381 183 q 382 221 381 208 q 319 118 351 161 q 228 29 276 58 q 124 0 181 0 q 13 44 54 0 q -28 161 -28 89 q -24 239 -28 200 q -11 332 -21 278 l 29 563 q 35 655 40 628 q 31 682 31 682 q 47 688 31 682 q 103 694 64 694 q 201 663 183 694 q 206 557 218 631 l 150 236 q 153 149 140 178 q 196 121 165 121 q 246 147 219 121 q 299 214 272 172 q 383 381 343 282 q 439 576 422 479 q 444 658 449 633 q 439 682 439 682 q 456 688 439 682 q 511 694 472 694 q 609 663 592 694 q 614 557 626 631 l 560 243 q 563 149 549 178 q 604 121 576 121 q 639 138 625 121 q 660 170 653 154 q 668 186 668 186 z "},"ч":{"ha":742,"x_min":-21,"x_max":757,"o":"m 14 563 q 20 655 25 628 q 15 682 15 682 q 32 688 15 682 q 88 694 49 694 q 186 663 168 694 q 190 557 204 631 l 156 375 q 158 286 144 313 q 200 260 172 260 q 310 351 250 260 q 364 451 336 392 q 403 585 392 511 q 406 660 411 638 q 401 682 401 682 q 418 688 401 682 q 474 694 435 694 q 572 663 554 694 q 576 557 589 631 l 522 243 q 528 151 513 181 q 582 121 544 121 q 660 153 618 121 q 728 242 701 186 q 749 233 742 242 q 754 206 757 225 q 728 143 749 178 q 675 76 708 108 q 599 22 642 43 q 506 0 556 0 q 388 45 433 0 q 343 174 343 90 q 346 227 343 193 q 354 300 349 261 q 299 223 332 260 q 224 163 267 186 q 129 139 182 139 q 19 183 60 139 q -21 300 -21 228 q -18 356 -21 326 q -8 433 -15 385 q 14 563 0 481 z "},"ш":{"ha":1118,"x_min":-28,"x_max":1133,"o":"m 1104 242 q 1126 233 1118 242 q 1131 206 1133 225 q 1105 143 1125 178 q 1051 76 1085 108 q 975 22 1018 43 q 882 0 932 0 q 765 45 810 0 q 719 174 719 90 l 719 182 q 703 151 711 167 q 685 121 694 136 q 607 33 650 65 q 497 0 564 0 q 387 44 428 0 q 346 161 346 89 l 346 182 q 330 151 339 167 q 311 121 321 136 q 233 33 276 65 q 124 0 190 0 q 13 44 54 0 q -28 161 -28 89 q -24 240 -28 200 q -11 332 -21 279 l 29 563 q 35 655 40 628 q 31 682 31 682 q 47 688 31 682 q 103 694 64 694 q 201 663 183 694 q 206 557 218 631 l 150 236 q 151 147 139 172 q 189 121 163 121 q 235 142 213 121 q 283 210 258 163 q 351 363 315 269 q 406 579 386 457 q 410 659 415 636 q 404 682 404 682 q 421 688 404 682 q 476 694 438 694 q 574 663 557 694 q 579 557 592 631 l 524 236 q 524 147 513 172 q 563 121 536 121 q 609 142 586 121 q 657 210 632 163 q 724 363 689 269 q 779 579 760 457 q 783 659 789 636 q 778 682 778 682 q 794 688 778 682 q 850 694 811 694 q 948 663 931 694 q 953 557 965 631 l 899 243 q 905 151 889 181 q 958 121 921 121 q 1036 153 994 121 q 1104 242 1078 186 z "},"щ":{"ha":1124,"x_min":-28,"x_max":1068,"o":"m 1007 186 q 1014 188 1007 186 q 1031 190 1021 190 q 1068 153 1068 190 q 1061 28 1068 94 q 1035 -98 1054 -39 q 983 -194 1017 -157 q 893 -231 949 -231 q 828 -209 851 -231 q 806 -149 806 -187 q 808 -128 806 -135 q 810 -122 810 -122 q 920 -68 876 -119 q 986 61 964 -17 q 933 16 964 32 q 863 0 903 0 q 759 46 799 0 q 719 169 719 92 l 719 182 q 703 151 711 167 q 685 121 694 136 q 607 33 650 65 q 497 0 564 0 q 387 44 428 0 q 346 161 346 89 l 346 182 q 329 151 338 167 q 311 121 321 136 q 233 33 276 65 q 124 0 190 0 q 13 44 54 0 q -28 161 -28 89 q -24 239 -28 200 q -11 332 -21 278 l 29 563 q 35 655 40 628 q 31 682 31 682 q 47 688 31 682 q 103 694 64 694 q 201 663 183 694 q 206 557 218 631 l 150 236 q 151 147 139 172 q 189 121 163 121 q 235 142 213 121 q 283 210 258 163 q 349 360 315 268 q 406 579 383 453 q 410 659 417 636 q 404 682 404 682 q 421 688 404 682 q 476 694 438 694 q 574 663 557 694 q 579 557 592 631 l 524 236 q 524 147 513 172 q 563 121 536 121 q 609 142 586 121 q 657 210 632 163 q 723 360 689 268 q 778 575 757 453 q 783 657 788 632 q 778 682 778 682 q 794 688 778 682 q 850 694 811 694 q 948 663 931 694 q 953 557 965 631 l 899 243 q 901 149 888 178 q 943 121 915 121 q 978 138 964 121 q 999 170 992 154 q 1007 186 1007 186 z "},"ъ":{"ha":856,"x_min":-97,"x_max":717,"o":"m 388 0 q 208 61 271 0 q 144 224 144 122 q 147 272 144 246 q 154 324 150 299 l 197 563 q 201 597 200 582 q 204 625 203 613 l 151 625 q 76 601 103 625 q 50 546 50 578 q 61 511 50 524 q 90 499 72 499 q 98 499 96 499 q 100 500 100 500 q 101 499 100 500 q 101 494 101 497 q 77 446 101 468 q 4 424 53 424 q -69 451 -40 424 q -97 525 -97 479 q -37 644 -97 593 q 129 694 22 694 l 271 694 q 369 663 351 694 q 374 557 386 631 l 361 486 q 422 508 389 500 q 497 515 456 515 q 656 462 594 515 q 717 318 717 408 q 674 151 717 222 q 558 40 632 79 q 388 0 483 0 m 343 386 l 324 269 q 317 217 319 244 q 314 161 314 189 q 335 95 314 121 q 394 69 356 69 q 496 133 453 69 q 539 324 539 197 q 513 406 539 379 q 443 432 488 432 q 383 416 408 432 q 343 386 357 400 z "},"ы":{"ha":1011,"x_min":-28,"x_max":1026,"o":"m 215 0 q 35 61 97 0 q -28 224 -28 122 q -25 272 -28 246 q -18 324 -22 299 l 25 563 q 31 655 36 628 q 26 682 26 682 q 43 688 26 682 q 99 694 60 694 q 197 663 179 694 q 201 557 214 631 l 189 486 q 250 508 217 500 q 325 515 283 515 q 483 462 422 515 q 544 318 544 408 q 502 151 544 222 q 385 40 460 79 q 215 0 311 0 m 171 386 l 151 269 q 144 217 147 244 q 142 161 142 189 q 163 95 142 121 q 222 69 183 69 q 324 133 281 69 q 367 324 367 197 q 341 406 367 379 q 271 432 315 432 q 210 416 236 432 q 171 386 185 400 m 625 306 l 669 563 q 676 655 681 628 q 671 682 671 682 q 688 688 671 682 q 743 694 704 694 q 841 663 824 694 q 846 557 858 631 l 792 243 q 798 151 782 181 q 851 121 814 121 q 929 153 888 121 q 997 242 971 186 q 1019 233 1011 242 q 1024 206 1026 225 q 998 143 1018 178 q 944 76 978 108 q 868 22 911 43 q 775 0 825 0 q 658 45 703 0 q 613 174 613 90 q 615 229 613 194 q 625 306 618 264 z "},"ь":{"ha":683,"x_min":-28,"x_max":544,"o":"m 215 0 q 35 61 97 0 q -28 224 -28 122 q -25 272 -28 246 q -18 324 -22 299 l 25 563 q 31 655 36 628 q 26 682 26 682 q 43 688 26 682 q 99 694 60 694 q 197 663 179 694 q 201 557 214 631 l 189 486 q 250 508 217 500 q 325 515 283 515 q 483 462 422 515 q 544 318 544 408 q 502 151 544 222 q 385 40 460 79 q 215 0 311 0 m 171 386 l 151 269 q 144 217 147 244 q 142 161 142 189 q 163 95 142 121 q 222 69 183 69 q 324 133 281 69 q 367 324 367 197 q 341 406 367 379 q 271 432 315 432 q 210 416 236 432 q 171 386 185 400 z "},"э":{"ha":653,"x_min":-83,"x_max":514,"o":"m 204 592 q 145 578 178 592 q 87 537 113 564 q 53 468 61 510 q 49 467 53 468 q 43 467 46 467 q 3 514 7 467 q 31 597 0 556 q 118 667 63 639 q 242 694 174 694 q 444 615 374 694 q 514 410 514 536 q 469 199 514 292 q 338 53 424 107 q 131 0 251 0 q 8 22 56 0 q -61 81 -39 44 q -83 158 -83 118 q -55 233 -83 204 q 21 261 -26 261 q 69 249 54 261 q 83 238 83 238 q 67 218 83 238 q 50 154 50 199 q 73 94 50 118 q 136 69 96 69 q 226 101 188 69 q 290 187 264 133 q 328 306 317 240 l 119 306 q 115 313 119 306 q 110 335 110 321 q 122 364 110 353 q 157 375 135 375 l 336 375 l 336 393 q 301 545 336 499 q 204 592 265 592 z "},"ю":{"ha":1067,"x_min":-47,"x_max":1118,"o":"m 672 694 q 861 622 794 694 q 928 429 928 549 q 926 385 928 407 q 921 342 924 363 q 1011 376 974 350 q 1069 426 1049 403 q 1089 450 1089 450 q 1114 415 1118 450 q 1081 362 1110 392 q 1008 308 1053 332 q 907 278 963 285 q 778 77 872 154 q 543 0 685 0 q 360 68 433 0 q 288 265 288 136 q 288 286 288 276 q 289 306 288 296 l 171 306 l 142 132 q 135 40 131 67 q 140 13 140 13 q 124 6 140 13 q 68 0 107 0 q -30 33 -12 0 q -35 138 -47 65 l 39 563 q 45 655 50 628 q 40 682 40 682 q 57 688 40 682 q 113 694 74 694 q 210 663 193 694 q 215 557 228 631 l 183 375 l 297 375 q 423 607 325 519 q 672 694 521 694 m 678 425 q 696 487 678 461 q 749 519 714 513 q 658 626 738 626 q 557 565 607 626 q 478 349 507 504 q 469 277 472 322 q 465 206 465 232 q 490 105 465 140 q 557 69 514 69 q 659 130 614 69 q 731 315 704 190 q 678 425 678 356 z "},"я":{"ha":763,"x_min":-83,"x_max":778,"o":"m 317 694 q 420 690 369 694 q 525 672 471 685 q 588 636 569 663 q 593 536 606 610 l 543 243 q 549 151 533 181 q 603 121 565 121 q 681 153 639 121 q 749 242 722 186 q 770 233 763 242 q 775 206 778 225 q 749 143 769 178 q 696 76 729 108 q 619 22 663 43 q 526 0 576 0 q 409 45 454 0 q 364 174 364 90 q 365 212 364 189 q 369 263 367 235 q 327 261 351 261 q 289 260 303 261 l 254 190 q 163 49 208 99 q 46 0 117 0 q -49 39 -15 0 q -83 133 -83 78 q -50 228 -83 194 q 28 261 -17 261 q 75 251 60 261 q 90 242 90 242 q 79 218 90 242 q 68 165 68 194 q 106 121 68 121 q 146 142 126 121 q 188 210 165 163 l 213 263 q 64 331 114 276 q 14 458 14 385 q 86 627 14 560 q 317 694 158 694 m 314 328 q 349 328 331 328 q 381 329 368 328 l 417 542 q 424 592 421 569 q 428 614 428 614 q 403 619 428 614 q 349 625 379 625 q 236 575 281 625 q 192 450 192 525 q 223 361 192 394 q 314 328 254 328 z "},"ё":{"ha":626,"x_min":-42,"x_max":639,"o":"m 272 0 q 110 36 182 0 q -1 140 39 72 q -42 300 -42 207 q -10 465 -42 392 q 76 590 22 539 q 195 667 129 640 q 331 694 261 694 q 445 673 401 694 q 509 619 489 651 q 529 550 529 586 q 426 392 529 456 q 139 294 322 329 q 197 163 146 217 q 338 110 249 110 q 466 131 413 110 q 555 182 519 151 q 608 242 590 213 q 631 206 639 242 q 599 149 626 183 q 526 80 572 114 q 416 23 481 46 q 272 0 351 0 m 332 625 q 251 595 293 625 q 179 506 210 565 q 140 360 149 447 q 324 449 268 390 q 381 576 381 508 q 367 612 381 599 q 332 625 354 625 m 399 903 q 424 967 399 942 q 486 992 450 992 q 540 970 519 992 q 561 917 561 949 q 537 856 561 882 q 472 829 513 829 q 419 851 440 829 q 399 903 399 872 m 156 903 q 182 967 156 942 q 243 992 208 992 q 297 970 276 992 q 318 917 318 949 q 294 856 318 882 q 229 829 269 829 q 176 851 197 829 q 156 903 156 872 z "},"^":{"ha":696,"x_min":42,"x_max":654,"o":"m 499 640 l 393 890 l 215 640 q 170 598 197 614 q 100 582 143 582 q 56 591 71 582 q 42 600 42 600 q 181 792 125 717 q 268 913 236 868 q 316 978 300 957 q 337 1006 332 1000 q 342 1013 342 1013 q 359 1017 342 1013 q 397 1021 376 1021 q 456 1009 429 1021 q 500 958 483 997 l 654 600 q 640 591 654 600 q 596 582 625 582 q 531 598 553 582 q 499 640 510 614 z "},"`":{"ha":358,"x_min":97,"x_max":358,"o":"m 292 989 l 358 815 q 345 810 358 815 q 306 806 332 806 q 264 816 279 806 q 238 840 249 826 l 97 1039 q 121 1046 97 1039 q 183 1053 144 1053 q 256 1037 233 1053 q 292 989 279 1021 z "},"~":{"ha":744,"x_min":42,"x_max":661,"o":"m 661 432 q 610 326 661 372 q 475 281 560 281 q 404 292 436 281 q 343 319 372 304 q 283 347 314 335 q 217 358 253 358 q 145 339 174 358 q 101 300 117 319 q 86 281 86 281 q 54 293 67 281 q 42 328 42 306 q 92 434 42 389 q 228 479 143 479 q 301 467 269 479 q 361 440 333 456 q 419 413 389 425 q 486 401 449 401 q 557 421 528 401 q 601 460 586 440 q 617 479 617 479 q 650 465 639 479 q 661 432 661 451 z "},"¡":{"ha":439,"x_min":0,"x_max":328,"o":"m 11 -193 l 151 300 q 176 421 175 382 q 176 460 176 460 q 185 465 176 460 q 211 469 194 469 q 247 455 235 469 q 260 404 260 440 q 258 360 260 382 q 253 297 257 338 l 196 -200 q 192 -247 193 -226 q 190 -282 190 -267 q 192 -319 190 -308 q 194 -331 194 -331 q 176 -337 194 -331 q 115 -344 158 -344 q 0 -258 0 -344 q 11 -193 0 -233 m 328 628 q 299 556 328 585 q 231 528 271 528 q 168 553 192 528 q 144 615 144 578 q 172 681 144 651 q 244 711 199 711 q 305 688 282 711 q 328 628 328 664 z "},"¢":{"ha":621,"x_min":-14,"x_max":551,"o":"m 358 836 q 432 803 424 836 q 429 697 440 771 q 519 641 486 681 q 551 551 551 601 q 519 448 551 489 q 432 407 486 407 q 380 424 394 407 q 365 440 365 440 q 378 456 365 440 q 404 501 392 472 q 417 567 417 529 q 353 639 417 639 q 267 602 310 639 q 195 499 224 565 q 167 340 167 432 q 215 178 167 233 q 357 124 264 124 q 441 138 408 124 q 490 167 474 153 q 506 182 506 182 q 528 157 532 182 q 497 101 524 133 q 422 43 469 68 q 307 14 375 18 q 296 -81 297 -51 q 294 -110 294 -110 q 283 -115 294 -110 q 249 -119 272 -119 q 187 -104 204 -119 q 171 -56 169 -89 q 181 29 172 -22 q 39 133 92 58 q -14 308 -14 207 q 29 503 -14 419 q 144 639 72 588 q 299 703 215 690 q 311 797 310 768 q 313 826 313 826 q 324 831 313 826 q 358 836 336 836 z "},"£":{"ha":882,"x_min":28,"x_max":854,"o":"m 197 501 l 238 719 q 292 873 254 811 q 380 972 329 935 q 487 1026 431 1010 q 597 1042 543 1042 q 739 1012 682 1042 q 825 932 796 982 q 854 821 854 882 q 813 684 854 736 q 703 632 772 632 q 644 645 664 632 q 619 671 625 658 q 613 683 613 683 q 625 690 613 683 q 655 713 638 696 q 685 764 672 731 q 697 851 697 797 q 673 935 697 904 q 594 965 649 965 q 498 918 544 965 q 431 756 451 871 l 383 501 l 599 501 q 603 490 599 501 q 608 465 608 479 q 597 436 608 447 q 561 425 585 425 l 369 425 l 322 154 q 436 149 374 151 q 579 146 499 146 q 702 155 657 146 q 766 173 747 164 q 785 182 785 182 q 792 168 785 182 q 800 122 800 154 q 763 35 800 69 q 643 0 725 0 q 516 12 578 0 q 405 39 454 24 q 326 66 356 54 q 297 78 297 78 q 278 58 297 78 q 224 19 260 39 q 136 0 188 0 q 53 26 79 0 q 28 82 28 51 q 53 140 28 114 q 139 165 79 165 l 185 425 l 54 425 q 49 436 54 425 q 44 461 44 447 q 57 490 44 479 q 92 501 69 501 l 197 501 z "},"¥":{"ha":936,"x_min":-42,"x_max":978,"o":"m 801 286 l 600 286 l 576 146 q 569 44 564 74 q 575 14 575 14 q 557 7 575 14 q 496 0 539 0 q 399 35 419 0 q 392 151 378 71 l 414 286 l 189 286 q 184 297 189 286 q 179 322 179 308 q 192 351 179 340 q 226 363 204 363 l 424 363 l 401 457 l 219 457 q 215 468 219 457 q 210 493 210 479 q 222 522 210 511 q 257 533 235 533 l 383 533 l 279 963 q 167 911 204 953 q 129 815 129 869 q 144 769 129 786 q 185 751 158 751 q 202 753 196 751 q 208 756 208 756 q 209 753 208 756 q 210 743 210 750 q 183 692 210 718 q 104 665 157 665 q -3 703 36 665 q -42 804 -42 742 q 49 974 -42 907 q 308 1042 140 1042 l 351 1042 q 425 1021 393 1042 q 467 960 457 1000 l 589 457 l 608 486 q 763 756 703 624 q 822 992 822 889 q 818 1028 822 1015 q 814 1042 814 1042 q 828 1048 814 1042 q 867 1054 842 1054 q 951 1030 925 1054 q 978 961 978 1006 q 947 851 978 913 q 860 711 915 789 q 735 533 806 633 l 869 533 q 874 522 869 533 q 879 497 879 511 q 867 468 879 479 q 832 457 856 457 l 683 457 l 618 363 l 839 363 q 844 351 839 363 q 849 326 849 340 q 837 297 849 308 q 801 286 825 286 z "},"¦":{"ha":517,"x_min":83,"x_max":406,"o":"m 281 456 q 219 471 236 456 q 202 520 201 486 q 213 607 203 554 l 265 896 q 280 1001 279 969 q 281 1032 281 1032 q 292 1037 281 1032 q 326 1042 304 1042 q 389 1026 372 1042 q 405 978 406 1011 q 394 890 404 944 l 342 601 q 327 497 328 529 q 326 465 326 465 q 315 460 326 465 q 281 456 304 456 m 163 -246 q 101 -231 118 -246 q 84 -181 83 -215 q 94 -94 85 -147 l 147 194 q 162 299 161 268 q 163 331 163 331 q 174 335 163 331 q 208 340 186 340 q 271 325 254 340 q 287 276 288 310 q 276 189 286 243 l 224 -100 q 209 -204 210 -172 q 208 -236 208 -236 q 197 -241 208 -236 q 163 -246 186 -246 z "},"§":{"ha":842,"x_min":28,"x_max":786,"o":"m 461 711 l 585 631 q 686 538 650 589 q 722 403 722 486 q 681 266 722 335 q 567 154 639 197 q 595 94 585 126 q 606 29 606 63 q 523 -151 606 -83 q 296 -218 440 -218 q 163 -194 224 -218 q 65 -127 101 -171 q 28 -25 28 -83 q 67 71 28 39 q 163 103 107 103 q 226 88 207 103 q 246 72 246 72 q 232 61 246 72 q 203 26 218 50 q 189 -36 189 3 q 222 -112 189 -83 q 311 -142 254 -142 q 410 -108 371 -142 q 449 -24 449 -74 q 423 51 449 18 q 353 113 397 83 l 229 193 q 126 288 161 238 q 92 421 92 338 q 133 558 92 489 q 246 668 174 626 q 208 794 208 728 q 292 974 208 907 q 517 1042 375 1042 q 650 1018 589 1042 q 749 951 711 994 q 786 849 786 908 q 751 756 786 793 q 651 719 717 719 q 586 735 604 719 q 568 750 568 750 q 583 761 568 750 q 611 797 597 772 q 625 860 625 821 q 592 935 625 906 q 503 965 560 965 q 404 931 443 965 q 365 847 365 897 q 391 773 365 806 q 461 711 417 740 m 361 318 l 488 238 q 508 222 499 232 q 518 213 518 213 q 563 326 563 260 q 538 425 563 383 q 453 506 514 467 l 326 586 q 305 601 315 593 q 294 610 294 610 q 251 497 251 564 q 276 399 251 442 q 361 318 300 357 z "},"¨":{"ha":503,"x_min":97,"x_max":503,"o":"m 340 903 q 366 967 340 942 q 428 992 392 992 q 482 970 461 992 q 503 917 503 949 q 478 856 503 882 q 414 829 454 829 q 361 851 382 829 q 340 903 340 872 m 97 903 q 124 967 97 942 q 185 992 150 992 q 239 970 218 992 q 260 917 260 949 q 235 856 260 882 q 171 829 211 829 q 118 851 139 829 q 97 903 97 872 z "},"ª":{"ha":642,"x_min":97,"x_max":643,"o":"m 606 983 l 563 713 q 564 649 556 665 q 586 632 572 632 q 613 645 606 632 q 621 658 621 658 q 636 652 629 658 q 640 629 643 646 q 605 569 638 599 q 524 540 572 540 q 456 567 482 540 q 418 636 429 593 q 345 565 389 589 q 256 540 301 540 q 140 590 183 540 q 97 726 97 640 q 136 915 97 839 q 234 1031 175 992 q 353 1069 293 1069 q 424 1056 394 1069 q 474 1022 453 1043 q 568 1069 499 1069 q 613 1065 596 1069 q 631 1060 631 1060 q 622 1042 631 1060 q 606 983 613 1025 m 297 640 q 363 678 333 640 q 413 772 392 717 q 443 881 433 828 l 453 933 q 379 985 435 985 q 311 947 343 985 q 260 850 279 910 q 242 724 242 790 q 257 663 242 685 q 297 640 272 640 z "},"¬":{"ha":676,"x_min":42,"x_max":593,"o":"m 521 182 q 459 198 476 182 q 442 247 442 214 q 447 297 442 264 q 457 363 451 329 l 129 363 q 70 356 88 363 q 53 350 53 350 q 47 358 53 350 q 42 386 42 367 q 67 451 42 426 q 157 475 93 475 l 514 475 q 576 462 558 475 q 593 418 593 449 q 590 379 593 400 q 582 328 588 358 q 568 224 569 256 q 567 192 567 192 q 556 187 567 192 q 521 182 544 182 z "},"­":{"ha":664,"x_min":28,"x_max":581,"o":"m 438 304 l 115 304 q 56 298 74 304 q 39 292 39 292 q 33 299 39 292 q 28 325 28 306 q 63 401 28 369 q 171 433 97 433 l 493 433 q 552 440 535 433 q 569 446 569 446 q 575 439 569 446 q 581 413 581 432 q 546 337 581 369 q 438 304 511 304 z "},"®":{"ha":1247,"x_min":69,"x_max":1178,"o":"m 751 172 q 676 201 704 172 q 636 276 649 229 l 624 324 q 602 360 618 349 q 565 372 586 372 l 540 372 l 521 258 q 517 200 514 219 q 521 181 521 181 q 490 176 521 181 q 435 172 460 172 q 378 193 390 172 q 374 261 367 214 l 446 688 q 450 747 453 729 q 447 764 447 764 q 463 768 447 764 q 504 772 479 772 l 654 772 q 822 723 764 772 q 879 597 879 674 q 851 512 879 551 q 776 446 822 472 q 674 411 729 419 q 739 390 711 408 q 776 335 767 371 l 789 286 q 800 258 794 265 q 815 250 806 250 q 833 261 826 250 q 839 272 839 272 q 857 246 861 272 q 825 195 853 218 q 751 172 797 172 m 594 683 l 553 449 l 582 449 q 688 492 650 449 q 725 600 725 536 q 695 670 725 644 q 596 696 665 696 q 595 690 596 693 q 594 683 594 686 m 224 428 q 269 240 224 324 q 397 106 314 156 q 594 57 481 57 q 780 97 700 57 q 914 201 860 136 q 996 348 968 267 q 1024 513 1024 429 q 979 710 1024 622 q 850 848 935 797 q 644 899 765 899 q 477 863 554 899 q 343 761 400 826 q 255 611 286 696 q 224 428 224 526 m 69 424 q 122 649 69 547 q 260 822 174 750 q 451 933 346 894 q 663 972 556 972 q 933 915 817 972 q 1113 756 1049 858 q 1178 515 1178 653 q 1133 314 1178 410 q 1006 144 1088 218 q 814 26 924 69 q 576 -17 704 -17 q 315 38 429 -17 q 135 192 200 93 q 69 424 69 292 z "},"°":{"ha":482,"x_min":97,"x_max":482,"o":"m 97 876 q 126 983 97 936 q 203 1056 156 1029 q 303 1083 250 1083 q 432 1033 382 1083 q 482 908 482 982 q 456 810 482 856 q 382 735 429 764 q 271 707 335 707 q 147 756 196 707 q 97 876 97 804 m 203 888 q 225 826 203 851 q 282 800 247 800 q 351 832 326 800 q 375 903 375 864 q 355 961 375 935 q 296 988 335 988 q 228 958 254 988 q 203 888 203 928 z "},"²":{"ha":501,"x_min":97,"x_max":501,"o":"m 333 1042 q 458 1001 415 1042 q 501 906 501 960 q 484 829 501 867 q 423 753 467 792 q 297 672 379 715 q 230 629 256 650 q 204 608 204 608 q 221 612 204 608 q 263 617 238 615 q 358 623 307 619 q 449 638 410 626 q 453 629 449 638 q 457 603 457 621 q 433 536 457 563 q 361 510 410 510 q 267 515 306 510 q 194 519 229 519 q 155 515 172 519 q 138 510 138 510 q 110 526 122 510 q 97 567 97 542 q 124 623 97 588 q 201 697 151 658 q 328 818 297 771 q 358 900 358 865 q 343 956 358 939 q 304 972 328 972 q 257 948 274 972 q 240 885 240 924 q 247 849 240 863 q 253 835 253 835 q 244 825 253 835 q 213 815 236 815 q 153 840 168 815 q 138 893 138 865 q 164 971 138 938 q 235 1023 190 1004 q 333 1042 281 1042 z "},"³":{"ha":504,"x_min":97,"x_max":504,"o":"m 256 508 q 137 542 176 508 q 97 617 97 575 q 108 651 97 636 q 142 665 119 665 q 153 663 149 665 q 158 661 158 661 q 178 601 158 624 q 236 578 199 578 q 310 608 285 578 q 336 682 336 638 q 327 725 336 711 q 318 739 318 739 l 299 739 q 250 779 250 739 q 251 792 250 788 q 331 826 300 792 q 361 904 361 860 q 301 972 361 972 q 253 949 272 972 q 233 893 233 925 q 240 860 233 871 q 247 849 247 849 q 239 840 247 849 q 206 831 231 831 q 146 856 161 831 q 131 908 131 881 q 188 1003 131 965 q 331 1042 244 1042 q 460 1000 417 1042 q 504 901 504 958 q 477 821 504 858 q 406 764 450 783 q 459 726 438 754 q 481 663 481 699 q 426 556 481 603 q 256 508 372 508 z "},"´":{"ha":415,"x_min":97,"x_max":415,"o":"m 97 815 l 208 989 q 255 1037 228 1021 q 332 1053 282 1053 q 393 1046 371 1053 q 415 1039 415 1039 l 225 840 q 194 815 211 825 q 149 806 176 806 q 110 810 122 806 q 97 815 97 815 z "},"¶":{"ha":865,"x_min":56,"x_max":949,"o":"m 536 -246 q 474 -230 492 -246 q 458 -181 457 -214 q 468 -94 460 -147 l 644 913 q 572 941 610 928 q 486 960 535 954 q 482 928 485 946 q 476 890 479 911 l 304 -100 q 290 -205 292 -174 q 289 -236 289 -236 q 278 -241 289 -236 q 243 -246 267 -246 q 181 -231 199 -246 q 165 -181 164 -215 q 175 -94 167 -147 l 276 488 q 156 518 206 488 q 81 600 107 549 q 56 714 56 651 q 103 885 56 811 q 235 1000 151 958 q 421 1042 318 1042 q 531 1034 472 1042 q 660 1018 589 1026 q 825 1010 732 1010 q 910 1021 886 1010 q 933 1032 933 1032 q 944 1015 939 1026 q 949 986 949 1003 q 912 902 949 935 q 813 869 875 869 q 789 870 800 869 q 767 872 778 871 l 597 -100 q 583 -204 585 -172 q 582 -236 582 -236 q 571 -241 582 -236 q 536 -246 560 -246 z "},"·":{"ha":301,"x_min":56,"x_max":246,"o":"m 56 508 q 85 583 56 553 q 157 613 115 613 q 222 587 197 613 q 246 522 246 561 q 218 453 246 483 q 142 422 190 422 q 79 447 103 422 q 56 508 56 471 z "},"¸":{"ha":389,"x_min":-1,"x_max":278,"o":"m 83 22 l 186 22 l 171 -35 q 249 -67 221 -37 q 278 -146 278 -97 q 233 -250 278 -207 q 119 -293 189 -293 q 40 -267 72 -293 q 1 -206 7 -242 q 12 -178 -1 -181 q 25 -175 25 -175 q 41 -191 25 -175 q 89 -207 57 -207 q 135 -188 118 -207 q 151 -143 151 -169 q 135 -103 151 -118 q 88 -87 119 -87 q 53 -93 68 -87 q 57 -76 53 -93 q 67 -35 61 -58 q 78 5 74 -12 q 83 22 83 22 z "},"º":{"ha":607,"x_min":97,"x_max":607,"o":"m 403 1072 q 552 1015 497 1072 q 607 864 607 958 q 571 702 607 775 q 467 586 535 629 q 304 543 400 543 q 156 597 214 543 q 97 750 97 651 q 137 922 97 850 q 245 1033 176 994 q 403 1072 314 1072 m 250 808 q 243 728 243 764 q 264 645 243 669 q 315 621 285 621 q 403 672 368 621 q 453 807 439 722 q 458 850 456 826 q 460 888 460 874 q 440 969 460 944 q 388 994 419 994 q 335 978 363 994 q 285 921 308 961 q 250 808 263 881 z "},"¹":{"ha":410,"x_min":97,"x_max":388,"o":"m 99 897 q 201 987 172 949 q 232 1032 229 1025 q 246 1037 232 1032 q 294 1042 260 1042 q 372 1014 356 1042 q 376 922 388 986 l 324 624 q 318 542 314 565 q 322 519 322 519 q 308 514 322 519 q 261 508 294 508 q 183 536 200 508 q 178 628 167 564 l 228 904 l 214 893 q 142 857 169 857 q 108 869 119 857 q 99 897 97 882 z "},"¼":{"ha":1182,"x_min":83,"x_max":1154,"o":"m 156 -17 q 109 27 117 6 q 119 77 101 49 q 171 147 138 106 l 831 963 q 894 1046 876 1019 q 911 1072 911 1072 q 924 1071 911 1072 q 956 1058 938 1069 q 1003 1015 996 1036 q 992 965 1010 993 q 940 894 975 938 l 281 79 q 217 -4 235 22 q 200 -31 200 -31 q 188 -29 200 -31 q 156 -17 175 -28 m 85 897 q 187 987 158 949 q 218 1032 215 1025 q 232 1037 218 1032 q 281 1042 246 1042 q 358 1014 342 1042 q 363 922 374 986 l 310 624 q 304 542 300 565 q 308 519 308 519 q 294 514 308 519 q 247 508 281 508 q 169 536 186 508 q 164 628 153 564 l 214 904 l 200 893 q 128 857 156 857 q 94 869 106 857 q 85 897 83 882 m 732 503 q 753 519 732 504 q 815 533 775 533 q 881 510 857 533 q 904 443 904 488 q 865 343 904 386 q 761 253 826 300 l 900 253 l 931 421 q 936 501 942 479 q 931 524 931 524 q 944 528 931 524 q 993 533 958 533 q 1070 506 1054 533 q 1075 414 1086 478 l 1046 253 l 1082 253 q 1131 258 1117 253 q 1144 263 1144 263 q 1149 256 1144 263 q 1154 233 1154 249 q 1133 186 1154 200 q 1060 172 1113 172 l 1032 172 l 1022 115 q 1017 34 1013 57 q 1021 11 1021 11 q 1007 6 1021 11 q 960 0 993 0 q 883 28 899 0 q 876 119 867 56 l 886 172 l 747 172 q 659 186 686 172 q 632 235 632 200 l 632 250 q 728 332 696 282 q 761 436 761 382 q 747 487 761 472 q 732 503 732 501 z "},"½":{"ha":1157,"x_min":83,"x_max":1074,"o":"m 156 -17 q 109 27 117 6 q 119 77 101 49 q 171 147 138 106 l 831 963 q 894 1046 876 1019 q 911 1072 911 1072 q 924 1071 911 1072 q 956 1058 938 1069 q 1003 1015 996 1036 q 992 965 1010 993 q 940 894 975 938 l 281 79 q 217 -4 235 22 q 200 -31 200 -31 q 188 -29 200 -31 q 156 -17 175 -28 m 85 897 q 187 987 158 949 q 218 1032 215 1025 q 232 1037 218 1032 q 281 1042 246 1042 q 358 1014 342 1042 q 363 922 374 986 l 310 624 q 304 542 300 565 q 308 519 308 519 q 294 514 308 519 q 247 508 281 508 q 169 536 186 508 q 164 628 153 564 l 214 904 l 200 893 q 128 857 156 857 q 94 869 106 857 q 85 897 83 882 m 906 532 q 1031 491 988 532 q 1074 396 1074 450 q 1056 319 1074 357 q 995 244 1039 282 q 869 163 951 206 q 802 119 828 140 q 776 99 776 99 q 793 102 776 99 q 835 107 810 106 q 931 113 879 110 q 1021 128 982 117 q 1025 119 1021 128 q 1029 93 1029 111 q 1006 26 1029 53 q 933 0 982 0 q 840 5 878 0 q 767 10 801 10 q 727 5 744 10 q 710 0 710 0 q 682 16 694 0 q 669 57 669 32 q 697 113 669 78 q 774 188 724 149 q 900 308 869 261 q 931 390 931 356 q 915 446 931 429 q 876 463 900 463 q 829 438 846 463 q 813 375 813 414 q 819 339 813 353 q 825 325 825 325 q 817 315 825 325 q 785 306 808 306 q 725 331 740 306 q 710 383 710 356 q 736 461 710 428 q 808 513 763 494 q 906 532 853 532 z "},"¾":{"ha":1235,"x_min":83,"x_max":1207,"o":"m 208 -17 q 162 27 169 6 q 172 77 154 49 q 224 147 190 106 l 883 963 q 947 1046 929 1019 q 964 1072 964 1072 q 977 1071 964 1072 q 1008 1058 990 1069 q 1056 1015 1049 1036 q 1045 965 1063 993 q 993 894 1028 938 l 333 79 q 270 -4 288 22 q 253 -31 253 -31 q 240 -29 253 -31 q 208 -17 228 -28 m 242 508 q 123 542 163 508 q 83 617 83 575 q 94 651 83 636 q 128 665 106 665 q 140 663 135 665 q 144 661 144 661 q 165 601 144 624 q 222 578 185 578 q 297 608 271 578 q 322 682 322 638 q 313 725 322 711 q 304 739 304 739 l 285 739 q 236 779 236 739 q 238 792 236 788 q 317 826 286 792 q 347 904 347 860 q 288 972 347 972 q 239 949 258 972 q 219 893 219 925 q 226 860 219 871 q 233 849 233 849 q 225 840 233 849 q 192 831 217 831 q 132 856 147 831 q 117 908 117 881 q 174 1003 117 965 q 317 1042 231 1042 q 447 1000 403 1042 q 490 901 490 958 q 463 821 490 858 q 392 764 436 783 q 445 726 424 754 q 467 663 467 699 q 413 556 467 603 q 242 508 358 508 m 785 503 q 806 519 785 504 q 868 533 828 533 q 933 510 910 533 q 957 443 957 488 q 918 343 957 386 q 814 253 879 300 l 953 253 l 983 421 q 989 501 994 479 q 983 524 983 524 q 997 528 983 524 q 1046 533 1011 533 q 1123 506 1107 533 q 1128 414 1139 478 l 1099 253 l 1135 253 q 1183 258 1169 253 q 1197 263 1197 263 q 1202 256 1197 263 q 1207 233 1207 249 q 1186 186 1207 200 q 1113 172 1165 172 l 1085 172 l 1075 115 q 1069 34 1065 57 q 1074 11 1074 11 q 1060 6 1074 11 q 1013 0 1046 0 q 935 28 951 0 q 929 119 919 56 l 939 172 l 800 172 q 712 186 739 172 q 685 235 685 200 l 685 250 q 781 332 749 282 q 814 436 814 382 q 799 487 814 472 q 785 503 785 501 z "},"¿":{"ha":631,"x_min":-56,"x_max":575,"o":"m 372 404 q 347 267 372 336 q 257 125 322 199 q 160 -22 183 40 q 138 -136 138 -85 q 171 -234 138 -199 q 265 -269 204 -269 q 344 -245 310 -269 q 399 -181 379 -221 q 419 -92 419 -140 q 407 -28 419 -49 q 394 -7 394 -7 q 412 10 394 -7 q 475 26 429 26 q 547 -2 519 26 q 575 -87 575 -31 q 533 -212 575 -153 q 414 -307 490 -271 q 238 -344 338 -343 q 74 -313 139 -344 q -24 -232 8 -282 q -56 -124 -56 -182 q -35 -11 -56 -58 q 28 81 -15 36 q 143 183 72 126 q 226 269 186 218 q 282 385 265 321 q 291 442 293 425 q 289 460 289 460 q 298 465 289 460 q 324 469 307 469 q 362 452 351 469 q 372 404 372 435 m 440 628 q 412 556 440 585 q 343 528 383 528 q 281 553 304 528 q 257 615 257 578 q 284 681 257 651 q 357 711 311 711 q 417 688 394 711 q 440 628 440 664 z "},"À":{"ha":922,"x_min":-56,"x_max":939,"o":"m 536 365 l 539 381 l 297 381 l 256 265 q 181 97 215 154 q 114 20 147 40 q 42 0 81 0 q -28 30 -1 0 q -56 107 -56 60 q -46 160 -56 143 q -36 176 -36 176 q -24 171 -36 176 q 13 165 -12 165 q 107 210 58 165 q 207 378 156 254 q 135 359 160 372 q 110 346 110 346 q 99 360 110 346 q 88 401 88 374 q 117 468 88 443 q 199 493 147 493 q 249 489 224 493 l 354 782 q 429 928 386 871 q 538 1014 472 986 q 703 1042 604 1042 q 808 1005 788 1042 q 814 890 828 968 l 700 236 q 709 149 690 176 q 763 121 728 121 q 826 143 797 121 q 877 194 856 165 q 908 242 899 222 q 935 206 939 242 q 893 116 929 164 q 802 34 857 68 q 683 0 747 0 q 563 47 610 0 q 517 172 517 93 q 522 265 517 221 q 536 365 526 310 m 332 476 q 424 465 372 471 q 551 457 475 458 l 629 897 q 635 947 635 929 q 636 965 636 965 q 553 940 590 965 q 488 873 515 914 q 443 785 460 832 l 332 476 m 633 1336 l 700 1163 q 687 1158 700 1163 q 647 1153 674 1153 q 606 1163 621 1153 q 579 1188 590 1174 l 439 1386 q 463 1393 439 1386 q 525 1400 486 1400 q 598 1384 575 1400 q 633 1336 621 1368 z "},"™":{"ha":1108,"x_min":28,"x_max":1058,"o":"m 549 776 l 590 918 q 608 1008 608 979 q 608 1036 608 1036 q 628 1039 608 1036 q 664 1042 647 1042 q 715 1029 694 1042 q 739 981 736 1017 l 761 725 l 875 958 q 897 1007 890 990 q 906 1035 903 1024 q 914 1038 906 1035 q 942 1042 922 1042 q 1013 1025 988 1042 q 1032 969 1039 1008 l 982 683 q 1001 626 972 626 q 1024 639 1017 626 q 1031 651 1031 651 q 1051 619 1058 651 q 1022 573 1046 594 q 957 551 997 551 q 878 583 900 551 q 856 660 856 615 q 858 692 856 675 q 861 722 860 710 l 879 828 l 782 625 q 763 579 768 597 q 758 561 758 561 q 745 556 758 561 q 713 551 732 551 q 668 569 686 551 q 647 617 650 586 l 628 828 l 582 657 q 545 578 568 604 q 481 551 522 551 q 440 567 458 551 q 422 610 422 582 q 431 648 422 638 q 439 658 439 658 q 447 654 439 658 q 467 650 456 650 q 507 677 486 650 q 549 776 528 704 m 225 1042 q 352 1034 286 1042 q 515 1026 418 1026 q 561 1032 544 1026 q 578 1038 578 1038 q 585 1010 585 1031 q 565 957 585 982 q 499 932 546 932 q 445 937 469 932 q 397 947 421 942 l 340 619 q 337 571 335 585 q 339 557 339 557 q 322 554 339 557 q 285 551 304 551 q 223 568 239 551 q 213 622 207 585 l 274 976 q 225 981 251 981 q 165 963 186 981 q 144 918 144 946 q 155 892 144 901 q 178 883 165 883 q 188 885 185 883 q 192 886 192 886 q 171 842 192 860 q 114 825 150 825 q 51 851 75 825 q 28 915 28 876 q 76 1003 28 964 q 225 1042 124 1042 z "},"‡":{"ha":767,"x_min":28,"x_max":711,"o":"m 335 392 q 324 478 332 438 q 310 546 317 519 q 304 572 304 572 q 353 629 328 592 q 394 694 378 667 q 311 659 356 676 q 224 642 267 642 q 170 666 190 642 q 150 721 150 690 q 176 788 150 758 q 236 817 201 817 q 322 795 278 817 q 404 750 367 774 q 391 810 399 774 q 377 888 383 847 q 371 958 371 928 q 397 1014 371 986 q 465 1042 422 1042 q 529 1015 511 1042 q 547 965 547 988 q 532 900 547 940 q 497 819 517 860 q 464 753 478 779 q 553 795 503 774 q 642 817 604 817 q 694 795 676 817 q 711 738 711 774 q 688 672 711 701 q 619 642 664 642 q 533 661 575 642 q 451 700 490 681 q 467 639 456 675 q 500 572 478 603 q 483 549 500 572 q 444 486 467 526 q 403 392 421 446 q 413 304 406 346 q 428 236 421 263 q 435 210 435 210 q 385 153 411 190 q 344 88 360 115 q 428 124 383 107 q 515 140 472 140 q 569 117 549 140 q 589 61 589 93 q 564 -6 589 24 q 503 -35 539 -35 q 416 -13 460 -35 q 335 31 372 8 q 348 -28 340 8 q 362 -106 356 -65 q 368 -176 368 -146 q 343 -231 368 -203 q 274 -260 318 -260 q 210 -233 228 -260 q 192 -183 192 -206 q 206 -118 192 -158 q 241 -37 221 -78 q 275 28 261 3 q 185 -14 236 7 q 97 -35 135 -35 q 45 -13 63 -35 q 28 44 28 8 q 51 110 28 81 q 119 140 75 140 q 206 121 164 140 q 288 82 249 101 q 271 142 282 106 q 239 210 260 179 q 256 232 239 210 q 294 295 272 254 q 335 392 317 336 z "},"ƒ":{"ha":513,"x_min":-278,"x_max":679,"o":"m 372 889 l 339 694 l 478 694 q 483 687 478 694 q 488 665 488 679 q 476 636 488 647 q 440 625 464 625 l 326 625 l 178 -219 q -100 -486 131 -486 q -233 -444 -187 -486 q -278 -335 -278 -401 q -244 -242 -278 -276 q -156 -207 -210 -207 q -103 -224 -118 -207 q -87 -240 -87 -240 q -101 -253 -87 -240 q -130 -292 -115 -267 q -144 -356 -144 -317 q -131 -400 -144 -383 q -96 -417 -118 -417 q -39 -376 -60 -417 q -6 -260 -18 -335 l 149 625 l 60 625 q 55 633 60 625 q 50 654 50 640 q 63 683 50 672 q 97 694 75 694 l 161 694 l 185 831 q 292 1078 214 1004 q 489 1153 371 1153 q 632 1105 585 1153 q 679 996 679 1057 q 645 892 679 932 q 557 851 611 851 q 504 868 519 851 q 489 885 489 885 q 503 902 489 885 q 532 951 518 919 q 546 1022 546 982 q 531 1069 546 1054 q 492 1083 515 1083 q 426 1042 460 1083 q 372 889 392 1000 z "},"ˆ":{"ha":542,"x_min":97,"x_max":542,"o":"m 379 861 l 328 949 l 225 840 q 190 814 207 822 q 149 806 174 806 q 110 810 122 806 q 97 815 97 815 l 275 1042 q 291 1047 275 1042 q 333 1053 307 1053 q 399 1040 376 1053 q 439 997 422 1026 l 542 815 q 524 810 542 815 q 490 806 507 806 q 420 818 443 806 q 379 861 397 831 z "},"‰":{"ha":1888,"x_min":56,"x_max":1832,"o":"m 1628 529 q 1777 472 1722 529 q 1832 321 1832 415 q 1796 159 1832 232 q 1692 43 1760 86 q 1529 0 1625 0 q 1381 54 1439 0 q 1322 207 1322 108 q 1362 379 1322 307 q 1470 490 1401 451 q 1628 529 1539 529 m 1475 265 q 1468 185 1468 221 q 1489 102 1468 126 q 1540 78 1510 78 q 1628 128 1593 78 q 1678 264 1664 179 q 1683 307 1681 283 q 1685 344 1685 331 q 1665 426 1685 401 q 1613 451 1644 451 q 1560 435 1588 451 q 1510 378 1533 418 q 1475 265 1488 338 m 371 -22 q 313 35 313 -1 q 325 80 313 54 q 358 142 338 106 l 817 949 q 865 1042 853 1013 q 878 1071 878 1071 q 892 1071 878 1071 q 924 1064 907 1071 q 982 1007 982 1043 q 969 963 982 989 q 936 900 957 936 l 478 93 q 429 0 442 29 q 417 -29 417 -29 q 402 -28 417 -29 q 371 -22 388 -28 m 1035 529 q 1184 472 1129 529 q 1239 321 1239 415 q 1203 159 1239 232 q 1099 43 1167 86 q 936 0 1032 0 q 788 54 846 0 q 729 207 729 108 q 769 379 729 307 q 877 490 808 451 q 1035 529 946 529 m 882 265 q 875 185 875 221 q 896 102 875 126 q 947 78 917 78 q 1035 128 1000 78 q 1085 264 1071 179 q 1090 307 1088 283 q 1092 344 1092 331 q 1072 426 1092 401 q 1019 451 1051 451 q 967 435 994 451 q 917 378 940 418 q 882 265 894 338 m 361 1042 q 510 985 456 1042 q 565 833 565 928 q 529 672 565 744 q 426 556 493 599 q 263 513 358 513 q 114 567 172 513 q 56 719 56 621 q 95 892 56 819 q 203 1003 135 964 q 361 1042 272 1042 m 208 778 q 201 697 201 733 q 222 615 201 639 q 274 590 243 590 q 362 641 326 590 q 411 776 397 692 q 416 819 414 796 q 418 857 418 843 q 398 939 418 914 q 346 964 378 964 q 294 947 321 964 q 244 890 267 931 q 208 778 221 850 z "},"×":{"ha":631,"x_min":40,"x_max":549,"o":"m 247 590 l 314 483 l 440 590 q 482 632 472 617 q 492 647 492 647 q 501 645 492 647 q 524 628 510 643 q 545 563 549 597 q 490 485 542 528 l 374 388 l 463 247 q 501 203 485 213 q 517 193 517 193 q 511 183 517 193 q 490 163 506 174 q 420 141 457 140 q 349 197 383 142 l 279 307 l 147 197 q 107 154 117 171 q 97 138 97 138 q 88 142 97 138 q 65 160 78 146 q 43 225 40 190 q 97 303 46 260 l 219 404 l 135 540 q 97 585 114 575 q 81 594 81 594 q 85 605 81 594 q 106 626 90 615 q 175 648 138 650 q 247 590 213 646 z "},"ˇ":{"ha":542,"x_min":97,"x_max":542,"o":"m 260 997 l 311 910 l 414 1018 q 449 1045 433 1038 q 490 1053 465 1053 q 530 1048 518 1053 q 542 1043 542 1043 l 364 817 q 349 811 364 817 q 306 806 333 806 q 240 819 263 806 q 200 861 217 832 l 97 1043 q 115 1048 97 1043 q 149 1053 132 1053 q 219 1040 196 1053 q 260 997 242 1028 z "},"à":{"ha":774,"x_min":-42,"x_max":789,"o":"m 614 581 l 554 243 q 560 151 543 181 q 614 121 576 121 q 692 153 650 121 q 760 242 733 186 q 781 233 774 242 q 786 206 789 225 q 760 143 781 178 q 707 76 740 108 q 631 22 674 43 q 538 0 588 0 q 425 41 469 0 q 375 157 381 82 q 277 40 332 81 q 163 0 222 0 q 18 58 78 0 q -42 239 -42 117 q -11 441 -42 356 q 69 583 19 526 q 180 667 119 639 q 301 694 240 694 q 391 676 354 694 q 451 626 428 657 q 497 679 468 664 q 576 694 525 694 q 629 688 613 694 q 646 681 646 681 q 635 659 646 681 q 614 581 625 638 m 218 121 q 288 155 256 121 q 344 242 319 189 q 388 356 369 296 q 417 468 407 417 l 429 533 q 399 577 419 554 q 338 600 378 600 q 244 556 290 600 q 167 430 197 511 q 136 236 136 349 q 158 149 136 178 q 218 121 179 121 m 379 989 l 446 815 q 433 810 446 815 q 393 806 419 806 q 351 816 367 806 q 325 840 336 826 l 185 1039 q 208 1046 185 1039 q 271 1053 232 1053 q 344 1037 321 1053 q 379 989 367 1021 z "},"á":{"ha":774,"x_min":-42,"x_max":789,"o":"m 614 581 l 554 243 q 560 151 543 181 q 614 121 576 121 q 692 153 650 121 q 760 242 733 186 q 781 233 774 242 q 786 206 789 225 q 760 143 781 178 q 707 76 740 108 q 631 22 674 43 q 538 0 588 0 q 425 41 469 0 q 375 157 381 82 q 277 40 332 81 q 163 0 222 0 q 18 58 78 0 q -42 239 -42 117 q -11 441 -42 356 q 69 583 19 526 q 180 667 119 639 q 301 694 240 694 q 391 676 354 694 q 451 626 428 657 q 497 679 468 664 q 576 694 525 694 q 629 688 613 694 q 646 681 646 681 q 635 659 646 681 q 614 581 625 638 m 218 121 q 288 155 256 121 q 344 242 319 189 q 388 356 369 296 q 417 468 407 417 l 429 533 q 399 577 419 554 q 338 600 378 600 q 244 556 290 600 q 167 430 197 511 q 136 236 136 349 q 158 149 136 178 q 218 121 179 121 m 336 815 l 447 989 q 494 1037 467 1021 q 571 1053 521 1053 q 632 1046 610 1053 q 654 1039 654 1039 l 464 840 q 433 815 450 825 q 388 806 415 806 q 349 810 361 806 q 336 815 336 815 z "},"Á":{"ha":922,"x_min":-56,"x_max":950,"o":"m 536 365 l 539 381 l 297 381 l 256 265 q 181 97 215 154 q 114 20 147 40 q 42 0 81 0 q -28 30 -1 0 q -56 107 -56 60 q -46 160 -56 143 q -36 176 -36 176 q -24 171 -36 176 q 13 165 -12 165 q 107 210 58 165 q 207 378 156 254 q 135 359 160 372 q 110 346 110 346 q 99 360 110 346 q 88 401 88 374 q 117 468 88 443 q 199 493 147 493 q 249 489 224 493 l 354 782 q 429 928 386 871 q 538 1014 472 986 q 703 1042 604 1042 q 808 1005 788 1042 q 814 890 828 968 l 700 236 q 709 149 690 176 q 763 121 728 121 q 826 143 797 121 q 877 194 856 165 q 908 242 899 222 q 935 206 939 242 q 893 116 929 164 q 802 34 857 68 q 683 0 747 0 q 563 47 610 0 q 517 172 517 93 q 522 265 517 221 q 536 365 526 310 m 332 476 q 424 465 372 471 q 551 457 475 458 l 629 897 q 635 947 635 929 q 636 965 636 965 q 553 940 590 965 q 488 873 515 914 q 443 785 460 832 l 332 476 m 632 1163 l 743 1336 q 790 1384 763 1368 q 867 1400 817 1400 q 928 1393 906 1400 q 950 1386 950 1386 l 760 1188 q 728 1163 746 1172 q 683 1153 711 1153 q 644 1158 657 1153 q 632 1163 632 1163 z "},"â":{"ha":774,"x_min":-42,"x_max":789,"o":"m 614 581 l 554 243 q 560 151 543 181 q 614 121 576 121 q 692 153 650 121 q 760 242 733 186 q 781 233 774 242 q 786 206 789 225 q 760 143 781 178 q 707 76 740 108 q 631 22 674 43 q 538 0 588 0 q 425 41 469 0 q 375 157 381 82 q 277 40 332 81 q 163 0 222 0 q 18 58 78 0 q -42 239 -42 117 q -11 441 -42 356 q 69 583 19 526 q 180 667 119 639 q 301 694 240 694 q 391 676 354 694 q 451 626 428 657 q 497 679 468 664 q 576 694 525 694 q 629 688 613 694 q 646 681 646 681 q 635 659 646 681 q 614 581 625 638 m 218 121 q 288 155 256 121 q 344 242 319 189 q 388 356 369 296 q 417 468 407 417 l 429 533 q 399 577 419 554 q 338 600 378 600 q 244 556 290 600 q 167 430 197 511 q 136 236 136 349 q 158 149 136 178 q 218 121 179 121 m 435 861 l 383 949 l 281 840 q 246 814 263 822 q 204 806 229 806 q 165 810 178 806 q 153 815 153 815 l 331 1042 q 347 1047 331 1042 q 389 1053 363 1053 q 455 1040 432 1053 q 494 997 478 1026 l 597 815 q 580 810 597 815 q 546 806 563 806 q 476 818 499 806 q 435 861 453 831 z "},"Â":{"ha":922,"x_min":-56,"x_max":939,"o":"m 536 365 l 539 381 l 297 381 l 256 265 q 181 97 215 154 q 114 20 147 40 q 42 0 81 0 q -28 30 -1 0 q -56 107 -56 60 q -46 160 -56 143 q -36 176 -36 176 q -24 171 -36 176 q 13 165 -12 165 q 107 210 58 165 q 207 378 156 254 q 135 359 160 372 q 110 346 110 346 q 99 360 110 346 q 88 401 88 374 q 117 468 88 443 q 199 493 147 493 q 249 489 224 493 l 354 782 q 429 928 386 871 q 538 1014 472 986 q 703 1042 604 1042 q 808 1005 788 1042 q 814 890 828 968 l 700 236 q 709 149 690 176 q 763 121 728 121 q 826 143 797 121 q 877 194 856 165 q 908 242 899 222 q 935 206 939 242 q 893 116 929 164 q 802 34 857 68 q 683 0 747 0 q 563 47 610 0 q 517 172 517 93 q 522 265 517 221 q 536 365 526 310 m 332 476 q 424 465 372 471 q 551 457 475 458 l 629 897 q 635 947 635 929 q 636 965 636 965 q 553 940 590 965 q 488 873 515 914 q 443 785 460 832 l 332 476 m 725 1208 l 674 1296 l 571 1188 q 536 1161 553 1169 q 494 1153 519 1153 q 456 1158 468 1153 q 443 1163 443 1163 l 621 1389 q 637 1394 621 1389 q 679 1400 653 1400 q 745 1387 722 1400 q 785 1344 768 1374 l 888 1163 q 870 1158 888 1163 q 836 1153 853 1153 q 766 1165 789 1153 q 725 1208 743 1178 z "},"ã":{"ha":774,"x_min":-42,"x_max":789,"o":"m 614 581 l 554 243 q 560 151 543 181 q 614 121 576 121 q 692 153 650 121 q 760 242 733 186 q 781 233 774 242 q 786 206 789 225 q 760 143 781 178 q 707 76 740 108 q 631 22 674 43 q 538 0 588 0 q 425 41 469 0 q 375 157 381 82 q 277 40 332 81 q 163 0 222 0 q 18 58 78 0 q -42 239 -42 117 q -11 441 -42 356 q 69 583 19 526 q 180 667 119 639 q 301 694 240 694 q 391 676 354 694 q 451 626 428 657 q 497 679 468 664 q 576 694 525 694 q 629 688 613 694 q 646 681 646 681 q 635 659 646 681 q 614 581 625 638 m 218 121 q 288 155 256 121 q 344 242 319 189 q 388 356 369 296 q 417 468 407 417 l 429 533 q 399 577 419 554 q 338 600 378 600 q 244 556 290 600 q 167 430 197 511 q 136 236 136 349 q 158 149 136 178 q 218 121 179 121 m 464 819 q 403 831 428 819 q 360 857 379 842 q 322 883 342 872 q 275 894 303 894 q 210 876 233 894 q 178 838 188 857 q 169 819 169 819 q 147 828 157 819 q 138 863 136 836 q 161 935 140 901 q 217 990 182 968 q 297 1011 253 1011 q 358 1000 333 1011 q 401 974 382 989 q 440 947 421 958 q 486 936 460 936 q 551 955 529 936 q 583 992 574 974 q 592 1011 592 1011 q 615 1003 604 1011 q 624 968 625 994 q 601 897 622 931 q 544 841 579 863 q 464 819 510 819 z "},"Ã":{"ha":922,"x_min":-56,"x_max":939,"o":"m 536 365 l 539 381 l 297 381 l 256 265 q 181 97 215 154 q 114 20 147 40 q 42 0 81 0 q -28 30 -1 0 q -56 107 -56 60 q -46 160 -56 143 q -36 176 -36 176 q -24 171 -36 176 q 13 165 -12 165 q 107 210 58 165 q 207 378 156 254 q 135 359 160 372 q 110 346 110 346 q 99 360 110 346 q 88 401 88 374 q 117 468 88 443 q 199 493 147 493 q 249 489 224 493 l 354 782 q 429 928 386 871 q 538 1014 472 986 q 703 1042 604 1042 q 808 1005 788 1042 q 814 890 828 968 l 700 236 q 709 149 690 176 q 763 121 728 121 q 826 143 797 121 q 877 194 856 165 q 908 242 899 222 q 935 206 939 242 q 893 116 929 164 q 802 34 857 68 q 683 0 747 0 q 563 47 610 0 q 517 172 517 93 q 522 265 517 221 q 536 365 526 310 m 332 476 q 424 465 372 471 q 551 457 475 458 l 629 897 q 635 947 635 929 q 636 965 636 965 q 553 940 590 965 q 488 873 515 914 q 443 785 460 832 l 332 476 m 765 1167 q 705 1178 729 1167 q 662 1204 681 1189 q 624 1231 643 1219 q 576 1242 604 1242 q 512 1223 535 1242 q 480 1185 489 1204 q 471 1167 471 1167 q 448 1175 458 1167 q 439 1210 438 1183 q 463 1282 442 1249 q 519 1337 483 1315 q 599 1358 554 1358 q 659 1347 635 1358 q 703 1321 683 1336 q 742 1294 722 1306 q 788 1283 761 1283 q 853 1302 831 1283 q 884 1340 875 1321 q 893 1358 893 1358 q 916 1350 906 1358 q 925 1315 926 1342 q 902 1244 924 1278 q 846 1188 881 1210 q 765 1167 811 1167 z "},"ä":{"ha":774,"x_min":-42,"x_max":789,"o":"m 614 581 l 554 243 q 560 151 543 181 q 614 121 576 121 q 692 153 650 121 q 760 242 733 186 q 781 233 774 242 q 786 206 789 225 q 760 143 781 178 q 707 76 740 108 q 631 22 674 43 q 538 0 588 0 q 425 41 469 0 q 375 157 381 82 q 277 40 332 81 q 163 0 222 0 q 18 58 78 0 q -42 239 -42 117 q -11 441 -42 356 q 69 583 19 526 q 180 667 119 639 q 301 694 240 694 q 391 676 354 694 q 451 626 428 657 q 497 679 468 664 q 576 694 525 694 q 629 688 613 694 q 646 681 646 681 q 635 659 646 681 q 614 581 625 638 m 218 121 q 288 155 256 121 q 344 242 319 189 q 388 356 369 296 q 417 468 407 417 l 429 533 q 399 577 419 554 q 338 600 378 600 q 244 556 290 600 q 167 430 197 511 q 136 236 136 349 q 158 149 136 178 q 218 121 179 121 m 433 903 q 459 967 433 942 q 521 992 485 992 q 575 970 554 992 q 596 917 596 949 q 572 856 596 882 q 507 829 547 829 q 454 851 475 829 q 433 903 433 872 m 190 903 q 217 967 190 942 q 278 992 243 992 q 332 970 311 992 q 353 917 353 949 q 328 856 353 882 q 264 829 304 829 q 211 851 232 829 q 190 903 190 872 z "},"Ä":{"ha":922,"x_min":-56,"x_max":939,"o":"m 536 365 l 539 381 l 297 381 l 256 265 q 181 97 215 154 q 114 20 147 40 q 42 0 81 0 q -28 30 -1 0 q -56 107 -56 60 q -46 160 -56 143 q -36 176 -36 176 q -24 171 -36 176 q 13 165 -12 165 q 107 210 58 165 q 207 378 156 254 q 135 359 160 372 q 110 346 110 346 q 99 360 110 346 q 88 401 88 374 q 117 468 88 443 q 199 493 147 493 q 249 489 224 493 l 354 782 q 429 928 386 871 q 538 1014 472 986 q 703 1042 604 1042 q 808 1005 788 1042 q 814 890 828 968 l 700 236 q 709 149 690 176 q 763 121 728 121 q 826 143 797 121 q 877 194 856 165 q 908 242 899 222 q 935 206 939 242 q 893 116 929 164 q 802 34 857 68 q 683 0 747 0 q 563 47 610 0 q 517 172 517 93 q 522 265 517 221 q 536 365 526 310 m 332 476 q 424 465 372 471 q 551 457 475 458 l 629 897 q 635 947 635 929 q 636 965 636 965 q 553 940 590 965 q 488 873 515 914 q 443 785 460 832 l 332 476 m 722 1250 q 748 1314 722 1289 q 810 1339 774 1339 q 864 1317 843 1339 q 885 1264 885 1296 q 860 1203 885 1229 q 796 1176 836 1176 q 743 1198 764 1176 q 722 1250 722 1219 m 479 1250 q 506 1314 479 1289 q 567 1339 532 1339 q 621 1317 600 1339 q 642 1264 642 1296 q 617 1203 642 1229 q 553 1176 593 1176 q 500 1198 521 1176 q 479 1250 479 1219 z "},"˚":{"ha":374,"x_min":97,"x_max":374,"o":"m 97 903 q 142 1011 97 968 q 244 1054 186 1054 q 338 1017 303 1054 q 374 925 374 979 q 333 823 374 868 q 222 778 292 778 q 132 814 167 778 q 97 903 97 850 m 176 910 q 192 870 176 886 q 229 854 207 854 q 276 874 260 854 q 293 921 293 894 q 280 960 293 943 q 240 976 267 976 q 194 957 213 976 q 176 910 176 938 z "},"å":{"ha":774,"x_min":-42,"x_max":789,"o":"m 614 581 l 554 243 q 560 151 543 181 q 614 121 576 121 q 692 153 650 121 q 760 242 733 186 q 781 233 774 242 q 786 206 789 225 q 760 143 781 178 q 707 76 740 108 q 631 22 674 43 q 538 0 588 0 q 425 41 469 0 q 375 157 381 82 q 277 40 332 81 q 163 0 222 0 q 18 58 78 0 q -42 239 -42 117 q -11 441 -42 356 q 69 583 19 526 q 180 667 119 639 q 301 694 240 694 q 391 676 354 694 q 451 626 428 657 q 497 679 468 664 q 576 694 525 694 q 629 688 613 694 q 646 681 646 681 q 635 659 646 681 q 614 581 625 638 m 218 121 q 288 155 256 121 q 344 242 319 189 q 388 356 369 296 q 417 468 407 417 l 429 533 q 399 577 419 554 q 338 600 378 600 q 244 556 290 600 q 167 430 197 511 q 136 236 136 349 q 158 149 136 178 q 218 121 179 121 m 249 903 q 293 1011 249 968 q 396 1054 338 1054 q 490 1017 454 1054 q 525 925 525 979 q 484 823 525 868 q 374 778 443 778 q 283 814 318 778 q 249 903 249 850 m 328 910 q 343 870 328 886 q 381 854 358 854 q 428 874 411 854 q 444 921 444 894 q 431 960 444 943 q 392 976 418 976 q 346 957 364 976 q 328 910 328 938 z "},"Å":{"ha":922,"x_min":-56,"x_max":939,"o":"m 536 365 l 539 381 l 297 381 l 256 265 q 181 97 215 154 q 114 20 147 40 q 42 0 81 0 q -28 30 -1 0 q -56 107 -56 60 q -46 160 -56 143 q -36 176 -36 176 q -24 171 -36 176 q 13 165 -12 165 q 107 210 58 165 q 207 378 156 254 q 135 359 160 372 q 110 346 110 346 q 99 360 110 346 q 88 401 88 374 q 117 468 88 443 q 199 493 147 493 q 249 489 224 493 l 354 782 q 429 928 386 871 q 538 1014 472 986 q 703 1042 604 1042 q 808 1005 788 1042 q 814 890 828 968 l 700 236 q 709 149 690 176 q 763 121 728 121 q 826 143 797 121 q 877 194 856 165 q 908 242 899 222 q 935 206 939 242 q 893 116 929 164 q 802 34 857 68 q 683 0 747 0 q 563 47 610 0 q 517 172 517 93 q 522 265 517 221 q 536 365 526 310 m 332 476 q 424 465 372 471 q 551 457 475 458 l 629 897 q 635 947 635 929 q 636 965 636 965 q 553 940 590 965 q 488 873 515 914 q 443 785 460 832 l 332 476 m 551 1250 q 596 1358 551 1315 q 699 1401 640 1401 q 792 1364 757 1401 q 828 1272 828 1326 q 787 1170 828 1215 q 676 1125 746 1125 q 586 1161 621 1125 q 551 1250 551 1197 m 631 1257 q 646 1217 631 1233 q 683 1201 661 1201 q 731 1222 714 1201 q 747 1268 747 1242 q 734 1307 747 1290 q 694 1324 721 1324 q 649 1304 667 1324 q 631 1257 631 1285 z "},"æ":{"ha":1046,"x_min":-42,"x_max":1058,"o":"m 692 0 q 508 49 586 0 q 397 186 429 97 q 342 100 376 143 q 262 28 307 57 q 163 0 217 0 q 18 58 78 0 q -42 239 -42 117 q -11 441 -42 356 q 69 583 19 526 q 180 667 119 639 q 301 694 240 694 q 397 672 360 694 q 456 623 435 650 q 483 578 476 596 q 607 665 536 635 q 750 694 678 694 q 865 673 821 694 q 928 619 908 651 q 949 550 949 586 q 845 392 949 456 q 558 294 742 329 q 617 163 565 217 q 757 110 669 110 q 885 131 832 110 q 974 182 939 151 q 1028 242 1010 213 q 1050 206 1058 242 q 1017 146 1044 181 q 942 78 989 111 q 833 22 896 44 q 692 0 769 0 m 221 121 q 303 168 257 121 q 378 292 349 215 q 393 419 378 365 q 436 517 408 472 q 421 551 432 532 q 390 585 410 571 q 338 600 369 600 q 244 556 290 600 q 167 430 197 511 q 136 236 136 349 q 159 149 136 178 q 221 121 182 121 m 751 625 q 671 595 713 625 q 599 506 629 565 q 560 360 568 447 q 744 449 688 390 q 800 576 800 508 q 787 612 800 599 q 751 625 774 625 z "},"ç":{"ha":626,"x_min":-42,"x_max":639,"o":"m 631 206 q 600 149 625 182 q 533 85 575 117 q 435 30 492 53 q 310 1 379 7 l 300 -35 q 378 -67 350 -37 q 407 -146 407 -97 q 363 -250 407 -207 q 249 -293 318 -293 q 169 -267 201 -293 q 131 -206 136 -242 q 141 -178 128 -181 q 154 -175 154 -175 q 170 -191 154 -175 q 218 -207 186 -207 q 264 -188 247 -207 q 281 -143 281 -169 q 265 -103 281 -118 q 217 -87 249 -87 q 182 -93 197 -87 q 187 -75 182 -93 q 197 -33 192 -57 q 207 6 203 -10 q 26 100 94 24 q -42 294 -42 176 q -11 458 -42 385 q 72 585 19 532 q 190 666 124 638 q 328 694 257 694 q 469 650 414 694 q 524 538 524 606 q 491 434 524 475 q 404 393 458 393 q 352 410 367 393 q 338 426 338 426 q 351 441 338 426 q 376 485 364 456 q 389 561 389 515 q 371 608 389 590 q 325 625 353 625 q 239 588 282 625 q 167 482 196 550 q 139 322 139 414 q 190 169 139 229 q 343 110 242 110 q 467 131 414 110 q 555 182 519 151 q 608 242 590 213 q 631 206 639 242 z "},"è":{"ha":626,"x_min":-42,"x_max":639,"o":"m 272 0 q 110 36 182 0 q -1 140 39 72 q -42 300 -42 207 q -10 465 -42 392 q 76 590 22 539 q 195 667 129 640 q 331 694 261 694 q 445 673 401 694 q 509 619 489 651 q 529 550 529 586 q 426 392 529 456 q 139 294 322 329 q 197 163 146 217 q 338 110 249 110 q 466 131 413 110 q 555 182 519 151 q 608 242 590 213 q 631 206 639 242 q 599 149 626 183 q 526 80 572 114 q 416 23 481 46 q 272 0 351 0 m 332 625 q 251 595 293 625 q 179 506 210 565 q 140 360 149 447 q 324 449 268 390 q 381 576 381 508 q 367 612 381 599 q 332 625 354 625 m 324 989 l 390 815 q 377 810 390 815 q 338 806 364 806 q 296 816 311 806 q 269 840 281 826 l 129 1039 q 153 1046 129 1039 q 215 1053 176 1053 q 288 1037 265 1053 q 324 989 311 1021 z "},"é":{"ha":626,"x_min":-42,"x_max":639,"o":"m 272 0 q 110 36 182 0 q -1 140 39 72 q -42 300 -42 207 q -10 465 -42 392 q 76 590 22 539 q 195 667 129 640 q 331 694 261 694 q 445 673 401 694 q 509 619 489 651 q 529 550 529 586 q 426 392 529 456 q 139 294 322 329 q 197 163 146 217 q 338 110 249 110 q 466 131 413 110 q 555 182 519 151 q 608 242 590 213 q 631 206 639 242 q 599 149 626 183 q 526 80 572 114 q 416 23 481 46 q 272 0 351 0 m 332 625 q 251 595 293 625 q 179 506 210 565 q 140 360 149 447 q 324 449 268 390 q 381 576 381 508 q 367 612 381 599 q 332 625 354 625 m 276 815 l 388 989 q 434 1037 407 1021 q 511 1053 461 1053 q 572 1046 550 1053 q 594 1039 594 1039 l 404 840 q 373 815 390 825 q 328 806 356 806 q 289 810 301 806 q 276 815 276 815 z "},"ê":{"ha":626,"x_min":-42,"x_max":639,"o":"m 272 0 q 110 36 182 0 q -1 140 39 72 q -42 300 -42 207 q -10 465 -42 392 q 76 590 22 539 q 195 667 129 640 q 331 694 261 694 q 445 673 401 694 q 509 619 489 651 q 529 550 529 586 q 426 392 529 456 q 139 294 322 329 q 197 163 146 217 q 338 110 249 110 q 466 131 413 110 q 555 182 519 151 q 608 242 590 213 q 631 206 639 242 q 599 149 626 183 q 526 80 572 114 q 416 23 481 46 q 272 0 351 0 m 332 625 q 251 595 293 625 q 179 506 210 565 q 140 360 149 447 q 324 449 268 390 q 381 576 381 508 q 367 612 381 599 q 332 625 354 625 m 389 861 l 338 949 l 235 840 q 200 814 217 822 q 158 806 183 806 q 119 810 132 806 q 107 815 107 815 l 285 1042 q 301 1047 285 1042 q 343 1053 317 1053 q 409 1040 386 1053 q 449 997 432 1026 l 551 815 q 534 810 551 815 q 500 806 517 806 q 430 818 453 806 q 389 861 407 831 z "},"ë":{"ha":626,"x_min":-42,"x_max":639,"o":"m 272 0 q 110 36 182 0 q -1 140 39 72 q -42 300 -42 207 q -10 465 -42 392 q 76 590 22 539 q 195 667 129 640 q 331 694 261 694 q 445 673 401 694 q 509 619 489 651 q 529 550 529 586 q 426 392 529 456 q 139 294 322 329 q 197 163 146 217 q 338 110 249 110 q 466 131 413 110 q 555 182 519 151 q 608 242 590 213 q 631 206 639 242 q 599 149 626 183 q 526 80 572 114 q 416 23 481 46 q 272 0 351 0 m 332 625 q 251 595 293 625 q 179 506 210 565 q 140 360 149 447 q 324 449 268 390 q 381 576 381 508 q 367 612 381 599 q 332 625 354 625 m 399 903 q 424 967 399 942 q 486 992 450 992 q 540 970 519 992 q 561 917 561 949 q 537 856 561 882 q 472 829 513 829 q 419 851 440 829 q 399 903 399 872 m 156 903 q 182 967 156 942 q 243 992 208 992 q 297 970 276 992 q 318 917 318 949 q 294 856 318 882 q 229 829 269 829 q 176 851 197 829 q 156 903 156 872 z "},"ì":{"ha":371,"x_min":-49,"x_max":386,"o":"m -15 306 l 29 563 q 35 655 40 628 q 31 682 31 682 q 47 688 31 682 q 103 694 64 694 q 201 663 183 694 q 206 557 218 631 l 151 243 q 158 151 142 181 q 211 121 174 121 q 289 153 247 121 q 357 242 331 186 q 378 233 371 242 q 383 206 386 225 q 358 143 378 178 q 304 76 338 108 q 228 22 271 43 q 135 0 185 0 q 17 45 63 0 q -28 174 -28 90 q -25 229 -28 194 q -15 306 -22 264 m 146 989 l 213 815 q 199 810 213 815 q 160 806 186 806 q 118 816 133 806 q 92 840 103 826 l -49 1039 q -25 1046 -49 1039 q 38 1053 -1 1053 q 110 1037 88 1053 q 146 989 133 1021 z "},"í":{"ha":371,"x_min":-28,"x_max":413,"o":"m -15 306 l 29 563 q 35 655 40 628 q 31 682 31 682 q 47 688 31 682 q 103 694 64 694 q 201 663 183 694 q 206 557 218 631 l 151 243 q 158 151 142 181 q 211 121 174 121 q 289 153 247 121 q 357 242 331 186 q 378 233 371 242 q 383 206 386 225 q 358 143 378 178 q 304 76 338 108 q 228 22 271 43 q 135 0 185 0 q 17 45 63 0 q -28 174 -28 90 q -25 229 -28 194 q -15 306 -22 264 m 94 815 l 206 989 q 252 1037 225 1021 q 329 1053 279 1053 q 390 1046 368 1053 q 413 1039 413 1039 l 222 840 q 191 815 208 825 q 146 806 174 806 q 107 810 119 806 q 94 815 94 815 z "},"î":{"ha":371,"x_min":-69,"x_max":386,"o":"m -15 306 l 29 563 q 35 655 40 628 q 31 682 31 682 q 47 688 31 682 q 103 694 64 694 q 201 663 183 694 q 206 557 218 631 l 151 243 q 158 151 142 181 q 211 121 174 121 q 289 153 247 121 q 357 242 331 186 q 378 233 371 242 q 383 206 386 225 q 358 143 378 178 q 304 76 338 108 q 228 22 271 43 q 135 0 185 0 q 17 45 63 0 q -28 174 -28 90 q -25 229 -28 194 q -15 306 -22 264 m 213 861 l 161 949 l 58 840 q 24 814 40 822 q -18 806 7 806 q -57 810 -44 806 q -69 815 -69 815 l 108 1042 q 124 1047 108 1042 q 167 1053 140 1053 q 233 1040 210 1053 q 272 997 256 1026 l 375 815 q 358 810 375 815 q 324 806 340 806 q 253 818 276 806 q 213 861 231 831 z "},"ï":{"ha":371,"x_min":-49,"x_max":386,"o":"m -15 306 l 29 563 q 35 655 40 628 q 31 682 31 682 q 47 688 31 682 q 103 694 64 694 q 201 663 183 694 q 206 557 218 631 l 151 243 q 158 151 142 181 q 211 121 174 121 q 289 153 247 121 q 357 242 331 186 q 378 233 371 242 q 383 206 386 225 q 358 143 378 178 q 304 76 338 108 q 228 22 271 43 q 135 0 185 0 q 17 45 63 0 q -28 174 -28 90 q -25 229 -28 194 q -15 306 -22 264 m 194 903 q 220 967 194 942 q 282 992 246 992 q 336 970 315 992 q 357 917 357 949 q 333 856 357 882 q 268 829 308 829 q 215 851 236 829 q 194 903 194 872 m -49 903 q -22 967 -49 942 q 39 992 4 992 q 93 970 72 992 q 114 917 114 949 q 90 856 114 882 q 25 829 65 829 q -28 851 -7 829 q -49 903 -49 872 z "},"Ç":{"ha":896,"x_min":69,"x_max":925,"o":"m 563 115 q 760 151 671 115 q 899 242 849 186 q 920 233 915 242 q 922 211 925 225 q 882 147 915 182 q 795 81 849 113 q 674 27 742 49 q 532 3 607 6 l 522 -35 q 601 -67 572 -37 q 629 -146 629 -97 q 585 -250 629 -207 q 471 -293 540 -293 q 391 -267 424 -293 q 353 -206 358 -242 q 363 -178 350 -181 q 376 -175 376 -175 q 392 -191 376 -175 q 440 -207 408 -207 q 486 -188 469 -207 q 503 -143 503 -169 q 487 -103 503 -118 q 439 -87 471 -87 q 404 -93 419 -87 q 408 -76 404 -93 q 418 -36 413 -58 q 428 3 424 -14 q 243 72 324 18 q 116 217 163 126 q 69 432 69 308 q 112 693 69 579 q 227 885 154 807 q 394 1002 300 963 q 589 1042 488 1042 q 735 1008 676 1042 q 822 920 793 974 q 850 806 851 867 q 797 656 847 708 q 681 604 746 604 q 627 616 647 604 q 599 640 607 628 q 590 651 590 651 q 606 660 590 651 q 640 692 621 669 q 676 752 660 714 q 694 849 693 790 q 666 934 696 903 q 585 965 636 965 q 472 928 529 965 q 368 824 415 892 q 292 660 321 756 q 263 447 263 565 q 342 201 263 288 q 563 115 422 115 z "},"È":{"ha":806,"x_min":42,"x_max":861,"o":"m 540 965 q 444 934 488 965 q 375 851 400 903 q 350 738 350 800 q 365 657 350 696 q 415 594 379 618 q 513 574 450 571 q 513 569 513 574 q 514 558 514 565 q 440 506 514 506 l 408 506 q 279 429 325 486 q 233 301 233 372 q 259 208 233 250 q 342 140 285 165 q 492 115 399 115 q 652 136 583 115 q 767 187 721 157 q 835 242 813 217 q 857 233 853 242 q 858 211 861 225 q 815 144 853 181 q 714 75 776 108 q 572 21 651 42 q 401 0 492 0 q 140 69 239 0 q 42 264 42 139 q 108 432 42 358 q 292 536 174 506 q 193 621 228 567 q 158 740 158 675 q 206 896 158 828 q 336 1003 253 964 q 525 1042 419 1042 q 680 1012 618 1042 q 773 933 742 982 q 804 825 804 883 q 770 715 804 758 q 669 671 736 671 q 605 688 625 671 q 585 704 585 704 q 600 722 585 704 q 631 775 615 740 q 647 857 647 810 q 540 965 647 965 m 535 1336 l 601 1163 q 588 1158 601 1163 q 549 1153 575 1153 q 507 1163 522 1153 q 481 1188 492 1174 l 340 1386 q 364 1393 340 1386 q 426 1400 388 1400 q 499 1384 476 1400 q 535 1336 522 1368 z "},"É":{"ha":806,"x_min":42,"x_max":861,"o":"m 540 965 q 444 934 488 965 q 375 851 400 903 q 350 738 350 800 q 365 657 350 696 q 415 594 379 618 q 513 574 450 571 q 513 569 513 574 q 514 558 514 565 q 440 506 514 506 l 408 506 q 279 429 325 486 q 233 301 233 372 q 259 208 233 250 q 342 140 285 165 q 492 115 399 115 q 652 136 583 115 q 767 187 721 157 q 835 242 813 217 q 857 233 853 242 q 858 211 861 225 q 815 144 853 181 q 714 75 776 108 q 572 21 651 42 q 401 0 492 0 q 140 69 239 0 q 42 264 42 139 q 108 432 42 358 q 292 536 174 506 q 193 621 228 567 q 158 740 158 675 q 206 896 158 828 q 336 1003 253 964 q 525 1042 419 1042 q 680 1012 618 1042 q 773 933 742 982 q 804 825 804 883 q 770 715 804 758 q 669 671 736 671 q 605 688 625 671 q 585 704 585 704 q 600 722 585 704 q 631 775 615 740 q 647 857 647 810 q 540 965 647 965 m 506 1163 l 617 1336 q 663 1384 636 1368 q 740 1400 690 1400 q 801 1393 779 1400 q 824 1386 824 1386 l 633 1188 q 602 1163 619 1172 q 557 1153 585 1153 q 518 1158 531 1153 q 506 1163 506 1163 z "},"Ê":{"ha":806,"x_min":42,"x_max":861,"o":"m 540 965 q 444 934 488 965 q 375 851 400 903 q 350 738 350 800 q 365 657 350 696 q 415 594 379 618 q 513 574 450 571 q 513 569 513 574 q 514 558 514 565 q 440 506 514 506 l 408 506 q 279 429 325 486 q 233 301 233 372 q 259 208 233 250 q 342 140 285 165 q 492 115 399 115 q 652 136 583 115 q 767 187 721 157 q 835 242 813 217 q 857 233 853 242 q 858 211 861 225 q 815 144 853 181 q 714 75 776 108 q 572 21 651 42 q 401 0 492 0 q 140 69 239 0 q 42 264 42 139 q 108 432 42 358 q 292 536 174 506 q 193 621 228 567 q 158 740 158 675 q 206 896 158 828 q 336 1003 253 964 q 525 1042 419 1042 q 680 1012 618 1042 q 773 933 742 982 q 804 825 804 883 q 770 715 804 758 q 669 671 736 671 q 605 688 625 671 q 585 704 585 704 q 600 722 585 704 q 631 775 615 740 q 647 857 647 810 q 540 965 647 965 m 625 1208 l 574 1296 l 471 1188 q 436 1161 453 1169 q 394 1153 419 1153 q 356 1158 368 1153 q 343 1163 343 1163 l 521 1389 q 537 1394 521 1389 q 579 1400 553 1400 q 645 1387 622 1400 q 685 1344 668 1374 l 788 1163 q 770 1158 788 1163 q 736 1153 753 1153 q 666 1165 689 1153 q 625 1208 643 1178 z "},"Ë":{"ha":806,"x_min":42,"x_max":861,"o":"m 540 965 q 444 934 488 965 q 375 851 400 903 q 350 738 350 800 q 365 657 350 696 q 415 594 379 618 q 513 574 450 571 q 513 569 513 574 q 514 558 514 565 q 440 506 514 506 l 408 506 q 279 429 325 486 q 233 301 233 372 q 259 208 233 250 q 342 140 285 165 q 492 115 399 115 q 652 136 583 115 q 767 187 721 157 q 835 242 813 217 q 857 233 853 242 q 858 211 861 225 q 815 144 853 181 q 714 75 776 108 q 572 21 651 42 q 401 0 492 0 q 140 69 239 0 q 42 264 42 139 q 108 432 42 358 q 292 536 174 506 q 193 621 228 567 q 158 740 158 675 q 206 896 158 828 q 336 1003 253 964 q 525 1042 419 1042 q 680 1012 618 1042 q 773 933 742 982 q 804 825 804 883 q 770 715 804 758 q 669 671 736 671 q 605 688 625 671 q 585 704 585 704 q 600 722 585 704 q 631 775 615 740 q 647 857 647 810 q 540 965 647 965 m 603 1250 q 628 1314 603 1289 q 690 1339 654 1339 q 744 1317 724 1339 q 765 1264 765 1296 q 741 1203 765 1229 q 676 1176 717 1176 q 624 1198 644 1176 q 603 1250 603 1219 m 360 1250 q 386 1314 360 1289 q 447 1339 413 1339 q 501 1317 481 1339 q 522 1264 522 1296 q 498 1203 522 1229 q 433 1176 474 1176 q 381 1198 401 1176 q 360 1250 360 1219 z "},"Ì":{"ha":614,"x_min":-28,"x_max":538,"o":"m 322 1042 l 419 1042 q 517 1006 497 1042 q 524 890 538 971 l 393 146 q 386 44 381 74 q 392 14 392 14 q 374 7 392 14 q 313 0 356 0 q 215 35 236 0 q 208 151 194 71 l 339 897 q 344 935 342 918 q 346 965 346 951 l 332 965 q 190 920 238 965 q 143 815 143 875 q 158 769 143 786 q 199 751 172 751 q 216 753 210 751 q 222 756 222 756 q 223 753 222 756 q 224 743 224 750 q 197 692 224 718 q 118 665 171 665 q 11 703 50 665 q -28 804 -28 742 q 63 974 -28 907 q 322 1042 154 1042 m 451 1336 l 518 1163 q 505 1158 518 1163 q 465 1153 492 1153 q 424 1163 439 1153 q 397 1188 408 1174 l 257 1386 q 281 1393 257 1386 q 343 1400 304 1400 q 416 1384 393 1400 q 451 1336 439 1368 z "},"Í":{"ha":614,"x_min":-28,"x_max":739,"o":"m 322 1042 l 419 1042 q 517 1006 497 1042 q 524 890 538 971 l 393 146 q 386 44 381 74 q 392 14 392 14 q 374 7 392 14 q 313 0 356 0 q 215 35 236 0 q 208 151 194 71 l 339 897 q 344 935 342 918 q 346 965 346 951 l 332 965 q 190 920 238 965 q 143 815 143 875 q 158 769 143 786 q 199 751 172 751 q 216 753 210 751 q 222 756 222 756 q 223 753 222 756 q 224 743 224 750 q 197 692 224 718 q 118 665 171 665 q 11 703 50 665 q -28 804 -28 742 q 63 974 -28 907 q 322 1042 154 1042 m 421 1163 l 532 1336 q 578 1384 551 1368 q 656 1400 606 1400 q 717 1393 694 1400 q 739 1386 739 1386 l 549 1188 q 517 1163 535 1172 q 472 1153 500 1153 q 433 1158 446 1153 q 421 1163 421 1163 z "},"Î":{"ha":614,"x_min":-28,"x_max":697,"o":"m 322 1042 l 419 1042 q 517 1006 497 1042 q 524 890 538 971 l 393 146 q 386 44 381 74 q 392 14 392 14 q 374 7 392 14 q 313 0 356 0 q 215 35 236 0 q 208 151 194 71 l 339 897 q 344 935 342 918 q 346 965 346 951 l 332 965 q 190 920 238 965 q 143 815 143 875 q 158 769 143 786 q 199 751 172 751 q 216 753 210 751 q 222 756 222 756 q 223 753 222 756 q 224 743 224 750 q 197 692 224 718 q 118 665 171 665 q 11 703 50 665 q -28 804 -28 742 q 63 974 -28 907 q 322 1042 154 1042 m 535 1208 l 483 1296 l 381 1188 q 346 1161 363 1169 q 304 1153 329 1153 q 265 1158 278 1153 q 253 1163 253 1163 l 431 1389 q 447 1394 431 1389 q 489 1400 463 1400 q 555 1387 532 1400 q 594 1344 578 1374 l 697 1163 q 680 1158 697 1163 q 646 1153 663 1153 q 576 1165 599 1153 q 535 1208 553 1178 z "},"Ï":{"ha":614,"x_min":-28,"x_max":669,"o":"m 322 1042 l 419 1042 q 517 1006 497 1042 q 524 890 538 971 l 393 146 q 386 44 381 74 q 392 14 392 14 q 374 7 392 14 q 313 0 356 0 q 215 35 236 0 q 208 151 194 71 l 339 897 q 344 935 342 918 q 346 965 346 951 l 332 965 q 190 920 238 965 q 143 815 143 875 q 158 769 143 786 q 199 751 172 751 q 216 753 210 751 q 222 756 222 756 q 223 753 222 756 q 224 743 224 750 q 197 692 224 718 q 118 665 171 665 q 11 703 50 665 q -28 804 -28 742 q 63 974 -28 907 q 322 1042 154 1042 m 507 1250 q 533 1314 507 1289 q 594 1339 558 1339 q 649 1317 628 1339 q 669 1264 669 1296 q 645 1203 669 1229 q 581 1176 621 1176 q 528 1198 549 1176 q 507 1250 507 1219 m 264 1250 q 290 1314 264 1289 q 351 1339 317 1339 q 406 1317 385 1339 q 426 1264 426 1296 q 402 1203 426 1229 q 338 1176 378 1176 q 285 1198 306 1176 q 264 1250 264 1219 z "},"ð":{"ha":740,"x_min":-28,"x_max":617,"o":"m 586 989 l 492 936 q 584 724 553 842 q 615 496 615 607 q 569 232 615 343 q 436 60 522 121 q 228 0 350 0 q 45 65 118 0 q -28 260 -28 131 q 19 478 -28 386 q 150 622 65 571 q 349 672 235 672 q 405 665 385 672 q 425 657 425 657 q 403 772 418 715 q 371 869 389 829 l 236 794 q 228 799 236 794 q 214 815 221 804 q 236 874 196 850 l 340 932 q 251 1039 303 997 q 139 1107 200 1081 q 137 1119 139 1107 q 140 1142 135 1131 q 168 1153 146 1153 q 315 1111 240 1153 q 451 992 389 1069 q 508 1023 476 1006 q 562 1053 539 1040 q 585 1067 585 1067 q 593 1063 585 1067 q 608 1046 601 1058 q 611 1016 617 1032 q 586 989 606 1000 m 163 338 q 153 269 157 311 q 150 200 150 226 q 242 69 150 69 q 349 133 303 69 q 422 336 396 196 q 432 410 429 374 q 435 474 435 447 q 410 575 435 546 q 343 604 385 604 q 274 581 308 604 q 211 499 240 557 q 163 338 182 442 z "},"ñ":{"ha":790,"x_min":-47,"x_max":806,"o":"m 411 332 l 438 485 q 437 553 446 535 q 404 572 428 572 q 333 537 371 572 q 256 440 294 501 q 188 299 218 378 q 142 132 158 219 q 135 40 131 67 q 140 13 140 13 q 124 6 140 13 q 68 0 107 0 q -30 33 -12 0 q -35 138 -47 65 l 39 563 q 45 655 50 628 q 40 682 40 682 q 57 688 40 682 q 113 694 74 694 q 210 663 193 694 q 215 557 228 631 l 204 493 q 274 585 232 539 q 369 663 317 632 q 476 694 421 694 q 581 656 542 694 q 619 551 619 617 q 616 500 619 529 q 607 439 613 471 l 574 243 q 576 156 564 192 q 631 121 588 121 q 713 154 675 121 q 776 242 750 188 q 798 233 790 242 q 803 206 806 225 q 778 144 799 179 q 725 76 758 110 q 649 22 692 43 q 558 0 607 0 q 435 48 481 0 q 390 174 390 96 q 398 249 390 201 q 411 332 406 297 m 463 819 q 402 831 426 819 q 359 857 378 842 q 321 883 340 872 q 274 894 301 894 q 209 876 232 894 q 177 838 186 857 q 168 819 168 819 q 145 828 156 819 q 136 863 135 836 q 160 935 139 901 q 216 990 181 968 q 296 1011 251 1011 q 356 1000 332 1011 q 400 974 381 989 q 439 947 419 958 q 485 936 458 936 q 550 955 528 936 q 581 992 572 974 q 590 1011 590 1011 q 613 1003 603 1011 q 622 968 624 994 q 599 897 621 931 q 543 841 578 863 q 463 819 508 819 z "},"ò":{"ha":738,"x_min":-42,"x_max":789,"o":"m 343 694 q 532 622 465 694 q 599 429 599 549 q 597 385 599 407 q 592 342 594 363 q 682 376 644 350 q 740 426 719 403 q 760 450 760 450 q 785 415 789 450 q 752 362 781 392 q 678 308 724 332 q 578 278 633 285 q 449 77 543 154 q 214 0 356 0 q 31 68 104 0 q -42 265 -42 136 q 5 488 -42 392 q 138 640 51 585 q 343 694 225 694 m 349 425 q 367 487 349 461 q 419 519 385 513 q 329 626 408 626 q 228 565 278 626 q 149 349 178 504 q 140 277 143 322 q 136 206 136 232 q 160 105 136 140 q 228 69 185 69 q 330 130 285 69 q 401 315 375 190 q 349 425 349 356 m 351 989 l 418 815 q 405 810 418 815 q 365 806 392 806 q 324 816 339 806 q 297 840 308 826 l 157 1039 q 181 1046 157 1039 q 243 1053 204 1053 q 316 1037 293 1053 q 351 989 339 1021 z "},"ó":{"ha":738,"x_min":-42,"x_max":789,"o":"m 343 694 q 532 622 465 694 q 599 429 599 549 q 597 385 599 407 q 592 342 594 363 q 682 376 644 350 q 740 426 719 403 q 760 450 760 450 q 785 415 789 450 q 752 362 781 392 q 678 308 724 332 q 578 278 633 285 q 449 77 543 154 q 214 0 356 0 q 31 68 104 0 q -42 265 -42 136 q 5 488 -42 392 q 138 640 51 585 q 343 694 225 694 m 349 425 q 367 487 349 461 q 419 519 385 513 q 329 626 408 626 q 228 565 278 626 q 149 349 178 504 q 140 277 143 322 q 136 206 136 232 q 160 105 136 140 q 228 69 185 69 q 330 130 285 69 q 401 315 375 190 q 349 425 349 356 m 308 815 l 419 989 q 466 1037 439 1021 q 543 1053 493 1053 q 604 1046 582 1053 q 626 1039 626 1039 l 436 840 q 405 815 422 825 q 360 806 388 806 q 321 810 333 806 q 308 815 308 815 z "},"ô":{"ha":738,"x_min":-42,"x_max":789,"o":"m 343 694 q 532 622 465 694 q 599 429 599 549 q 597 385 599 407 q 592 342 594 363 q 682 376 644 350 q 740 426 719 403 q 760 450 760 450 q 785 415 789 450 q 752 362 781 392 q 678 308 724 332 q 578 278 633 285 q 449 77 543 154 q 214 0 356 0 q 31 68 104 0 q -42 265 -42 136 q 5 488 -42 392 q 138 640 51 585 q 343 694 225 694 m 349 425 q 367 487 349 461 q 419 519 385 513 q 329 626 408 626 q 228 565 278 626 q 149 349 178 504 q 140 277 143 322 q 136 206 136 232 q 160 105 136 140 q 228 69 185 69 q 330 130 285 69 q 401 315 375 190 q 349 425 349 356 m 422 861 l 371 949 l 268 840 q 233 814 250 822 q 192 806 217 806 q 153 810 165 806 q 140 815 140 815 l 318 1042 q 334 1047 318 1042 q 376 1053 350 1053 q 442 1040 419 1053 q 482 997 465 1026 l 585 815 q 567 810 585 815 q 533 806 550 806 q 463 818 486 806 q 422 861 440 831 z "},"õ":{"ha":738,"x_min":-42,"x_max":789,"o":"m 343 694 q 532 622 465 694 q 599 429 599 549 q 597 385 599 407 q 592 342 594 363 q 682 376 644 350 q 740 426 719 403 q 760 450 760 450 q 785 415 789 450 q 752 362 781 392 q 678 308 724 332 q 578 278 633 285 q 449 77 543 154 q 214 0 356 0 q 31 68 104 0 q -42 265 -42 136 q 5 488 -42 392 q 138 640 51 585 q 343 694 225 694 m 349 425 q 367 487 349 461 q 419 519 385 513 q 329 626 408 626 q 228 565 278 626 q 149 349 178 504 q 140 277 143 322 q 136 206 136 232 q 160 105 136 140 q 228 69 185 69 q 330 130 285 69 q 401 315 375 190 q 349 425 349 356 m 464 819 q 403 831 428 819 q 360 857 379 842 q 322 883 342 872 q 275 894 303 894 q 210 876 233 894 q 178 838 188 857 q 169 819 169 819 q 147 828 157 819 q 138 863 136 836 q 161 935 140 901 q 217 990 182 968 q 297 1011 253 1011 q 358 1000 333 1011 q 401 974 382 989 q 440 947 421 958 q 486 936 460 936 q 551 955 529 936 q 583 992 574 974 q 592 1011 592 1011 q 615 1003 604 1011 q 624 968 625 994 q 601 897 622 931 q 544 841 579 863 q 464 819 510 819 z "},"ö":{"ha":738,"x_min":-42,"x_max":789,"o":"m 343 694 q 532 622 465 694 q 599 429 599 549 q 597 385 599 407 q 592 342 594 363 q 682 376 644 350 q 740 426 719 403 q 760 450 760 450 q 785 415 789 450 q 752 362 781 392 q 678 308 724 332 q 578 278 633 285 q 449 77 543 154 q 214 0 356 0 q 31 68 104 0 q -42 265 -42 136 q 5 488 -42 392 q 138 640 51 585 q 343 694 225 694 m 349 425 q 367 487 349 461 q 419 519 385 513 q 329 626 408 626 q 228 565 278 626 q 149 349 178 504 q 140 277 143 322 q 136 206 136 232 q 160 105 136 140 q 228 69 185 69 q 330 130 285 69 q 401 315 375 190 q 349 425 349 356 m 413 903 q 438 967 413 942 q 500 992 464 992 q 554 970 533 992 q 575 917 575 949 q 551 856 575 882 q 486 829 526 829 q 433 851 454 829 q 413 903 413 872 m 169 903 q 196 967 169 942 q 257 992 222 992 q 311 970 290 992 q 332 917 332 949 q 308 856 332 882 q 243 829 283 829 q 190 851 211 829 q 169 903 169 872 z "},"÷":{"ha":678,"x_min":42,"x_max":594,"o":"m 479 321 l 129 321 q 70 315 88 321 q 53 308 53 308 q 47 317 53 308 q 42 344 42 325 q 67 409 42 385 q 157 433 93 433 l 507 433 q 566 440 549 433 q 583 446 583 446 q 589 438 583 446 q 594 410 594 429 q 569 346 594 371 q 479 321 544 321 m 269 608 q 299 680 269 651 q 367 708 328 708 q 430 683 407 708 q 453 621 453 658 q 426 555 453 585 q 353 525 399 525 q 292 549 315 525 q 269 608 269 572 m 186 129 q 215 201 186 172 q 283 229 244 229 q 347 204 324 229 q 369 142 369 179 q 342 76 369 106 q 269 46 315 46 q 209 69 232 46 q 186 129 186 93 z "},"ø":{"ha":738,"x_min":-42,"x_max":599,"o":"m 343 694 q 451 675 401 694 q 481 722 472 707 q 489 738 489 738 q 502 737 489 738 q 533 725 515 736 q 565 681 564 707 q 539 613 565 654 q 599 429 599 542 q 553 210 599 307 q 422 56 507 113 q 214 0 336 0 q 108 18 154 0 q 72 -40 82 -21 q 61 -60 61 -60 q 49 -59 61 -60 q 17 -47 38 -58 q -15 1 -18 -28 q 19 79 -12 31 q -26 159 -10 113 q -42 265 -42 206 q 5 488 -42 392 q 138 640 51 585 q 343 694 225 694 m 149 349 q 142 299 144 329 q 136 242 139 269 l 394 594 q 329 626 371 626 q 228 565 278 626 q 149 349 178 504 m 408 347 q 419 446 417 399 l 165 96 q 228 69 188 69 q 335 138 289 69 q 408 347 382 207 z "},"ù":{"ha":779,"x_min":-28,"x_max":794,"o":"m 381 174 q 381 195 381 183 q 382 221 381 207 q 319 118 351 161 q 228 29 276 58 q 124 0 181 0 q 13 44 54 0 q -28 161 -28 89 q -24 239 -28 200 q -11 332 -21 278 l 29 563 q 35 655 40 628 q 31 682 31 682 q 47 688 31 682 q 103 694 64 694 q 201 663 183 694 q 206 557 218 631 l 150 236 q 153 149 140 176 q 196 121 165 121 q 246 147 219 121 q 299 214 272 172 q 357 321 329 260 q 407 449 385 382 q 439 576 429 515 q 444 658 449 633 q 439 682 439 682 q 456 688 439 682 q 511 694 472 694 q 609 663 592 694 q 614 557 626 631 l 560 243 q 566 151 550 181 q 619 121 582 121 q 697 153 656 121 q 765 242 739 186 q 787 233 779 242 q 792 206 794 225 q 766 143 786 178 q 713 76 746 108 q 636 22 679 43 q 543 0 593 0 q 426 45 471 0 q 381 174 381 90 m 332 989 l 399 815 q 385 810 399 815 q 346 806 372 806 q 304 816 319 806 q 278 840 289 826 l 138 1039 q 161 1046 138 1039 q 224 1053 185 1053 q 297 1037 274 1053 q 332 989 319 1021 z "},"ú":{"ha":779,"x_min":-28,"x_max":794,"o":"m 381 174 q 381 195 381 183 q 382 221 381 207 q 319 118 351 161 q 228 29 276 58 q 124 0 181 0 q 13 44 54 0 q -28 161 -28 89 q -24 239 -28 200 q -11 332 -21 278 l 29 563 q 35 655 40 628 q 31 682 31 682 q 47 688 31 682 q 103 694 64 694 q 201 663 183 694 q 206 557 218 631 l 150 236 q 153 149 140 176 q 196 121 165 121 q 246 147 219 121 q 299 214 272 172 q 357 321 329 260 q 407 449 385 382 q 439 576 429 515 q 444 658 449 633 q 439 682 439 682 q 456 688 439 682 q 511 694 472 694 q 609 663 592 694 q 614 557 626 631 l 560 243 q 566 151 550 181 q 619 121 582 121 q 697 153 656 121 q 765 242 739 186 q 787 233 779 242 q 792 206 794 225 q 766 143 786 178 q 713 76 746 108 q 636 22 679 43 q 543 0 593 0 q 426 45 471 0 q 381 174 381 90 m 292 815 l 403 989 q 449 1037 422 1021 q 526 1053 476 1053 q 588 1046 565 1053 q 610 1039 610 1039 l 419 840 q 388 815 406 825 q 343 806 371 806 q 304 810 317 806 q 292 815 292 815 z "},"û":{"ha":779,"x_min":-28,"x_max":794,"o":"m 381 174 q 381 195 381 183 q 382 221 381 207 q 319 118 351 161 q 228 29 276 58 q 124 0 181 0 q 13 44 54 0 q -28 161 -28 89 q -24 239 -28 200 q -11 332 -21 278 l 29 563 q 35 655 40 628 q 31 682 31 682 q 47 688 31 682 q 103 694 64 694 q 201 663 183 694 q 206 557 218 631 l 150 236 q 153 149 140 176 q 196 121 165 121 q 246 147 219 121 q 299 214 272 172 q 357 321 329 260 q 407 449 385 382 q 439 576 429 515 q 444 658 449 633 q 439 682 439 682 q 456 688 439 682 q 511 694 472 694 q 609 663 592 694 q 614 557 626 631 l 560 243 q 566 151 550 181 q 619 121 582 121 q 697 153 656 121 q 765 242 739 186 q 787 233 779 242 q 792 206 794 225 q 766 143 786 178 q 713 76 746 108 q 636 22 679 43 q 543 0 593 0 q 426 45 471 0 q 381 174 381 90 m 429 861 l 378 949 l 275 840 q 240 814 257 822 q 199 806 224 806 q 160 810 172 806 q 147 815 147 815 l 325 1042 q 341 1047 325 1042 q 383 1053 357 1053 q 449 1040 426 1053 q 489 997 472 1026 l 592 815 q 574 810 592 815 q 540 806 557 806 q 470 818 493 806 q 429 861 447 831 z "},"ü":{"ha":779,"x_min":-28,"x_max":794,"o":"m 381 174 q 381 195 381 183 q 382 221 381 207 q 319 118 351 161 q 228 29 276 58 q 124 0 181 0 q 13 44 54 0 q -28 161 -28 89 q -24 239 -28 200 q -11 332 -21 278 l 29 563 q 35 655 40 628 q 31 682 31 682 q 47 688 31 682 q 103 694 64 694 q 201 663 183 694 q 206 557 218 631 l 150 236 q 153 149 140 176 q 196 121 165 121 q 246 147 219 121 q 299 214 272 172 q 357 321 329 260 q 407 449 385 382 q 439 576 429 515 q 444 658 449 633 q 439 682 439 682 q 456 688 439 682 q 511 694 472 694 q 609 663 592 694 q 614 557 626 631 l 560 243 q 566 151 550 181 q 619 121 582 121 q 697 153 656 121 q 765 242 739 186 q 787 233 779 242 q 792 206 794 225 q 766 143 786 178 q 713 76 746 108 q 636 22 679 43 q 543 0 593 0 q 426 45 471 0 q 381 174 381 90 m 419 903 q 445 967 419 942 q 507 992 471 992 q 561 970 540 992 q 582 917 582 949 q 558 856 582 882 q 493 829 533 829 q 440 851 461 829 q 419 903 419 872 m 176 903 q 203 967 176 942 q 264 992 229 992 q 318 970 297 992 q 339 917 339 949 q 315 856 339 882 q 250 829 290 829 q 197 851 218 829 q 176 903 176 872 z "},"Ð":{"ha":1094,"x_min":-28,"x_max":1039,"o":"m 529 724 l 488 492 l 664 492 q 669 481 664 492 q 674 456 674 469 q 662 426 674 438 q 626 415 650 415 l 475 415 l 436 193 q 400 96 425 135 q 438 87 417 90 q 485 83 460 83 q 678 142 597 83 q 803 307 760 201 q 846 551 846 413 q 796 773 846 681 q 651 915 746 865 q 425 965 557 965 q 260 938 322 965 q 171 869 199 910 q 143 788 143 828 q 158 741 143 758 q 199 724 172 724 q 216 726 210 724 q 222 728 222 728 q 223 725 222 728 q 224 715 224 722 q 197 664 224 690 q 118 638 171 638 q 11 676 50 638 q -28 776 -28 714 q 22 906 -28 846 q 170 1004 71 967 q 418 1042 269 1042 q 749 976 610 1042 q 963 797 888 911 q 1039 531 1039 682 q 974 246 1039 365 q 794 63 908 126 q 531 0 679 0 q 421 12 468 0 q 340 38 374 24 q 273 8 310 17 q 197 0 236 0 q 110 26 136 0 q 85 82 85 51 q 110 140 85 115 q 190 165 135 165 q 244 158 214 165 l 289 415 l 117 415 q 112 426 117 415 q 107 451 107 438 q 119 481 107 469 q 154 492 132 492 l 303 492 l 344 731 q 351 832 357 803 q 346 861 346 861 q 364 868 346 861 q 425 875 382 875 q 523 840 503 875 q 529 724 543 804 z "},"Ñ":{"ha":1083,"x_min":-28,"x_max":1000,"o":"m 232 283 l 339 894 q 346 941 346 931 q 347 965 346 951 l 332 965 q 190 920 238 965 q 143 815 143 875 q 158 769 143 786 q 199 751 172 751 q 216 753 210 751 q 222 756 222 756 q 223 753 222 756 q 224 743 224 750 q 197 692 224 718 q 118 665 171 665 q 11 703 50 665 q -28 804 -28 742 q 63 974 -28 907 q 322 1042 154 1042 l 446 1042 q 533 1017 501 1042 q 582 932 565 993 l 793 188 l 875 651 q 899 881 901 796 q 887 1004 897 967 q 876 1042 876 1042 q 888 1048 876 1042 q 925 1054 899 1054 q 983 1035 965 1054 q 1000 967 1000 1015 q 992 880 1000 932 q 972 758 985 828 l 865 147 q 854 47 853 78 q 857 14 856 17 q 835 7 857 14 q 758 0 813 0 q 672 27 701 0 q 626 110 642 54 l 413 864 l 329 390 q 306 161 304 247 q 318 38 308 75 q 328 0 328 0 q 317 -6 328 0 q 279 -12 306 -12 q 222 8 240 -12 q 204 75 204 28 q 212 163 204 111 q 232 283 219 214 m 806 1167 q 745 1178 769 1167 q 702 1204 721 1189 q 664 1231 683 1219 q 617 1242 644 1242 q 552 1223 575 1242 q 520 1185 529 1204 q 511 1167 511 1167 q 488 1175 499 1167 q 479 1210 478 1183 q 503 1282 482 1249 q 559 1337 524 1315 q 639 1358 594 1358 q 699 1347 675 1358 q 743 1321 724 1336 q 782 1294 763 1306 q 828 1283 801 1283 q 893 1302 871 1283 q 924 1340 915 1321 q 933 1358 933 1358 q 956 1350 946 1358 q 965 1315 967 1342 q 942 1244 964 1278 q 886 1188 921 1210 q 806 1167 851 1167 z "},"Ò":{"ha":971,"x_min":69,"x_max":901,"o":"m 571 1042 q 815 938 728 1042 q 901 656 901 835 q 867 399 901 518 q 767 190 832 281 q 609 50 701 100 q 400 0 517 0 q 230 42 304 0 q 113 171 156 85 q 69 386 69 257 q 105 647 69 528 q 206 855 140 767 q 365 992 272 943 q 571 1042 457 1042 m 275 521 q 264 419 268 471 q 260 331 260 368 q 281 179 260 235 q 338 100 303 124 q 417 76 374 76 q 583 186 507 76 q 694 521 660 296 q 706 622 703 571 q 710 711 710 674 q 689 863 710 807 q 633 942 668 918 q 553 965 597 965 q 444 920 499 965 q 344 778 389 875 q 275 521 300 681 m 556 1336 l 622 1163 q 609 1158 622 1163 q 569 1153 596 1153 q 528 1163 543 1153 q 501 1188 513 1174 l 361 1386 q 385 1393 361 1386 q 447 1400 408 1400 q 520 1384 497 1400 q 556 1336 543 1368 z "},"Ó":{"ha":971,"x_min":69,"x_max":901,"o":"m 571 1042 q 815 938 728 1042 q 901 656 901 835 q 867 399 901 518 q 767 190 832 281 q 609 50 701 100 q 400 0 517 0 q 230 42 304 0 q 113 171 156 85 q 69 386 69 257 q 105 647 69 528 q 206 855 140 767 q 365 992 272 943 q 571 1042 457 1042 m 275 521 q 264 419 268 471 q 260 331 260 368 q 281 179 260 235 q 338 100 303 124 q 417 76 374 76 q 583 186 507 76 q 694 521 660 296 q 706 622 703 571 q 710 711 710 674 q 689 863 710 807 q 633 942 668 918 q 553 965 597 965 q 444 920 499 965 q 344 778 389 875 q 275 521 300 681 m 529 1163 l 640 1336 q 687 1384 660 1368 q 764 1400 714 1400 q 825 1393 803 1400 q 847 1386 847 1386 l 657 1188 q 626 1163 643 1172 q 581 1153 608 1153 q 542 1158 554 1153 q 529 1163 529 1163 z "},"Ô":{"ha":971,"x_min":69,"x_max":901,"o":"m 571 1042 q 815 938 728 1042 q 901 656 901 835 q 867 399 901 518 q 767 190 832 281 q 609 50 701 100 q 400 0 517 0 q 230 42 304 0 q 113 171 156 85 q 69 386 69 257 q 105 647 69 528 q 206 855 140 767 q 365 992 272 943 q 571 1042 457 1042 m 275 521 q 264 419 268 471 q 260 331 260 368 q 281 179 260 235 q 338 100 303 124 q 417 76 374 76 q 583 186 507 76 q 694 521 660 296 q 706 622 703 571 q 710 711 710 674 q 689 863 710 807 q 633 942 668 918 q 553 965 597 965 q 444 920 499 965 q 344 778 389 875 q 275 521 300 681 m 643 1208 l 592 1296 l 489 1188 q 454 1161 471 1169 q 413 1153 438 1153 q 374 1158 386 1153 q 361 1163 361 1163 l 539 1389 q 555 1394 539 1389 q 597 1400 571 1400 q 663 1387 640 1400 q 703 1344 686 1374 l 806 1163 q 788 1158 806 1163 q 754 1153 771 1153 q 684 1165 707 1153 q 643 1208 661 1178 z "},"Õ":{"ha":971,"x_min":69,"x_max":901,"o":"m 571 1042 q 815 938 728 1042 q 901 656 901 835 q 867 399 901 518 q 767 190 832 281 q 609 50 701 100 q 400 0 517 0 q 230 42 304 0 q 113 171 156 85 q 69 386 69 257 q 105 647 69 528 q 206 855 140 767 q 365 992 272 943 q 571 1042 457 1042 m 275 521 q 264 419 268 471 q 260 331 260 368 q 281 179 260 235 q 338 100 303 124 q 417 76 374 76 q 583 186 507 76 q 694 521 660 296 q 706 622 703 571 q 710 711 710 674 q 689 863 710 807 q 633 942 668 918 q 553 965 597 965 q 444 920 499 965 q 344 778 389 875 q 275 521 300 681 m 669 1167 q 609 1178 633 1167 q 566 1204 585 1189 q 528 1231 547 1219 q 481 1242 508 1242 q 416 1223 439 1242 q 384 1185 393 1204 q 375 1167 375 1167 q 352 1175 363 1167 q 343 1210 342 1183 q 367 1282 346 1249 q 423 1337 388 1315 q 503 1358 458 1358 q 563 1347 539 1358 q 607 1321 588 1336 q 646 1294 626 1306 q 692 1283 665 1283 q 757 1302 735 1283 q 788 1340 779 1321 q 797 1358 797 1358 q 820 1350 810 1358 q 829 1315 831 1342 q 806 1244 828 1278 q 750 1188 785 1210 q 669 1167 715 1167 z "},"Ö":{"ha":971,"x_min":69,"x_max":901,"o":"m 571 1042 q 815 938 728 1042 q 901 656 901 835 q 867 399 901 518 q 767 190 832 281 q 609 50 701 100 q 400 0 517 0 q 230 42 304 0 q 113 171 156 85 q 69 386 69 257 q 105 647 69 528 q 206 855 140 767 q 365 992 272 943 q 571 1042 457 1042 m 275 521 q 264 419 268 471 q 260 331 260 368 q 281 179 260 235 q 338 100 303 124 q 417 76 374 76 q 583 186 507 76 q 694 521 660 296 q 706 622 703 571 q 710 711 710 674 q 689 863 710 807 q 633 942 668 918 q 553 965 597 965 q 444 920 499 965 q 344 778 389 875 q 275 521 300 681 m 632 1250 q 658 1314 632 1289 q 719 1339 683 1339 q 774 1317 753 1339 q 794 1264 794 1296 q 770 1203 794 1229 q 706 1176 746 1176 q 653 1198 674 1176 q 632 1250 632 1219 m 389 1250 q 415 1314 389 1289 q 476 1339 442 1339 q 531 1317 510 1339 q 551 1264 551 1296 q 527 1203 551 1229 q 463 1176 503 1176 q 410 1198 431 1176 q 389 1250 389 1219 z "},"Ø":{"ha":971,"x_min":64,"x_max":901,"o":"m 571 1042 q 747 996 675 1042 q 782 1050 772 1032 q 792 1068 792 1068 q 804 1067 792 1068 q 836 1056 817 1067 q 888 994 893 1026 q 839 904 882 963 q 901 656 901 806 q 867 399 901 518 q 767 190 832 281 q 609 50 701 100 q 400 0 517 0 q 296 14 344 0 q 207 56 247 28 q 174 4 183 21 q 165 -12 165 -12 q 153 -11 165 -12 q 121 0 142 -10 q 73 40 82 19 q 78 87 64 60 q 121 154 92 114 q 69 386 69 246 q 105 647 69 528 q 206 855 140 767 q 365 992 272 943 q 571 1042 457 1042 m 710 711 l 710 731 l 288 164 q 343 97 310 117 q 417 76 376 76 q 583 186 507 76 q 694 521 660 296 q 706 622 703 571 q 710 711 710 674 m 275 521 q 264 426 268 474 q 260 342 260 378 l 672 896 q 619 949 650 933 q 553 965 589 965 q 444 920 499 965 q 344 778 389 875 q 275 521 300 681 z "},"Ù":{"ha":1101,"x_min":-28,"x_max":1118,"o":"m 524 890 l 411 251 q 409 151 399 181 q 454 121 419 121 q 556 204 500 121 q 697 485 631 317 q 808 897 763 653 q 816 999 822 969 q 810 1028 810 1028 q 828 1035 810 1028 q 889 1042 846 1042 q 987 1006 967 1042 q 993 890 1007 971 l 879 236 q 888 149 869 176 q 942 121 907 121 q 1006 143 976 121 q 1056 194 1035 165 q 1088 242 1078 222 q 1114 206 1118 242 q 1072 116 1108 164 q 981 34 1036 68 q 863 0 926 0 q 742 47 789 0 q 696 172 696 93 q 699 248 696 211 q 708 326 703 285 q 663 235 686 279 q 615 149 640 190 q 519 41 575 82 q 389 0 464 0 q 269 48 314 0 q 224 172 224 96 q 228 248 224 214 q 238 319 232 282 l 339 897 q 344 935 342 918 q 346 965 346 951 l 332 965 q 190 920 238 965 q 143 815 143 875 q 158 769 143 786 q 199 751 172 751 q 216 753 210 751 q 222 756 222 756 q 223 753 222 756 q 224 743 224 750 q 197 692 224 718 q 118 665 171 665 q 11 703 50 665 q -28 804 -28 742 q 63 974 -28 907 q 322 1042 154 1042 l 419 1042 q 518 1006 497 1042 q 524 890 539 971 m 658 1336 l 725 1163 q 712 1158 725 1163 q 672 1153 699 1153 q 631 1163 646 1153 q 604 1188 615 1174 l 464 1386 q 488 1393 464 1386 q 550 1400 511 1400 q 623 1384 600 1400 q 658 1336 646 1368 z "},"Ú":{"ha":1101,"x_min":-28,"x_max":1118,"o":"m 524 890 l 411 251 q 409 151 399 181 q 454 121 419 121 q 556 204 500 121 q 697 485 631 317 q 808 897 763 653 q 816 999 822 969 q 810 1028 810 1028 q 828 1035 810 1028 q 889 1042 846 1042 q 987 1006 967 1042 q 993 890 1007 971 l 879 236 q 888 149 869 176 q 942 121 907 121 q 1006 143 976 121 q 1056 194 1035 165 q 1088 242 1078 222 q 1114 206 1118 242 q 1072 116 1108 164 q 981 34 1036 68 q 863 0 926 0 q 742 47 789 0 q 696 172 696 93 q 699 248 696 211 q 708 326 703 285 q 663 235 686 279 q 615 149 640 190 q 519 41 575 82 q 389 0 464 0 q 269 48 314 0 q 224 172 224 96 q 228 248 224 214 q 238 319 232 282 l 339 897 q 344 935 342 918 q 346 965 346 951 l 332 965 q 190 920 238 965 q 143 815 143 875 q 158 769 143 786 q 199 751 172 751 q 216 753 210 751 q 222 756 222 756 q 223 753 222 756 q 224 743 224 750 q 197 692 224 718 q 118 665 171 665 q 11 703 50 665 q -28 804 -28 742 q 63 974 -28 907 q 322 1042 154 1042 l 419 1042 q 518 1006 497 1042 q 524 890 539 971 m 618 1163 l 729 1336 q 776 1384 749 1368 q 853 1400 803 1400 q 914 1393 892 1400 q 936 1386 936 1386 l 746 1188 q 715 1163 732 1172 q 669 1153 697 1153 q 631 1158 643 1153 q 618 1163 618 1163 z "},"Û":{"ha":1101,"x_min":-28,"x_max":1118,"o":"m 524 890 l 411 251 q 409 151 399 181 q 454 121 419 121 q 556 204 500 121 q 697 485 631 317 q 808 897 763 653 q 816 999 822 969 q 810 1028 810 1028 q 828 1035 810 1028 q 889 1042 846 1042 q 987 1006 967 1042 q 993 890 1007 971 l 879 236 q 888 149 869 176 q 942 121 907 121 q 1006 143 976 121 q 1056 194 1035 165 q 1088 242 1078 222 q 1114 206 1118 242 q 1072 116 1108 164 q 981 34 1036 68 q 863 0 926 0 q 742 47 789 0 q 696 172 696 93 q 699 248 696 211 q 708 326 703 285 q 663 235 686 279 q 615 149 640 190 q 519 41 575 82 q 389 0 464 0 q 269 48 314 0 q 224 172 224 96 q 228 248 224 214 q 238 319 232 282 l 339 897 q 344 935 342 918 q 346 965 346 951 l 332 965 q 190 920 238 965 q 143 815 143 875 q 158 769 143 786 q 199 751 172 751 q 216 753 210 751 q 222 756 222 756 q 223 753 222 756 q 224 743 224 750 q 197 692 224 718 q 118 665 171 665 q 11 703 50 665 q -28 804 -28 742 q 63 974 -28 907 q 322 1042 154 1042 l 419 1042 q 518 1006 497 1042 q 524 890 539 971 m 746 1208 l 694 1296 l 592 1188 q 557 1161 574 1169 q 515 1153 540 1153 q 476 1158 489 1153 q 464 1163 464 1163 l 642 1389 q 658 1394 642 1389 q 700 1400 674 1400 q 766 1387 743 1400 q 806 1344 789 1374 l 908 1163 q 891 1158 908 1163 q 857 1153 874 1153 q 787 1165 810 1153 q 746 1208 764 1178 z "},"Ü":{"ha":1101,"x_min":-28,"x_max":1118,"o":"m 524 890 l 411 251 q 409 151 399 181 q 454 121 419 121 q 556 204 500 121 q 697 485 631 317 q 808 897 763 653 q 816 999 822 969 q 810 1028 810 1028 q 828 1035 810 1028 q 889 1042 846 1042 q 987 1006 967 1042 q 993 890 1007 971 l 879 236 q 888 149 869 176 q 942 121 907 121 q 1006 143 976 121 q 1056 194 1035 165 q 1088 242 1078 222 q 1114 206 1118 242 q 1072 116 1108 164 q 981 34 1036 68 q 863 0 926 0 q 742 47 789 0 q 696 172 696 93 q 699 248 696 211 q 708 326 703 285 q 663 235 686 279 q 615 149 640 190 q 519 41 575 82 q 389 0 464 0 q 269 48 314 0 q 224 172 224 96 q 228 248 224 214 q 238 319 232 282 l 339 897 q 344 935 342 918 q 346 965 346 951 l 332 965 q 190 920 238 965 q 143 815 143 875 q 158 769 143 786 q 199 751 172 751 q 216 753 210 751 q 222 756 222 756 q 223 753 222 756 q 224 743 224 750 q 197 692 224 718 q 118 665 171 665 q 11 703 50 665 q -28 804 -28 742 q 63 974 -28 907 q 322 1042 154 1042 l 419 1042 q 518 1006 497 1042 q 524 890 539 971 m 746 1250 q 772 1314 746 1289 q 833 1339 797 1339 q 888 1317 867 1339 q 908 1264 908 1296 q 884 1203 908 1229 q 819 1176 860 1176 q 767 1198 788 1176 q 746 1250 746 1219 m 503 1250 q 529 1314 503 1289 q 590 1339 556 1339 q 644 1317 624 1339 q 665 1264 665 1296 q 641 1203 665 1229 q 576 1176 617 1176 q 524 1198 544 1176 q 503 1250 503 1219 z "},"Ý":{"ha":950,"x_min":-28,"x_max":992,"o":"m 322 1042 l 367 1042 q 440 1021 408 1042 q 481 960 471 1000 l 603 457 l 622 486 q 776 757 715 625 q 836 992 836 889 q 832 1028 836 1015 q 828 1042 828 1042 q 842 1048 828 1042 q 881 1054 856 1054 q 965 1030 939 1054 q 992 961 992 1006 q 954 840 992 908 q 853 682 917 771 q 710 475 790 593 l 626 353 l 590 146 q 583 44 578 74 q 589 14 589 14 q 571 7 589 14 q 510 0 553 0 q 413 35 433 0 q 406 151 392 71 l 440 353 l 293 963 q 180 911 217 953 q 143 815 143 869 q 158 769 143 786 q 199 751 172 751 q 216 753 210 751 q 222 756 222 756 q 223 753 222 756 q 224 743 224 750 q 197 692 224 718 q 118 665 171 665 q 11 703 50 665 q -28 804 -28 742 q 63 974 -28 907 q 322 1042 154 1042 m 614 1163 l 725 1336 q 772 1384 744 1368 q 849 1400 799 1400 q 910 1393 888 1400 q 932 1386 932 1386 l 742 1188 q 710 1163 728 1172 q 665 1153 693 1153 q 626 1158 639 1153 q 614 1163 614 1163 z "},"ý":{"ha":778,"x_min":-28,"x_max":793,"o":"m 613 557 l 538 117 q 560 126 538 117 q 619 153 583 136 q 694 194 656 171 q 764 242 733 217 q 785 233 778 242 q 790 210 793 225 q 744 160 786 192 q 645 97 706 131 q 524 32 585 63 l 521 15 q 383 -356 481 -226 q 132 -486 286 -486 q 19 -445 61 -486 q -24 -340 -24 -404 q 9 -224 -24 -279 q 93 -125 42 -168 q 204 -45 146 -81 q 347 32 263 -10 l 376 211 q 349 162 363 185 q 319 118 335 139 q 228 29 276 58 q 124 0 181 0 q 13 44 54 0 q -28 161 -28 89 q -24 239 -28 200 q -11 332 -21 278 l 29 563 q 35 655 40 628 q 31 682 31 682 q 47 688 31 682 q 103 694 64 694 q 201 663 183 694 q 206 557 218 631 l 150 236 q 153 149 140 176 q 196 121 165 121 q 246 147 219 121 q 299 214 272 172 q 377 367 339 276 q 436 563 415 458 q 443 655 449 628 q 438 682 438 682 q 454 688 438 682 q 510 694 471 694 q 608 663 590 694 q 613 557 625 631 m 118 -394 q 247 -308 192 -394 q 332 -56 301 -222 q 136 -183 196 -126 q 54 -332 54 -262 q 70 -376 54 -358 q 118 -394 86 -394 m 278 815 l 389 989 q 435 1037 408 1021 q 513 1053 463 1053 q 574 1046 551 1053 q 596 1039 596 1039 l 406 840 q 374 815 392 825 q 329 806 357 806 q 290 810 303 806 q 278 815 278 815 z "},"Æ":{"ha":1229,"x_min":-56,"x_max":1285,"o":"m 965 965 q 869 934 913 965 q 800 851 825 903 q 775 738 775 800 q 788 659 775 697 q 835 597 801 621 q 926 574 868 574 q 932 574 929 574 q 938 574 935 574 q 938 569 938 574 q 939 558 939 565 q 865 506 939 506 l 833 506 q 704 429 750 486 q 658 301 658 372 q 720 168 658 221 q 917 115 782 115 q 1077 136 1008 115 q 1192 187 1146 157 q 1260 242 1238 217 q 1285 222 1285 242 q 1249 154 1285 192 q 1151 81 1214 117 q 1004 23 1088 46 q 826 0 921 0 q 565 69 664 0 q 467 264 467 139 q 502 392 467 333 q 604 490 538 451 l 346 490 q 247 238 289 335 q 170 90 204 142 q 106 19 136 38 q 42 0 75 0 q -28 30 -1 0 q -56 107 -56 60 q -46 160 -56 143 q -36 176 -36 176 q -26 171 -36 176 q 8 165 -17 165 q 126 239 68 165 q 256 488 183 313 q 183 469 208 482 q 158 456 158 456 q 147 469 158 456 q 136 511 136 483 q 166 578 136 553 q 247 603 196 603 q 297 599 272 603 l 350 768 q 466 967 389 892 q 683 1042 543 1042 l 953 1042 q 1106 1011 1044 1042 q 1198 931 1167 981 q 1229 825 1229 882 q 1195 715 1229 758 q 1094 671 1161 671 q 1030 688 1050 671 q 1010 704 1010 704 q 1025 722 1010 704 q 1056 775 1040 740 q 1072 857 1072 810 q 965 965 1072 965 m 381 586 q 407 584 381 586 q 476 578 433 582 q 569 572 519 575 q 665 568 619 569 q 583 740 583 635 q 619 875 583 814 q 715 976 654 936 q 541 929 610 975 q 440 779 472 883 l 381 586 z "},"˜":{"ha":586,"x_min":97,"x_max":586,"o":"m 425 819 q 365 831 389 819 q 322 857 340 842 q 283 883 303 872 q 236 894 264 894 q 172 876 194 894 q 140 838 149 857 q 131 819 131 819 q 108 828 118 819 q 99 863 97 836 q 122 935 101 901 q 178 990 143 968 q 258 1011 214 1011 q 319 1000 294 1011 q 363 974 343 989 q 401 947 382 958 q 447 936 421 936 q 513 955 490 936 q 544 992 535 974 q 553 1011 553 1011 q 576 1003 565 1011 q 585 968 586 994 q 562 897 583 931 q 506 841 540 863 q 425 819 471 819 z "},"ž":{"ha":656,"x_min":-139,"x_max":671,"o":"m 285 997 l 336 910 l 439 1018 q 474 1045 458 1038 q 515 1053 490 1053 q 555 1048 543 1053 q 567 1043 567 1043 l 389 817 q 374 811 389 817 q 331 806 358 806 q 265 819 288 806 q 225 861 242 832 l 122 1043 q 140 1048 122 1043 q 174 1053 157 1053 q 244 1040 221 1053 q 285 997 267 1028 m 514 463 q 479 312 514 382 q 385 189 444 242 q 282 119 338 146 q 307 105 293 114 q 339 78 321 96 q 460 131 400 101 q 567 190 519 160 q 642 242 615 219 q 663 233 656 242 q 668 210 671 225 q 622 160 664 192 q 522 95 586 132 q 381 19 457 58 q 411 -114 411 -37 q 383 -251 411 -185 q 305 -371 356 -318 q 186 -455 254 -424 q 38 -486 118 -486 q -96 -447 -53 -486 q -139 -340 -139 -407 q -108 -227 -139 -283 q -25 -128 -76 -171 q 86 -48 25 -85 q 231 29 147 -11 q 222 67 228 51 q 210 90 215 82 q 136 79 168 79 q 96 91 110 79 q 82 121 82 103 q 217 218 157 154 q 313 363 278 282 q 349 526 349 444 q 253 625 349 625 q 169 592 211 625 q 99 503 128 558 q 71 381 71 447 q 72 361 71 368 q 74 354 74 354 q 65 351 74 354 q 40 347 56 347 q -31 373 -4 347 q -57 442 -57 399 q -16 565 -57 507 q 97 658 25 622 q 258 694 168 694 q 452 628 390 694 q 514 463 514 561 m 7 -394 q 117 -348 65 -394 q 202 -224 169 -301 q 235 -57 235 -147 l 235 -47 q 22 -183 83 -122 q -40 -259 -18 -222 q -61 -332 -61 -296 q 7 -394 -61 -394 z "},"ÿ":{"ha":778,"x_min":-28,"x_max":793,"o":"m 613 557 l 538 117 q 560 126 538 117 q 619 153 583 136 q 694 194 656 171 q 764 242 733 217 q 785 233 778 242 q 790 210 793 225 q 744 160 786 192 q 645 97 706 131 q 524 32 585 63 l 521 15 q 383 -356 481 -226 q 132 -486 286 -486 q 19 -445 61 -486 q -24 -340 -24 -404 q 9 -224 -24 -279 q 93 -125 42 -168 q 204 -45 146 -81 q 347 32 263 -10 l 376 211 q 349 162 363 185 q 319 118 335 139 q 228 29 276 58 q 124 0 181 0 q 13 44 54 0 q -28 161 -28 89 q -24 239 -28 200 q -11 332 -21 278 l 29 563 q 35 655 40 628 q 31 682 31 682 q 47 688 31 682 q 103 694 64 694 q 201 663 183 694 q 206 557 218 631 l 150 236 q 153 149 140 176 q 196 121 165 121 q 246 147 219 121 q 299 214 272 172 q 377 367 339 276 q 436 563 415 458 q 443 655 449 628 q 438 682 438 682 q 454 688 438 682 q 510 694 471 694 q 608 663 590 694 q 613 557 625 631 m 118 -394 q 247 -308 192 -394 q 332 -56 301 -222 q 136 -183 196 -126 q 54 -332 54 -262 q 70 -376 54 -358 q 118 -394 86 -394 m 392 903 q 417 967 392 942 q 479 992 443 992 q 533 970 513 992 q 554 917 554 949 q 530 856 554 882 q 465 829 506 829 q 413 851 433 829 q 392 903 392 872 m 149 903 q 175 967 149 942 q 236 992 201 992 q 290 970 269 992 q 311 917 311 949 q 287 856 311 882 q 222 829 263 829 q 169 851 190 829 q 149 903 149 872 z "},"Ÿ":{"ha":950,"x_min":-28,"x_max":992,"o":"m 322 1042 l 367 1042 q 440 1021 408 1042 q 481 960 471 1000 l 603 457 l 622 486 q 776 757 715 625 q 836 992 836 889 q 832 1028 836 1015 q 828 1042 828 1042 q 842 1048 828 1042 q 881 1054 856 1054 q 965 1030 939 1054 q 992 961 992 1006 q 954 840 992 908 q 853 682 917 771 q 710 475 790 593 l 626 353 l 590 146 q 583 44 578 74 q 589 14 589 14 q 571 7 589 14 q 510 0 553 0 q 413 35 433 0 q 406 151 392 71 l 440 353 l 293 963 q 180 911 217 953 q 143 815 143 869 q 158 769 143 786 q 199 751 172 751 q 216 753 210 751 q 222 756 222 756 q 223 753 222 756 q 224 743 224 750 q 197 692 224 718 q 118 665 171 665 q 11 703 50 665 q -28 804 -28 742 q 63 974 -28 907 q 322 1042 154 1042 m 708 1278 q 734 1342 708 1317 q 796 1367 760 1367 q 850 1345 829 1367 q 871 1292 871 1324 q 847 1231 871 1257 q 782 1204 822 1204 q 729 1226 750 1204 q 708 1278 708 1247 m 465 1278 q 492 1342 465 1317 q 553 1367 518 1367 q 607 1345 586 1367 q 628 1292 628 1324 q 603 1231 628 1257 q 539 1204 579 1204 q 486 1226 507 1204 q 465 1278 465 1247 z "},"˘":{"ha":485,"x_min":97,"x_max":486,"o":"m 313 925 q 397 942 367 925 q 440 977 428 960 q 453 994 453 994 q 475 988 464 994 q 483 958 486 982 q 452 887 479 922 q 378 828 425 851 q 269 806 332 806 q 144 848 192 806 q 97 954 97 890 q 119 1022 97 997 q 167 1046 142 1046 q 187 1043 181 1046 q 193 1040 193 1040 q 216 957 179 989 q 313 925 253 925 z "},"þ":{"ha":775,"x_min":-131,"x_max":636,"o":"m -118 -349 l 101 910 q 108 1002 113 975 q 103 1029 103 1029 q 119 1035 103 1029 q 175 1042 136 1042 q 273 1010 256 1042 q 278 904 290 978 l 213 533 q 314 653 257 611 q 436 694 371 694 q 585 631 533 694 q 636 458 636 567 q 588 217 636 319 q 460 57 539 114 q 293 0 382 0 q 201 19 243 0 q 131 68 160 38 l 58 -354 q 52 -447 47 -419 q 57 -474 57 -474 q 40 -480 57 -474 q -15 -486 24 -486 q -113 -453 -96 -486 q -118 -349 -131 -421 m 258 478 q 202 367 229 431 q 156 208 175 303 l 146 156 q 184 114 160 133 q 251 94 208 94 q 351 145 304 94 q 428 283 399 196 q 458 476 458 369 q 440 562 458 536 q 388 588 422 588 q 258 478 328 588 z "},"Þ":{"ha":951,"x_min":49,"x_max":896,"o":"m 432 150 l 247 150 q 240 44 235 74 q 246 14 246 14 q 228 7 246 14 q 167 0 210 0 q 69 35 90 0 q 63 151 49 71 l 193 897 q 200 999 206 969 q 194 1028 194 1028 q 213 1035 194 1028 q 274 1042 231 1042 q 369 1008 349 1042 q 378 896 390 974 l 460 896 q 788 804 681 896 q 896 564 896 713 q 841 353 896 447 q 683 205 786 260 q 432 150 579 150 m 407 819 l 365 819 l 261 226 l 360 226 q 549 274 472 226 q 664 398 625 321 q 703 561 703 475 q 636 754 703 689 q 407 819 569 819 z "},"−":{"ha":706,"x_min":42,"x_max":622,"o":"m 507 363 l 129 363 q 70 356 88 363 q 53 350 53 350 q 47 358 53 350 q 42 386 42 367 q 67 451 42 426 q 157 475 93 475 l 535 475 q 594 481 576 475 q 611 488 611 488 q 617 479 611 488 q 622 451 622 471 q 597 388 622 413 q 507 363 572 363 z "},"ß":{"ha":822,"x_min":-49,"x_max":725,"o":"m 493 253 q 456 367 493 315 q 374 463 418 419 q 342 529 342 493 q 352 567 342 550 q 389 603 363 585 q 503 710 471 658 q 535 828 535 763 q 508 906 535 879 q 436 932 481 932 q 362 910 400 932 q 292 834 324 889 q 243 678 261 779 l 150 146 q 143 44 138 74 q 149 14 149 14 q 131 7 149 14 q 69 0 113 0 q -28 35 -7 0 q -35 151 -49 71 l 53 646 q 133 862 78 785 q 269 970 189 939 q 443 1001 349 1001 q 601 972 539 1001 q 694 892 664 942 q 725 782 725 843 q 669 634 725 693 q 522 547 613 575 q 493 526 493 538 q 506 508 493 517 q 633 403 583 458 q 683 265 683 349 q 646 135 683 196 q 540 38 608 75 q 376 0 471 0 q 281 19 315 0 q 240 67 247 39 q 245 95 236 83 q 267 107 254 107 q 287 93 267 107 q 342 79 307 79 q 451 126 410 79 q 493 253 493 172 z "},"Ž":{"ha":813,"x_min":-42,"x_max":882,"o":"m 782 876 l 263 154 q 379 149 315 151 q 519 146 443 146 q 642 155 597 146 q 707 173 688 164 q 726 182 726 182 q 734 168 726 182 q 742 122 742 154 q 704 35 742 69 q 585 0 667 0 q 453 12 519 0 q 333 39 388 24 q 244 66 278 54 q 211 78 211 78 q 194 58 211 78 q 142 19 176 39 q 56 0 107 0 q -19 26 3 0 q -42 82 -42 51 q -19 139 -42 114 q 51 165 4 164 l 575 888 q 460 893 524 890 q 321 896 397 896 q 199 887 244 896 q 133 869 153 878 q 114 860 114 860 q 106 874 114 860 q 99 919 99 888 q 137 1007 99 972 q 256 1042 175 1042 q 387 1030 321 1042 q 508 1003 453 1018 q 596 976 563 988 q 629 964 629 964 q 647 983 629 964 q 699 1022 664 1003 q 785 1042 733 1042 q 860 1016 838 1042 q 882 960 882 990 q 858 902 882 928 q 782 876 835 876 m 506 1344 l 557 1257 l 660 1365 q 695 1392 679 1385 q 736 1400 711 1400 q 776 1395 764 1400 q 788 1390 788 1390 l 610 1164 q 594 1158 610 1164 q 551 1153 579 1153 q 485 1166 508 1153 q 446 1208 463 1179 l 343 1390 q 360 1395 343 1390 q 394 1400 378 1400 q 465 1388 442 1400 q 506 1344 488 1375 z "},"š":{"ha":633,"x_min":-69,"x_max":536,"o":"m 221 450 l 340 388 q 447 304 417 349 q 478 204 478 260 q 446 103 478 150 q 349 28 414 57 q 183 0 285 0 q 39 26 94 0 q -43 90 -17 51 q -69 164 -69 128 q -42 226 -69 204 q 22 247 -14 247 q 74 238 58 247 q 89 228 89 228 q 85 217 89 228 q 82 188 82 207 q 110 103 82 136 q 197 69 138 71 q 285 96 257 69 q 314 157 314 122 q 299 203 314 182 q 246 244 283 225 l 110 317 q 24 383 60 344 q -11 490 -11 421 q 63 635 -11 575 q 283 694 136 694 q 426 669 369 694 q 509 605 482 643 q 536 531 536 567 q 508 469 536 492 q 444 447 481 447 q 394 457 410 447 q 378 467 378 467 q 381 478 378 467 q 385 507 385 489 q 355 590 385 556 q 267 625 325 625 q 181 599 210 625 q 153 538 153 574 q 169 488 153 507 q 221 450 186 468 m 254 997 l 306 910 l 408 1018 q 444 1045 428 1038 q 485 1053 460 1053 q 524 1048 513 1053 q 536 1043 536 1043 l 358 817 q 343 811 358 817 q 300 806 328 806 q 234 819 257 806 q 194 861 211 832 l 92 1043 q 109 1048 92 1043 q 143 1053 126 1053 q 213 1040 190 1053 q 254 997 236 1028 z "},"Ł":{"ha":857,"x_min":-28,"x_max":871,"o":"m 200 165 l 211 165 l 250 389 l 122 311 q 114 315 122 311 q 99 329 106 319 q 94 361 89 344 q 118 389 99 378 l 265 478 l 339 897 q 344 935 343 919 q 346 965 346 951 l 332 965 q 190 920 238 965 q 143 815 143 875 q 158 769 143 786 q 199 751 172 751 q 216 753 210 751 q 222 756 222 756 q 223 753 222 756 q 224 743 224 750 q 197 692 224 718 q 118 665 171 665 q 11 703 50 665 q -28 804 -28 742 q 63 974 -28 907 q 322 1042 154 1042 l 419 1042 q 518 1006 497 1042 q 524 890 539 971 l 474 604 l 600 682 q 608 678 600 682 q 624 664 617 675 q 628 632 633 649 q 604 604 624 615 l 457 515 l 394 154 q 508 149 446 151 q 650 146 569 146 q 773 155 728 146 q 837 173 818 164 q 856 182 856 182 q 863 168 856 182 q 871 122 871 154 q 833 35 871 69 q 714 0 796 0 q 587 12 649 0 q 476 39 525 24 q 397 66 426 54 q 368 78 368 78 q 349 58 368 78 q 294 19 331 39 q 207 0 258 0 q 124 26 150 0 q 99 82 99 51 q 124 140 99 114 q 200 165 149 165 z "},"ł":{"ha":386,"x_min":-100,"x_max":401,"o":"m -8 306 l 19 467 l -67 414 q -75 418 -67 414 q -90 432 -83 422 q -95 464 -100 447 q -71 492 -90 481 l 36 557 l 118 1021 q 124 1113 129 1086 q 119 1140 119 1140 q 136 1147 119 1140 q 192 1153 153 1153 q 290 1121 272 1153 q 294 1015 307 1089 l 235 676 l 322 731 q 331 727 322 731 q 346 713 339 724 q 326 653 365 679 l 218 588 l 158 243 q 165 151 149 182 q 218 121 181 121 q 303 153 260 121 q 372 242 346 186 q 394 233 386 242 q 399 206 401 225 q 372 143 393 178 q 315 76 350 108 q 236 22 281 43 q 142 0 192 0 q 24 45 69 0 q -21 174 -21 90 q -18 229 -21 194 q -8 306 -15 264 z "},"Š":{"ha":835,"x_min":28,"x_max":821,"o":"m 490 965 q 351 919 406 965 q 297 796 297 872 q 322 713 297 753 q 394 646 347 674 l 571 543 q 697 430 660 492 q 733 294 733 368 q 689 151 733 218 q 558 42 644 83 q 344 0 471 0 q 178 29 250 0 q 67 109 107 58 q 28 224 28 160 q 64 333 28 299 q 150 368 100 368 q 202 359 183 368 q 228 341 221 350 q 235 332 235 332 q 223 318 235 332 q 199 278 211 304 q 186 217 186 253 q 229 115 186 154 q 353 76 272 76 q 501 126 447 76 q 556 243 556 175 q 526 336 556 296 q 428 415 497 376 l 279 500 q 156 610 192 550 q 119 746 119 671 q 163 891 119 824 q 288 1000 206 958 q 492 1042 371 1042 q 665 1011 590 1042 q 780 928 739 981 q 821 806 821 875 q 785 692 821 733 q 685 651 749 651 q 614 669 635 651 q 593 688 593 688 q 610 701 593 688 q 645 747 628 715 q 663 828 663 778 q 621 926 663 886 q 490 965 579 965 m 476 1344 l 528 1257 l 631 1365 q 666 1392 650 1385 q 707 1400 682 1400 q 747 1395 735 1400 q 758 1390 758 1390 l 581 1164 q 565 1158 581 1164 q 522 1153 550 1153 q 456 1166 479 1153 q 417 1208 433 1179 l 314 1390 q 331 1395 314 1390 q 365 1400 349 1400 q 435 1388 413 1400 q 476 1344 458 1375 z "},"¯":{"ha":594,"x_min":97,"x_max":594,"o":"m 479 832 l 185 832 q 126 826 143 832 q 108 819 108 819 q 103 828 108 819 q 97 856 97 836 q 123 920 97 896 q 213 944 149 944 l 507 944 q 566 951 549 944 q 583 957 583 957 q 589 949 583 957 q 594 921 594 940 q 569 857 594 882 q 479 832 544 832 z "},"Ā":{"ha":922,"x_min":-56,"x_max":939,"o":"m 536 365 l 539 381 l 297 381 l 256 265 q 181 97 215 154 q 114 20 147 40 q 42 0 81 0 q -28 30 -1 0 q -56 107 -56 60 q -46 160 -56 143 q -36 176 -36 176 q -24 171 -36 176 q 13 165 -12 165 q 107 210 58 165 q 207 378 156 254 q 135 359 160 372 q 110 346 110 346 q 99 360 110 346 q 88 401 88 374 q 117 468 88 443 q 199 493 147 493 q 249 489 224 493 l 354 782 q 429 928 386 871 q 538 1014 472 986 q 703 1042 604 1042 q 808 1005 788 1042 q 814 890 828 968 l 700 236 q 709 149 690 176 q 763 121 728 121 q 826 143 797 121 q 877 194 856 165 q 908 242 899 222 q 935 206 939 242 q 893 116 929 164 q 802 34 857 68 q 683 0 747 0 q 563 47 610 0 q 517 172 517 93 q 522 265 517 221 q 536 365 526 310 m 332 476 q 424 465 372 471 q 551 457 475 458 l 629 897 q 635 947 635 929 q 636 965 636 965 q 553 940 590 965 q 488 873 515 914 q 443 785 460 832 l 332 476 m 813 1179 l 518 1179 q 459 1173 476 1179 q 442 1167 442 1167 q 436 1175 442 1167 q 431 1203 431 1183 q 456 1267 431 1243 q 546 1292 482 1292 l 840 1292 q 899 1298 882 1292 q 917 1304 917 1304 q 922 1296 917 1304 q 928 1268 928 1288 q 903 1204 928 1229 q 813 1179 878 1179 z "},"Ă":{"ha":922,"x_min":-56,"x_max":939,"o":"m 536 365 l 539 381 l 297 381 l 256 265 q 181 97 215 154 q 114 20 147 40 q 42 0 81 0 q -28 30 -1 0 q -56 107 -56 60 q -46 160 -56 143 q -36 176 -36 176 q -24 171 -36 176 q 13 165 -12 165 q 107 210 58 165 q 207 378 156 254 q 135 359 160 372 q 110 346 110 346 q 99 360 110 346 q 88 401 88 374 q 117 468 88 443 q 199 493 147 493 q 249 489 224 493 l 354 782 q 429 928 386 871 q 538 1014 472 986 q 703 1042 604 1042 q 808 1005 788 1042 q 814 890 828 968 l 700 236 q 709 149 690 176 q 763 121 728 121 q 826 143 797 121 q 877 194 856 165 q 908 242 899 222 q 935 206 939 242 q 893 116 929 164 q 802 34 857 68 q 683 0 747 0 q 563 47 610 0 q 517 172 517 93 q 522 265 517 221 q 536 365 526 310 m 332 476 q 424 465 372 471 q 551 457 475 458 l 629 897 q 635 947 635 929 q 636 965 636 965 q 553 940 590 965 q 488 873 515 914 q 443 785 460 832 l 332 476 m 746 1272 q 831 1290 800 1272 q 874 1324 861 1307 q 886 1342 886 1342 q 908 1335 897 1342 q 917 1306 919 1329 q 885 1234 913 1269 q 812 1176 858 1199 q 703 1153 765 1153 q 578 1195 625 1153 q 531 1301 531 1238 q 553 1369 531 1344 q 600 1393 575 1393 q 620 1390 614 1393 q 626 1388 626 1388 q 649 1304 613 1336 q 746 1272 686 1272 z "},"˛":{"ha":376,"x_min":0,"x_max":294,"o":"m 147 22 l 250 22 q 233 13 250 22 q 195 -16 217 3 q 157 -60 174 -35 q 140 -118 140 -86 q 156 -162 140 -146 q 203 -179 172 -179 q 253 -163 239 -179 q 268 -147 268 -147 q 281 -150 268 -147 q 292 -178 294 -153 q 250 -242 289 -210 q 146 -275 211 -275 q 37 -237 74 -275 q 0 -147 0 -200 q 22 -69 0 -101 q 74 -17 44 -37 q 125 13 103 4 q 147 22 147 22 z "},"ă":{"ha":774,"x_min":-42,"x_max":789,"o":"m 614 581 l 554 243 q 560 151 543 181 q 614 121 576 121 q 692 153 650 121 q 760 242 733 186 q 781 233 774 242 q 786 206 789 225 q 760 143 781 178 q 707 76 740 108 q 631 22 674 43 q 538 0 588 0 q 425 41 469 0 q 375 157 381 82 q 277 40 332 81 q 163 0 222 0 q 18 58 78 0 q -42 239 -42 117 q -11 441 -42 356 q 69 583 19 526 q 180 667 119 639 q 301 694 240 694 q 391 676 354 694 q 451 626 428 657 q 497 679 468 664 q 576 694 525 694 q 629 688 613 694 q 646 681 646 681 q 635 659 646 681 q 614 581 625 638 m 218 121 q 288 155 256 121 q 344 242 319 189 q 388 356 369 296 q 417 468 407 417 l 429 533 q 399 577 419 554 q 338 600 378 600 q 244 556 290 600 q 167 430 197 511 q 136 236 136 349 q 158 149 136 178 q 218 121 179 121 m 443 925 q 528 942 497 925 q 571 977 558 960 q 583 994 583 994 q 606 988 594 994 q 614 958 617 982 q 583 887 610 922 q 509 828 556 851 q 400 806 463 806 q 275 848 322 806 q 228 954 228 890 q 250 1022 228 997 q 297 1046 272 1046 q 317 1043 311 1046 q 324 1040 324 1040 q 347 957 310 989 q 443 925 383 925 z "},"ā":{"ha":774,"x_min":-42,"x_max":789,"o":"m 517 832 l 222 832 q 163 826 181 832 q 146 819 146 819 q 140 828 146 819 q 135 856 135 836 q 160 920 135 896 q 250 944 186 944 l 544 944 q 603 951 586 944 q 621 957 621 957 q 626 949 621 957 q 632 921 632 940 q 607 857 632 882 q 517 832 582 832 m 614 581 l 554 243 q 560 151 543 181 q 614 121 576 121 q 692 153 650 121 q 760 242 733 186 q 781 233 774 242 q 786 206 789 225 q 760 143 781 178 q 707 76 740 108 q 631 22 674 43 q 538 0 588 0 q 425 41 469 0 q 375 157 381 82 q 277 40 332 81 q 163 0 222 0 q 18 58 78 0 q -42 239 -42 117 q -11 441 -42 356 q 69 583 19 526 q 180 667 119 639 q 301 694 240 694 q 391 676 354 694 q 451 626 428 657 q 497 679 468 664 q 576 694 525 694 q 629 688 613 694 q 646 681 646 681 q 635 659 646 681 q 614 581 625 638 m 218 121 q 288 155 256 121 q 344 242 319 189 q 388 356 369 296 q 417 468 407 417 l 429 533 q 399 577 419 554 q 338 600 378 600 q 244 556 290 600 q 167 430 197 511 q 136 236 136 349 q 158 149 136 178 q 218 121 179 121 z "},"ą":{"ha":774,"x_min":-42,"x_max":789,"o":"m 614 581 l 554 243 q 560 151 543 181 q 614 121 576 121 q 692 153 650 121 q 760 242 733 186 q 781 233 774 242 q 786 206 789 225 q 759 140 781 176 q 702 69 738 103 q 621 17 667 36 q 585 -8 610 10 q 541 -54 561 -26 q 521 -118 521 -82 q 537 -162 521 -146 q 583 -179 553 -179 q 634 -163 619 -179 q 649 -147 649 -147 q 662 -150 649 -147 q 672 -178 675 -153 q 631 -242 669 -210 q 526 -275 592 -275 q 417 -237 454 -275 q 381 -147 381 -200 q 399 -76 381 -106 q 442 -26 417 -46 q 489 6 468 -6 q 410 57 440 18 q 375 157 379 96 q 277 40 332 81 q 163 0 222 0 q 18 58 78 0 q -42 239 -42 117 q -11 441 -42 356 q 69 583 19 526 q 180 667 119 639 q 301 694 240 694 q 391 676 354 694 q 451 626 428 657 q 497 679 468 664 q 576 694 525 694 q 629 688 613 694 q 646 681 646 681 q 635 659 646 681 q 614 581 625 638 m 218 121 q 288 155 256 121 q 344 242 319 189 q 388 356 369 296 q 417 468 407 417 l 429 533 q 399 577 419 554 q 338 600 378 600 q 244 556 290 600 q 167 430 197 511 q 136 236 136 349 q 158 149 136 178 q 218 121 179 121 z "},"Ą":{"ha":922,"x_min":-56,"x_max":939,"o":"m 536 365 l 539 381 l 297 381 l 256 265 q 181 97 215 154 q 114 20 147 40 q 42 0 81 0 q -28 30 -1 0 q -56 107 -56 60 q -46 160 -56 143 q -36 176 -36 176 q -24 171 -36 176 q 13 165 -12 165 q 107 210 58 165 q 207 378 156 254 q 135 359 160 372 q 110 346 110 346 q 99 360 110 346 q 88 401 88 374 q 117 468 88 443 q 199 493 147 493 q 249 489 224 493 l 354 782 q 429 928 386 871 q 538 1014 472 986 q 703 1042 604 1042 q 808 1005 788 1042 q 814 890 828 968 l 700 236 q 709 149 690 176 q 763 121 728 121 q 826 143 797 121 q 877 194 856 165 q 908 242 899 222 q 935 206 939 242 q 908 138 931 174 q 851 70 886 101 q 774 19 817 39 q 739 -4 764 14 q 692 -51 714 -22 q 669 -118 669 -81 q 685 -162 669 -146 q 732 -179 701 -179 q 783 -163 768 -179 q 797 -147 797 -147 q 810 -150 797 -147 q 821 -178 824 -153 q 779 -242 818 -210 q 675 -275 740 -275 q 566 -237 603 -275 q 529 -147 529 -200 q 547 -76 529 -106 q 590 -27 565 -47 q 638 4 615 -7 q 549 62 582 18 q 517 172 517 106 q 522 265 517 221 q 536 365 526 310 m 332 476 q 424 465 372 471 q 551 457 475 458 l 629 897 q 635 947 635 929 q 636 965 636 965 q 553 940 590 965 q 488 873 515 914 q 443 785 460 832 l 332 476 z "},"Ć":{"ha":896,"x_min":69,"x_max":925,"o":"m 563 115 q 764 153 676 115 q 899 242 851 190 q 920 233 915 242 q 922 211 925 225 q 883 149 917 185 q 791 78 849 113 q 657 22 733 44 q 489 0 581 0 q 276 52 371 0 q 125 201 181 104 q 69 432 69 297 q 109 681 69 569 q 219 874 149 793 q 383 998 290 954 q 585 1042 476 1042 q 731 1008 672 1042 q 820 922 790 975 q 850 806 850 868 q 826 695 850 740 q 763 627 801 650 q 681 604 724 604 q 627 616 647 604 q 599 640 607 628 q 590 651 590 651 q 606 660 590 651 q 642 692 622 669 q 678 752 663 714 q 694 849 694 790 q 663 935 694 904 q 581 965 632 965 q 464 925 521 965 q 362 813 407 885 q 290 648 317 742 q 263 447 263 554 q 343 201 263 288 q 563 115 424 115 m 533 1163 l 644 1336 q 691 1384 664 1368 q 768 1400 718 1400 q 829 1393 807 1400 q 851 1386 851 1386 l 661 1188 q 630 1163 647 1172 q 585 1153 613 1153 q 546 1158 558 1153 q 533 1163 533 1163 z "},"ć":{"ha":626,"x_min":-42,"x_max":639,"o":"m 272 0 q 110 36 181 0 q -1 139 39 72 q -42 294 -42 206 q -11 458 -42 385 q 72 585 19 532 q 190 666 124 638 q 328 694 257 694 q 469 650 414 694 q 524 538 524 606 q 491 434 524 475 q 404 393 458 393 q 352 410 367 393 q 338 426 338 426 q 351 441 338 426 q 376 485 364 456 q 389 561 389 515 q 371 608 389 590 q 325 625 353 625 q 239 588 282 625 q 167 482 196 550 q 139 322 139 414 q 192 167 139 225 q 343 110 246 110 q 466 131 414 110 q 554 182 518 151 q 608 242 590 213 q 631 206 639 242 q 599 149 625 183 q 526 80 572 114 q 417 23 481 46 q 272 0 353 0 m 276 815 l 388 989 q 434 1037 407 1021 q 511 1053 461 1053 q 572 1046 550 1053 q 594 1039 594 1039 l 404 840 q 373 815 390 825 q 328 806 356 806 q 289 810 301 806 q 276 815 276 815 z "},"č":{"ha":626,"x_min":-42,"x_max":639,"o":"m 272 0 q 110 36 181 0 q -1 139 39 72 q -42 294 -42 206 q -11 458 -42 385 q 72 585 19 532 q 190 666 124 638 q 328 694 257 694 q 469 650 414 694 q 524 538 524 606 q 491 434 524 475 q 404 393 458 393 q 352 410 367 393 q 338 426 338 426 q 351 441 338 426 q 376 485 364 456 q 389 561 389 515 q 371 608 389 590 q 325 625 353 625 q 239 588 282 625 q 167 482 196 550 q 139 322 139 414 q 192 167 139 225 q 343 110 246 110 q 466 131 414 110 q 554 182 518 151 q 608 242 590 213 q 631 206 639 242 q 599 149 625 183 q 526 80 572 114 q 417 23 481 46 q 272 0 353 0 m 290 997 l 342 910 l 444 1018 q 480 1045 464 1038 q 521 1053 496 1053 q 560 1048 549 1053 q 572 1043 572 1043 l 394 817 q 379 811 394 817 q 336 806 364 806 q 270 819 293 806 q 231 861 247 832 l 128 1043 q 145 1048 128 1043 q 179 1053 163 1053 q 249 1040 226 1053 q 290 997 272 1028 z "},"Č":{"ha":896,"x_min":69,"x_max":925,"o":"m 563 115 q 764 153 676 115 q 899 242 851 190 q 920 233 915 242 q 922 211 925 225 q 883 149 917 185 q 791 78 849 113 q 657 22 733 44 q 489 0 581 0 q 276 52 371 0 q 125 201 181 104 q 69 432 69 297 q 109 681 69 569 q 219 874 149 793 q 383 998 290 954 q 585 1042 476 1042 q 731 1008 672 1042 q 820 922 790 975 q 850 806 850 868 q 826 695 850 740 q 763 627 801 650 q 681 604 724 604 q 627 616 647 604 q 599 640 607 628 q 590 651 590 651 q 606 660 590 651 q 642 692 622 669 q 678 752 663 714 q 694 849 694 790 q 663 935 694 904 q 581 965 632 965 q 464 925 521 965 q 362 813 407 885 q 290 648 317 742 q 263 447 263 554 q 343 201 263 288 q 563 115 424 115 m 578 1344 l 629 1257 l 732 1365 q 767 1392 751 1385 q 808 1400 783 1400 q 848 1395 836 1400 q 860 1390 860 1390 l 682 1164 q 667 1158 682 1164 q 624 1153 651 1153 q 558 1166 581 1153 q 518 1208 535 1179 l 415 1390 q 433 1395 415 1390 q 467 1400 450 1400 q 537 1388 514 1400 q 578 1344 560 1375 z "},"ĉ":{"ha":626,"x_min":-42,"x_max":639,"o":"m 272 0 q 110 36 181 0 q -1 139 39 72 q -42 294 -42 206 q -11 458 -42 385 q 72 585 19 532 q 190 666 124 638 q 328 694 257 694 q 469 650 414 694 q 524 538 524 606 q 491 434 524 475 q 404 393 458 393 q 352 410 367 393 q 338 426 338 426 q 351 441 338 426 q 376 485 364 456 q 389 561 389 515 q 371 608 389 590 q 325 625 353 625 q 239 588 282 625 q 167 482 196 550 q 139 322 139 414 q 192 167 139 225 q 343 110 246 110 q 466 131 414 110 q 554 182 518 151 q 608 242 590 213 q 631 206 639 242 q 599 149 625 183 q 526 80 572 114 q 417 23 481 46 q 272 0 353 0 m 389 861 l 338 949 l 235 840 q 200 814 217 822 q 158 806 183 806 q 119 810 132 806 q 107 815 107 815 l 285 1042 q 301 1047 285 1042 q 343 1053 317 1053 q 409 1040 386 1053 q 449 997 432 1026 l 551 815 q 534 810 551 815 q 500 806 517 806 q 430 818 453 806 q 389 861 407 831 z "},"Ĉ":{"ha":896,"x_min":69,"x_max":925,"o":"m 563 115 q 764 153 676 115 q 899 242 851 190 q 920 233 915 242 q 922 211 925 225 q 883 149 917 185 q 791 78 849 113 q 657 22 733 44 q 489 0 581 0 q 276 52 371 0 q 125 201 181 104 q 69 432 69 297 q 109 681 69 569 q 219 874 149 793 q 383 998 290 954 q 585 1042 476 1042 q 731 1008 672 1042 q 820 922 790 975 q 850 806 850 868 q 826 695 850 740 q 763 627 801 650 q 681 604 724 604 q 627 616 647 604 q 599 640 607 628 q 590 651 590 651 q 606 660 590 651 q 642 692 622 669 q 678 752 663 714 q 694 849 694 790 q 663 935 694 904 q 581 965 632 965 q 464 925 521 965 q 362 813 407 885 q 290 648 317 742 q 263 447 263 554 q 343 201 263 288 q 563 115 424 115 m 672 1208 l 621 1296 l 518 1188 q 483 1161 500 1169 q 442 1153 467 1153 q 403 1158 415 1153 q 390 1163 390 1163 l 568 1389 q 584 1394 568 1389 q 626 1400 600 1400 q 692 1387 669 1400 q 732 1344 715 1374 l 835 1163 q 817 1158 835 1163 q 783 1153 800 1153 q 713 1165 736 1153 q 672 1208 690 1178 z "},"Ď":{"ha":1094,"x_min":-28,"x_max":1039,"o":"m 529 724 l 436 193 q 400 96 425 135 q 438 87 417 90 q 485 83 460 83 q 678 142 597 83 q 803 307 760 201 q 846 551 846 413 q 796 773 846 681 q 651 915 746 865 q 425 965 557 965 q 260 938 322 965 q 171 869 199 910 q 143 788 143 828 q 158 741 143 758 q 199 724 172 724 q 216 726 210 724 q 222 728 222 728 q 223 725 222 728 q 224 715 224 722 q 197 664 224 690 q 118 638 171 638 q 11 676 50 638 q -28 776 -28 714 q 22 906 -28 846 q 170 1004 71 967 q 418 1042 269 1042 q 749 976 610 1042 q 963 797 888 911 q 1039 531 1039 682 q 974 246 1039 365 q 794 63 908 126 q 531 0 679 0 q 421 12 468 0 q 340 38 374 24 q 273 8 310 17 q 197 0 236 0 q 110 26 136 0 q 85 82 85 51 q 110 140 85 115 q 190 165 135 165 q 244 158 214 165 l 344 731 q 351 832 357 803 q 346 861 346 861 q 364 868 346 861 q 425 875 382 875 q 523 840 503 875 q 529 724 543 804 m 579 1344 l 631 1257 l 733 1365 q 769 1392 753 1385 q 810 1400 785 1400 q 849 1395 838 1400 q 861 1390 861 1390 l 683 1164 q 668 1158 683 1164 q 625 1153 653 1153 q 559 1166 582 1153 q 519 1208 536 1179 l 417 1390 q 434 1395 417 1390 q 468 1400 451 1400 q 538 1388 515 1400 q 579 1344 561 1375 z "},"Đ":{"ha":1094,"x_min":-28,"x_max":1039,"o":"m 529 724 l 488 492 l 664 492 q 669 481 664 492 q 674 456 674 469 q 662 426 674 438 q 626 415 650 415 l 475 415 l 436 193 q 400 96 425 135 q 438 87 417 90 q 485 83 460 83 q 678 142 597 83 q 803 307 760 201 q 846 551 846 413 q 796 773 846 681 q 651 915 746 865 q 425 965 557 965 q 260 938 322 965 q 171 869 199 910 q 143 788 143 828 q 158 741 143 758 q 199 724 172 724 q 216 726 210 724 q 222 728 222 728 q 223 725 222 728 q 224 715 224 722 q 197 664 224 690 q 118 638 171 638 q 11 676 50 638 q -28 776 -28 714 q 22 906 -28 846 q 170 1004 71 967 q 418 1042 269 1042 q 749 976 610 1042 q 963 797 888 911 q 1039 531 1039 682 q 974 246 1039 365 q 794 63 908 126 q 531 0 679 0 q 421 12 468 0 q 340 38 374 24 q 273 8 310 17 q 197 0 236 0 q 110 26 136 0 q 85 82 85 51 q 110 140 85 115 q 190 165 135 165 q 244 158 214 165 l 289 415 l 117 415 q 112 426 117 415 q 107 451 107 438 q 119 481 107 469 q 154 492 132 492 l 303 492 l 344 731 q 351 832 357 803 q 346 861 346 861 q 364 868 346 861 q 425 875 382 875 q 523 840 503 875 q 529 724 543 804 z "},"ď":{"ha":865,"x_min":-42,"x_max":949,"o":"m 761 1053 q 790 1124 761 1096 q 858 1153 819 1153 q 924 1126 899 1153 q 949 1056 949 1100 q 934 981 949 1019 q 897 910 919 943 q 847 856 874 876 q 797 836 821 836 q 771 846 779 836 q 763 865 763 856 q 800 915 786 886 q 819 972 814 943 q 761 1053 761 988 m 539 0 q 426 41 471 0 q 376 158 381 82 q 163 0 286 0 q 18 58 78 0 q -42 239 -42 117 q -11 441 -42 356 q 69 583 19 526 q 180 667 119 639 q 301 694 240 694 q 386 678 350 694 q 446 633 422 661 l 513 1021 q 519 1113 524 1086 q 514 1140 514 1140 q 531 1147 514 1140 q 586 1153 547 1153 q 684 1121 667 1153 q 689 1015 701 1089 l 556 243 q 562 151 546 181 q 615 121 578 121 q 693 153 651 121 q 761 242 735 186 q 783 233 775 242 q 788 206 790 225 q 762 143 782 178 q 708 76 742 108 q 632 22 675 43 q 539 0 589 0 m 218 121 q 288 155 256 121 q 344 242 319 189 q 388 356 369 296 q 417 468 407 417 l 429 533 q 399 577 419 554 q 338 600 378 600 q 244 556 290 600 q 167 430 197 511 q 136 236 136 349 q 158 149 136 178 q 218 121 179 121 z "},"đ":{"ha":775,"x_min":-42,"x_max":824,"o":"m 539 0 q 426 41 471 0 q 376 158 381 82 q 163 0 286 0 q 18 58 78 0 q -42 239 -42 117 q -11 441 -42 356 q 69 583 19 526 q 180 667 119 639 q 301 694 240 694 q 386 678 350 694 q 446 633 422 661 l 488 876 l 396 876 q 391 884 396 876 q 386 906 386 892 q 399 935 386 924 q 433 946 411 946 l 499 946 l 513 1021 q 519 1113 524 1086 q 514 1140 514 1140 q 531 1147 514 1140 q 586 1153 547 1153 q 684 1121 667 1153 q 689 1015 701 1089 l 676 946 l 814 946 q 819 938 814 946 q 824 917 824 931 q 812 888 824 899 q 776 876 800 876 l 664 876 l 556 243 q 562 151 546 181 q 615 121 578 121 q 693 153 651 121 q 761 242 735 186 q 783 233 775 242 q 788 206 790 225 q 762 143 782 178 q 708 76 742 108 q 632 22 675 43 q 539 0 589 0 m 218 121 q 288 155 256 121 q 344 242 319 189 q 388 356 369 296 q 417 468 407 417 l 429 533 q 399 577 419 554 q 338 600 378 600 q 244 556 290 600 q 167 430 197 511 q 136 236 136 349 q 158 149 136 178 q 218 121 179 121 z "},"Ē":{"ha":806,"x_min":42,"x_max":861,"o":"m 540 965 q 444 934 488 965 q 375 851 400 903 q 350 738 350 800 q 365 657 350 696 q 415 594 379 618 q 513 574 450 571 q 513 569 513 574 q 514 558 514 565 q 440 506 514 506 l 408 506 q 279 429 325 486 q 233 301 233 372 q 259 208 233 250 q 342 140 285 165 q 492 115 399 115 q 652 136 583 115 q 767 187 721 157 q 835 242 813 217 q 857 233 853 242 q 858 211 861 225 q 815 144 853 181 q 714 75 776 108 q 572 21 651 42 q 401 0 492 0 q 140 69 239 0 q 42 264 42 139 q 108 432 42 358 q 292 536 174 506 q 193 621 228 567 q 158 740 158 675 q 206 896 158 828 q 336 1003 253 964 q 525 1042 419 1042 q 680 1012 618 1042 q 773 933 742 982 q 804 825 804 883 q 770 715 804 758 q 669 671 736 671 q 605 688 625 671 q 585 704 585 704 q 600 722 585 704 q 631 775 615 740 q 647 857 647 810 q 540 965 647 965 m 700 1179 l 406 1179 q 347 1173 364 1179 q 329 1167 329 1167 q 324 1175 329 1167 q 318 1203 318 1183 q 344 1267 318 1243 q 433 1292 369 1292 l 728 1292 q 787 1298 769 1292 q 804 1304 804 1304 q 810 1296 804 1304 q 815 1268 815 1288 q 790 1204 815 1229 q 700 1179 765 1179 z "},"ě":{"ha":626,"x_min":-42,"x_max":639,"o":"m 272 0 q 110 36 182 0 q -1 140 39 72 q -42 300 -42 207 q -10 465 -42 392 q 76 590 22 539 q 195 667 129 640 q 331 694 261 694 q 445 673 401 694 q 509 619 489 651 q 529 550 529 586 q 426 392 529 456 q 139 294 322 329 q 197 163 146 217 q 338 110 249 110 q 466 131 413 110 q 555 182 519 151 q 608 242 590 213 q 631 206 639 242 q 599 149 626 183 q 526 80 572 114 q 416 23 481 46 q 272 0 351 0 m 332 625 q 251 595 293 625 q 179 506 210 565 q 140 360 149 447 q 324 449 268 390 q 381 576 381 508 q 367 612 381 599 q 332 625 354 625 m 290 997 l 342 910 l 444 1018 q 480 1045 464 1038 q 521 1053 496 1053 q 560 1048 549 1053 q 572 1043 572 1043 l 394 817 q 379 811 394 817 q 336 806 364 806 q 270 819 293 806 q 231 861 247 832 l 128 1043 q 145 1048 128 1043 q 179 1053 163 1053 q 249 1040 226 1053 q 290 997 272 1028 z "},"Ě":{"ha":806,"x_min":42,"x_max":861,"o":"m 540 965 q 444 934 488 965 q 375 851 400 903 q 350 738 350 800 q 365 657 350 696 q 415 594 379 618 q 513 574 450 571 q 513 569 513 574 q 514 558 514 565 q 440 506 514 506 l 408 506 q 279 429 325 486 q 233 301 233 372 q 259 208 233 250 q 342 140 285 165 q 492 115 399 115 q 652 136 583 115 q 767 187 721 157 q 835 242 813 217 q 857 233 853 242 q 858 211 861 225 q 815 144 853 181 q 714 75 776 108 q 572 21 651 42 q 401 0 492 0 q 140 69 239 0 q 42 264 42 139 q 108 432 42 358 q 292 536 174 506 q 193 621 228 567 q 158 740 158 675 q 206 896 158 828 q 336 1003 253 964 q 525 1042 419 1042 q 680 1012 618 1042 q 773 933 742 982 q 804 825 804 883 q 770 715 804 758 q 669 671 736 671 q 605 688 625 671 q 585 704 585 704 q 600 722 585 704 q 631 775 615 740 q 647 857 647 810 q 540 965 647 965 m 518 1344 l 569 1257 l 672 1365 q 708 1392 692 1385 q 749 1400 724 1400 q 788 1395 776 1400 q 800 1390 800 1390 l 622 1164 q 607 1158 622 1164 q 564 1153 592 1153 q 498 1166 521 1153 q 458 1208 475 1179 l 356 1390 q 373 1395 356 1390 q 407 1400 390 1400 q 477 1388 454 1400 q 518 1344 500 1375 z "},"ē":{"ha":626,"x_min":-42,"x_max":639,"o":"m 272 0 q 110 36 182 0 q -1 140 39 72 q -42 300 -42 207 q -10 465 -42 392 q 76 590 22 539 q 195 667 129 640 q 331 694 261 694 q 445 673 401 694 q 509 619 489 651 q 529 550 529 586 q 426 392 529 456 q 139 294 322 329 q 197 163 146 217 q 338 110 249 110 q 466 131 413 110 q 555 182 519 151 q 608 242 590 213 q 631 206 639 242 q 599 149 626 183 q 526 80 572 114 q 416 23 481 46 q 272 0 351 0 m 332 625 q 251 595 293 625 q 179 506 210 565 q 140 360 149 447 q 324 449 268 390 q 381 576 381 508 q 367 612 381 599 q 332 625 354 625 m 461 832 l 167 832 q 108 826 125 832 q 90 819 90 819 q 85 828 90 819 q 79 856 79 836 q 105 920 79 896 q 194 944 131 944 l 489 944 q 548 951 531 944 q 565 957 565 957 q 571 949 565 957 q 576 921 576 940 q 551 857 576 882 q 461 832 526 832 z "},"˙":{"ha":260,"x_min":97,"x_max":260,"o":"m 97 903 q 123 967 97 942 q 185 992 149 992 q 239 970 218 992 q 260 917 260 949 q 235 856 260 882 q 171 829 211 829 q 118 851 139 829 q 97 903 97 872 z "},"ė":{"ha":626,"x_min":-42,"x_max":639,"o":"m 272 0 q 110 36 182 0 q -1 140 39 72 q -42 300 -42 207 q -10 465 -42 392 q 76 590 22 539 q 195 667 129 640 q 331 694 261 694 q 445 673 401 694 q 509 619 489 651 q 529 550 529 586 q 426 392 529 456 q 139 294 322 329 q 197 163 146 217 q 338 110 249 110 q 466 131 413 110 q 555 182 519 151 q 608 242 590 213 q 631 206 639 242 q 599 149 626 183 q 526 80 572 114 q 416 23 481 46 q 272 0 351 0 m 332 625 q 251 595 293 625 q 179 506 210 565 q 140 360 149 447 q 324 449 268 390 q 381 576 381 508 q 367 612 381 599 q 332 625 354 625 m 267 903 q 292 967 267 942 q 354 992 318 992 q 408 970 388 992 q 429 917 429 949 q 405 856 429 882 q 340 829 381 829 q 288 851 308 829 q 267 903 267 872 z "},"Ė":{"ha":806,"x_min":42,"x_max":861,"o":"m 540 965 q 444 934 488 965 q 375 851 400 903 q 350 738 350 800 q 365 657 350 696 q 415 594 379 618 q 513 574 450 571 q 513 569 513 574 q 514 558 514 565 q 440 506 514 506 l 408 506 q 279 429 325 486 q 233 301 233 372 q 259 208 233 250 q 342 140 285 165 q 492 115 399 115 q 652 136 583 115 q 767 187 721 157 q 835 242 813 217 q 857 233 853 242 q 858 211 861 225 q 815 144 853 181 q 714 75 776 108 q 572 21 651 42 q 401 0 492 0 q 140 69 239 0 q 42 264 42 139 q 108 432 42 358 q 292 536 174 506 q 193 621 228 567 q 158 740 158 675 q 206 896 158 828 q 336 1003 253 964 q 525 1042 419 1042 q 680 1012 618 1042 q 773 933 742 982 q 804 825 804 883 q 770 715 804 758 q 669 671 736 671 q 605 688 625 671 q 585 704 585 704 q 600 722 585 704 q 631 775 615 740 q 647 857 647 810 q 540 965 647 965 m 503 1250 q 528 1314 503 1289 q 590 1339 554 1339 q 644 1317 624 1339 q 665 1264 665 1296 q 641 1203 665 1229 q 576 1176 617 1176 q 524 1198 544 1176 q 503 1250 503 1219 z "},"Ę":{"ha":806,"x_min":42,"x_max":861,"o":"m 540 965 q 444 934 488 965 q 375 851 400 903 q 350 738 350 800 q 365 657 350 696 q 415 594 379 618 q 513 574 450 571 q 513 569 513 574 q 514 558 514 565 q 440 506 514 506 l 408 506 q 279 429 325 486 q 233 301 233 372 q 294 168 233 221 q 492 115 356 115 q 652 136 583 115 q 767 187 721 157 q 835 242 813 217 q 857 233 853 242 q 858 211 861 225 q 803 134 851 176 q 676 56 756 92 q 497 7 597 21 q 461 -20 482 -3 q 426 -62 440 -37 q 411 -118 411 -86 q 427 -162 411 -146 q 474 -179 443 -179 q 524 -163 510 -179 q 539 -147 539 -147 q 552 -150 539 -147 q 563 -178 565 -153 q 521 -242 560 -210 q 417 -275 482 -275 q 308 -237 344 -275 q 271 -147 271 -200 q 305 -54 271 -90 q 371 0 339 -18 q 199 37 274 4 q 83 127 125 69 q 42 264 42 185 q 108 432 42 358 q 292 536 174 506 q 193 621 228 567 q 158 740 158 675 q 206 896 158 828 q 336 1003 253 964 q 525 1042 419 1042 q 680 1012 618 1042 q 773 933 742 982 q 804 825 804 883 q 770 715 804 758 q 669 671 736 671 q 605 688 625 671 q 585 704 585 704 q 600 722 585 704 q 631 775 615 740 q 647 857 647 810 q 540 965 647 965 z "},"ę":{"ha":626,"x_min":-42,"x_max":639,"o":"m 631 206 q 588 134 625 175 q 492 57 551 93 q 354 7 432 21 q 300 -41 331 -8 q 269 -118 269 -74 q 285 -162 269 -146 q 332 -179 301 -179 q 383 -163 368 -179 q 397 -147 397 -147 q 410 -150 397 -147 q 421 -178 424 -153 q 379 -242 418 -210 q 275 -275 340 -275 q 166 -237 203 -275 q 129 -147 129 -200 q 146 -79 129 -108 q 187 -30 163 -50 q 232 1 211 -10 q 34 92 110 14 q -42 300 -42 169 q -10 465 -42 392 q 76 590 22 539 q 195 667 129 640 q 331 694 261 694 q 445 673 401 694 q 509 619 489 651 q 529 550 529 586 q 426 392 529 456 q 139 294 322 329 q 198 163 146 217 q 338 110 250 110 q 466 131 413 110 q 555 182 519 151 q 608 242 590 213 q 631 206 639 242 m 332 625 q 251 595 293 625 q 179 506 210 565 q 140 360 149 447 q 324 449 268 390 q 381 576 381 508 q 367 612 381 599 q 332 625 354 625 z "},"Ğ":{"ha":931,"x_min":69,"x_max":903,"o":"m 621 438 l 896 438 q 899 431 896 438 q 903 411 903 424 q 881 371 903 386 q 821 346 858 356 q 759 181 806 260 q 634 51 713 101 q 442 0 556 0 q 253 49 338 0 q 119 194 169 99 q 69 426 69 289 q 108 675 69 563 q 216 870 147 788 q 376 997 285 953 q 575 1042 468 1042 q 725 1010 663 1042 q 821 924 788 978 q 854 806 854 871 q 806 659 854 714 q 683 604 757 604 q 631 616 650 604 q 603 640 611 628 q 594 651 594 651 q 610 660 594 651 q 647 691 626 669 q 683 750 667 713 q 699 844 699 788 q 572 965 699 965 q 468 928 522 965 q 367 822 414 892 q 292 654 321 753 q 263 431 263 556 q 322 199 263 278 q 490 121 381 121 q 645 176 579 121 q 738 324 711 231 q 674 311 704 315 q 607 307 643 307 q 538 331 563 307 q 513 396 513 356 q 518 431 513 418 q 524 443 524 443 q 553 440 524 443 q 621 438 583 438 m 643 1272 q 728 1290 697 1272 q 771 1324 758 1307 q 783 1342 783 1342 q 806 1335 794 1342 q 814 1306 817 1329 q 783 1234 810 1269 q 709 1176 756 1199 q 600 1153 663 1153 q 475 1195 522 1153 q 428 1301 428 1238 q 450 1369 428 1344 q 497 1393 472 1393 q 517 1390 511 1393 q 524 1388 524 1388 q 547 1304 510 1336 q 643 1272 583 1272 z "},"ğ":{"ha":774,"x_min":-42,"x_max":789,"o":"m 614 581 l 533 117 q 556 126 533 117 q 615 153 579 136 q 690 194 651 171 q 760 242 729 217 q 781 233 772 242 q 786 210 789 225 q 740 160 782 192 q 641 97 701 131 q 519 32 581 63 l 517 15 q 379 -356 476 -226 q 128 -486 282 -486 q 15 -445 57 -486 q -28 -340 -28 -404 q 5 -224 -28 -279 q 89 -125 38 -168 q 199 -45 140 -81 q 343 32 258 -10 l 360 131 q 163 0 275 0 q 18 58 78 0 q -42 239 -42 117 q -11 441 -42 356 q 69 583 19 526 q 180 667 119 639 q 301 694 240 694 q 391 676 354 694 q 451 626 428 657 q 497 679 468 664 q 576 694 525 694 q 629 688 613 694 q 646 681 646 681 q 635 659 646 681 q 614 581 624 638 m 218 121 q 288 155 256 121 q 344 242 319 189 q 388 356 369 296 q 417 468 407 417 l 429 533 q 399 577 419 554 q 338 600 378 600 q 244 556 290 600 q 167 430 197 511 q 136 236 136 349 q 158 149 136 178 q 218 121 179 121 m 114 -394 q 242 -308 188 -394 q 328 -56 297 -222 q 211 -122 260 -90 q 132 -183 163 -153 q 50 -332 50 -262 q 66 -376 50 -358 q 114 -394 82 -394 m 415 925 q 500 942 469 925 q 543 977 531 960 q 556 994 556 994 q 578 988 567 994 q 586 958 589 982 q 555 887 582 922 q 481 828 528 851 q 372 806 435 806 q 247 848 294 806 q 200 954 200 890 q 222 1022 200 997 q 269 1046 244 1046 q 290 1043 283 1046 q 296 1040 296 1040 q 319 957 282 989 q 415 925 356 925 z "},"Ģ":{"ha":931,"x_min":69,"x_max":903,"o":"m 621 438 l 896 438 q 899 431 896 438 q 903 411 903 424 q 881 371 903 386 q 821 346 858 356 q 759 181 806 260 q 634 51 713 101 q 442 0 556 0 q 253 49 338 0 q 119 194 169 99 q 69 426 69 289 q 108 675 69 563 q 216 870 147 788 q 376 997 285 953 q 575 1042 468 1042 q 725 1010 663 1042 q 821 924 788 978 q 854 806 854 871 q 806 659 854 714 q 683 604 757 604 q 631 616 650 604 q 603 640 611 628 q 594 651 594 651 q 610 660 594 651 q 647 691 626 669 q 683 750 667 713 q 699 844 699 788 q 572 965 699 965 q 468 928 522 965 q 367 822 414 892 q 292 654 321 753 q 263 431 263 556 q 322 199 263 278 q 490 121 381 121 q 645 176 579 121 q 738 324 711 231 q 674 311 704 315 q 607 307 643 307 q 538 331 563 307 q 513 396 513 356 q 518 431 513 418 q 524 443 524 443 q 553 440 524 443 q 621 438 583 438 m 314 -190 q 343 -119 314 -147 q 411 -90 372 -90 q 476 -117 451 -90 q 501 -187 501 -143 q 487 -262 501 -224 q 449 -333 472 -300 q 400 -387 426 -367 q 350 -407 374 -407 q 324 -397 332 -407 q 315 -378 315 -387 q 353 -328 339 -357 q 372 -271 367 -300 q 314 -190 314 -256 z "},"ģ":{"ha":774,"x_min":-42,"x_max":789,"o":"m 450 919 q 422 848 450 876 q 353 819 393 819 q 288 846 314 819 q 263 917 263 872 q 277 991 263 953 q 315 1063 292 1029 q 364 1116 338 1096 q 414 1136 390 1136 q 440 1127 432 1136 q 449 1107 449 1118 q 412 1058 426 1086 q 392 1000 397 1029 q 450 919 450 985 m 614 581 l 533 117 q 556 126 533 117 q 615 153 579 136 q 690 194 651 171 q 760 242 729 217 q 781 233 772 242 q 786 210 789 225 q 740 160 782 192 q 641 97 701 131 q 519 32 581 63 l 517 15 q 379 -356 476 -226 q 128 -486 282 -486 q 15 -445 57 -486 q -28 -340 -28 -404 q 5 -224 -28 -279 q 89 -125 38 -168 q 199 -45 140 -81 q 343 32 258 -10 l 360 131 q 163 0 275 0 q 18 58 78 0 q -42 239 -42 117 q -11 441 -42 356 q 69 583 19 526 q 180 667 119 639 q 301 694 240 694 q 391 676 354 694 q 451 626 428 657 q 497 679 468 664 q 576 694 525 694 q 629 688 613 694 q 646 681 646 681 q 635 659 646 681 q 614 581 624 638 m 218 121 q 288 155 256 121 q 344 242 319 189 q 388 356 369 296 q 417 468 407 417 l 429 533 q 399 577 419 554 q 338 600 378 600 q 244 556 290 600 q 167 430 197 511 q 136 236 136 349 q 158 149 136 178 q 218 121 179 121 m 114 -394 q 242 -308 188 -394 q 328 -56 297 -222 q 211 -122 260 -90 q 132 -183 163 -153 q 50 -332 50 -262 q 66 -376 50 -358 q 114 -394 82 -394 z "},"Ī":{"ha":614,"x_min":-28,"x_max":725,"o":"m 322 1042 l 419 1042 q 517 1006 497 1042 q 524 890 538 971 l 393 146 q 386 44 381 74 q 392 14 392 14 q 374 7 392 14 q 313 0 356 0 q 215 35 236 0 q 208 151 194 71 l 339 897 q 344 935 342 918 q 346 965 346 951 l 332 965 q 190 920 238 965 q 143 815 143 875 q 158 769 143 786 q 199 751 172 751 q 216 753 210 751 q 222 756 222 756 q 223 753 222 756 q 224 743 224 750 q 197 692 224 718 q 118 665 171 665 q 11 703 50 665 q -28 804 -28 742 q 63 974 -28 907 q 322 1042 154 1042 m 610 1179 l 315 1179 q 256 1173 274 1179 q 239 1167 239 1167 q 233 1175 239 1167 q 228 1203 228 1183 q 253 1267 228 1243 q 343 1292 279 1292 l 638 1292 q 697 1298 679 1292 q 714 1304 714 1304 q 719 1296 714 1304 q 725 1268 725 1288 q 700 1204 725 1229 q 610 1179 675 1179 z "},"ī":{"ha":372,"x_min":-104,"x_max":393,"o":"m -14 306 l 31 563 q 37 655 42 628 q 32 682 32 682 q 49 688 32 682 q 104 694 65 694 q 202 663 185 694 q 207 557 219 631 l 153 243 q 159 151 143 181 q 213 121 175 121 q 290 153 249 121 q 358 242 332 186 q 380 233 372 242 q 385 206 388 225 q 359 143 379 178 q 306 76 339 108 q 229 22 272 43 q 136 0 186 0 q 19 45 64 0 q -26 174 -26 90 q -24 229 -26 194 q -14 306 -21 264 m 278 832 l -17 832 q -76 826 -58 832 q -93 819 -93 819 q -99 828 -93 819 q -104 856 -104 836 q -78 920 -104 896 q 11 944 -53 944 l 306 944 q 365 951 347 944 q 382 957 382 957 q 388 949 382 957 q 393 921 393 940 q 368 857 393 882 q 278 832 343 832 z "},"į":{"ha":371,"x_min":-28,"x_max":386,"o":"m -15 306 l 29 563 q 35 656 40 629 q 31 682 31 682 q 47 688 31 682 q 103 694 64 694 q 201 663 183 694 q 206 557 218 631 l 151 243 q 158 151 142 181 q 211 121 174 121 q 289 153 247 121 q 357 242 331 186 q 378 233 371 242 q 383 206 386 225 q 356 139 378 176 q 298 68 333 101 q 215 15 263 35 q 179 -10 203 8 q 136 -55 156 -28 q 117 -118 117 -82 q 133 -162 117 -146 q 179 -179 149 -179 q 230 -163 215 -179 q 244 -147 244 -147 q 258 -150 244 -147 q 268 -178 271 -153 q 226 -242 265 -210 q 122 -275 188 -275 q 13 -237 50 -275 q -24 -147 -24 -200 q -6 -76 -24 -106 q 38 -26 13 -46 q 86 6 64 -6 q 3 63 35 19 q -28 174 -28 106 q -25 229 -28 194 q -15 306 -22 264 m 78 903 q 107 974 78 946 q 175 1003 136 1003 q 238 978 215 1003 q 261 915 261 953 q 234 849 261 879 q 161 819 207 819 q 101 843 124 819 q 78 903 78 867 z "},"Į":{"ha":614,"x_min":-28,"x_max":538,"o":"m 322 1042 l 419 1042 q 517 1006 497 1042 q 524 890 538 971 l 393 146 q 386 44 381 74 q 392 14 392 14 q 381 9 392 14 q 350 1 371 4 q 299 -45 325 -15 q 272 -118 272 -75 q 288 -162 272 -146 q 335 -179 304 -179 q 385 -163 371 -179 q 400 -147 400 -147 q 413 -150 400 -147 q 424 -178 426 -153 q 382 -242 421 -210 q 278 -275 343 -275 q 169 -237 206 -275 q 132 -147 132 -200 q 152 -73 132 -104 q 199 -22 172 -42 q 247 8 226 -1 q 206 57 213 22 q 208 151 199 92 l 339 897 q 344 935 342 918 q 346 965 346 951 l 332 965 q 190 920 238 965 q 143 815 143 875 q 158 769 143 786 q 199 751 172 751 q 216 753 210 751 q 222 756 222 756 q 223 753 222 756 q 224 743 224 750 q 197 692 224 718 q 118 665 171 665 q 11 703 50 665 q -28 804 -28 742 q 63 974 -28 907 q 322 1042 154 1042 z "},"ı":{"ha":371,"x_min":-28,"x_max":386,"o":"m -15 306 l 29 563 q 35 655 40 628 q 31 682 31 682 q 47 688 31 682 q 103 694 64 694 q 201 663 183 694 q 206 557 218 631 l 151 243 q 158 151 142 181 q 211 121 174 121 q 289 153 247 121 q 357 242 331 186 q 378 233 371 242 q 383 206 386 225 q 358 143 378 178 q 304 76 338 108 q 228 22 271 43 q 135 0 185 0 q 17 45 63 0 q -28 174 -28 90 q -25 229 -28 194 q -15 306 -22 264 z "},"Ķ":{"ha":1040,"x_min":-28,"x_max":1085,"o":"m 831 0 q 715 44 757 0 q 650 172 672 89 l 594 388 q 563 455 583 432 q 500 478 542 478 l 450 478 l 392 146 q 385 44 379 74 q 390 14 390 14 q 372 7 390 14 q 311 0 354 0 q 214 35 235 0 q 207 151 193 71 l 338 897 q 342 935 340 918 q 344 965 344 951 l 332 965 q 190 920 238 965 q 143 815 143 875 q 158 769 143 786 q 199 751 172 751 q 216 753 210 751 q 222 756 222 756 q 223 753 222 756 q 224 743 224 750 q 197 692 224 718 q 118 665 171 665 q 11 703 50 665 q -28 804 -28 742 q 63 974 -28 907 q 322 1042 154 1042 l 418 1042 q 517 1006 496 1042 q 522 890 538 971 l 463 554 l 507 554 q 672 700 592 554 l 764 867 q 862 1001 815 960 q 964 1042 908 1042 q 1050 1013 1019 1042 q 1081 931 1081 983 q 1067 871 1081 894 q 1038 837 1053 847 q 1024 826 1024 826 q 1017 842 1024 826 q 993 872 1011 857 q 942 886 975 886 q 861 858 894 886 q 797 772 828 829 l 749 679 q 695 592 722 628 q 639 542 668 556 q 726 506 693 536 q 772 422 758 476 l 826 225 q 860 147 842 172 q 913 121 879 121 q 974 144 944 121 q 1024 196 1003 167 q 1054 242 1046 225 q 1081 206 1085 242 q 1055 141 1076 176 q 999 74 1033 106 q 922 21 965 42 q 831 0 878 0 m 465 -190 q 494 -119 465 -147 q 563 -90 524 -90 q 628 -117 603 -90 q 653 -187 653 -143 q 638 -262 653 -224 q 601 -333 624 -300 q 551 -387 578 -367 q 501 -407 525 -407 q 475 -397 483 -407 q 467 -378 467 -387 q 504 -328 490 -357 q 524 -271 518 -300 q 465 -190 465 -256 z "},"ķ":{"ha":717,"x_min":-47,"x_max":732,"o":"m 169 296 l 142 132 q 135 40 131 67 q 140 13 140 13 q 124 6 140 13 q 68 0 107 0 q -30 33 -12 0 q -35 138 -47 65 l 119 1021 q 126 1113 131 1086 q 121 1140 121 1140 q 138 1147 121 1140 q 193 1153 154 1153 q 291 1121 274 1153 q 296 1015 308 1089 l 182 364 l 238 364 q 287 391 265 364 q 321 443 308 418 l 375 554 q 453 667 417 639 q 535 694 490 694 q 601 669 578 694 q 625 600 625 643 q 613 548 625 569 q 589 515 601 526 q 576 504 576 504 q 571 517 576 504 q 551 542 565 529 q 510 554 538 554 q 413 471 451 554 l 389 421 q 340 358 371 381 q 401 325 379 349 q 435 268 424 301 l 450 219 q 488 147 465 172 q 554 121 511 121 q 640 158 599 121 q 703 242 681 194 q 724 233 717 242 q 729 206 732 225 q 704 143 725 178 q 649 76 683 108 q 572 22 615 43 q 481 0 529 0 q 362 40 411 0 q 288 163 313 79 l 265 236 q 241 281 256 265 q 199 296 226 296 l 169 296 m 157 -190 q 186 -119 157 -147 q 254 -90 215 -90 q 319 -117 294 -90 q 344 -187 344 -143 q 330 -262 344 -224 q 292 -333 315 -300 q 243 -387 269 -367 q 193 -407 217 -407 q 167 -397 175 -407 q 158 -378 158 -387 q 196 -328 182 -357 q 215 -271 210 -300 q 157 -190 157 -256 z "},"Ĺ":{"ha":857,"x_min":-28,"x_max":871,"o":"m 200 165 l 211 165 l 339 897 q 344 935 343 919 q 346 965 346 951 l 332 965 q 190 920 238 965 q 143 815 143 875 q 158 769 143 786 q 199 751 172 751 q 216 753 210 751 q 222 756 222 756 q 223 753 222 756 q 224 743 224 750 q 197 692 224 718 q 118 665 171 665 q 11 703 50 665 q -28 804 -28 742 q 63 974 -28 907 q 322 1042 154 1042 l 419 1042 q 518 1006 497 1042 q 524 890 539 971 l 394 154 q 508 149 446 151 q 650 146 569 146 q 773 155 728 146 q 837 173 818 164 q 856 182 856 182 q 863 168 856 182 q 871 122 871 154 q 833 35 871 69 q 714 0 796 0 q 587 12 649 0 q 476 39 525 24 q 397 66 426 54 q 368 78 368 78 q 349 58 368 78 q 294 19 331 39 q 207 0 258 0 q 124 26 150 0 q 99 82 99 51 q 124 140 99 114 q 200 165 149 165 m 421 1163 l 532 1336 q 578 1384 551 1368 q 656 1400 606 1400 q 717 1393 694 1400 q 739 1386 739 1386 l 549 1188 q 517 1163 535 1172 q 472 1153 500 1153 q 433 1158 446 1153 q 421 1163 421 1163 z "},"ĺ":{"ha":379,"x_min":-28,"x_max":511,"o":"m -15 306 l 111 1021 q 117 1113 122 1086 q 113 1140 113 1140 q 129 1147 113 1140 q 185 1153 146 1153 q 283 1121 265 1153 q 288 1015 300 1089 l 151 243 q 158 151 142 182 q 211 121 174 121 q 296 153 253 121 q 365 242 339 186 q 387 233 379 242 q 392 206 394 225 q 365 143 386 178 q 308 76 343 108 q 229 22 274 43 q 135 0 185 0 q 17 45 63 0 q -28 174 -28 90 q -25 229 -28 194 q -15 306 -22 264 m 193 1272 l 304 1446 q 351 1494 324 1478 q 428 1510 378 1510 q 489 1503 467 1510 q 511 1496 511 1496 l 321 1297 q 290 1272 307 1282 q 244 1263 272 1263 q 206 1267 218 1263 q 193 1272 193 1272 z "},"Ļ":{"ha":857,"x_min":-28,"x_max":871,"o":"m 200 165 l 211 165 l 339 897 q 344 935 343 919 q 346 965 346 951 l 332 965 q 190 920 238 965 q 143 815 143 875 q 158 769 143 786 q 199 751 172 751 q 216 753 210 751 q 222 756 222 756 q 223 753 222 756 q 224 743 224 750 q 197 692 224 718 q 118 665 171 665 q 11 703 50 665 q -28 804 -28 742 q 63 974 -28 907 q 322 1042 154 1042 l 419 1042 q 518 1006 497 1042 q 524 890 539 971 l 394 154 q 508 149 446 151 q 650 146 569 146 q 773 155 728 146 q 837 173 818 164 q 856 182 856 182 q 863 168 856 182 q 871 122 871 154 q 833 35 871 69 q 714 0 796 0 q 587 12 649 0 q 476 39 525 24 q 397 66 426 54 q 368 78 368 78 q 349 58 368 78 q 294 19 331 39 q 207 0 258 0 q 124 26 150 0 q 99 82 99 51 q 124 140 99 114 q 200 165 149 165 m 419 -190 q 449 -119 419 -147 q 517 -90 478 -90 q 582 -117 557 -90 q 607 -187 607 -143 q 592 -262 607 -224 q 555 -333 578 -300 q 506 -387 532 -367 q 456 -407 479 -407 q 429 -397 438 -407 q 421 -378 421 -387 q 458 -328 444 -357 q 478 -271 472 -300 q 419 -190 419 -256 z "},"ļ":{"ha":379,"x_min":-28,"x_max":394,"o":"m -15 306 l 111 1021 q 117 1113 122 1086 q 113 1140 113 1140 q 129 1147 113 1140 q 185 1153 146 1153 q 283 1121 265 1153 q 288 1015 300 1089 l 151 243 q 158 151 142 182 q 211 121 174 121 q 296 153 253 121 q 365 242 339 186 q 387 233 379 242 q 392 206 394 225 q 365 143 386 178 q 308 76 343 108 q 229 22 274 43 q 135 0 185 0 q 17 45 63 0 q -28 174 -28 90 q -25 229 -28 194 q -15 306 -22 264 m 22 -190 q 51 -119 22 -147 q 119 -90 81 -90 q 185 -117 160 -90 q 210 -187 210 -143 q 195 -262 210 -224 q 158 -333 181 -300 q 108 -387 135 -367 q 58 -407 82 -407 q 32 -397 40 -407 q 24 -378 24 -387 q 61 -328 47 -357 q 81 -271 75 -300 q 22 -190 22 -256 z "},"ľ":{"ha":465,"x_min":-28,"x_max":549,"o":"m 361 1053 q 390 1124 361 1096 q 458 1153 419 1153 q 524 1126 499 1153 q 549 1056 549 1100 q 534 981 549 1019 q 497 910 519 943 q 447 856 474 876 q 397 836 421 836 q 371 846 379 836 q 363 865 363 856 q 400 915 386 886 q 419 972 414 943 q 361 1053 361 988 m -15 306 l 111 1021 q 117 1113 122 1086 q 113 1140 113 1140 q 129 1147 113 1140 q 185 1153 146 1153 q 283 1121 265 1153 q 288 1015 300 1089 l 151 243 q 158 151 142 182 q 211 121 174 121 q 296 153 253 121 q 365 242 339 186 q 387 233 379 242 q 392 206 394 225 q 365 143 386 178 q 308 76 343 108 q 229 22 274 43 q 135 0 185 0 q 17 45 63 0 q -28 174 -28 90 q -25 229 -28 194 q -15 306 -22 264 z "},"Ľ":{"ha":857,"x_min":-28,"x_max":871,"o":"m 628 942 q 657 1013 628 985 q 725 1042 686 1042 q 790 1015 765 1042 q 815 944 815 989 q 801 870 815 908 q 763 799 786 832 q 714 745 740 765 q 664 725 688 725 q 638 735 646 725 q 629 754 629 744 q 667 803 653 775 q 686 861 681 832 q 628 942 628 876 m 200 165 l 211 165 l 339 897 q 344 935 343 919 q 346 965 346 951 l 332 965 q 190 920 238 965 q 143 815 143 875 q 158 769 143 786 q 199 751 172 751 q 216 753 210 751 q 222 756 222 756 q 223 753 222 756 q 224 743 224 750 q 197 692 224 718 q 118 665 171 665 q 11 703 50 665 q -28 804 -28 742 q 63 974 -28 907 q 322 1042 154 1042 l 419 1042 q 518 1006 497 1042 q 524 890 539 971 l 394 154 q 508 149 446 151 q 650 146 569 146 q 773 155 728 146 q 837 173 818 164 q 856 182 856 182 q 863 168 856 182 q 871 122 871 154 q 833 35 871 69 q 714 0 796 0 q 587 12 649 0 q 476 39 525 24 q 397 66 426 54 q 368 78 368 78 q 349 58 368 78 q 294 19 331 39 q 207 0 258 0 q 124 26 150 0 q 99 82 99 51 q 124 140 99 114 q 200 165 149 165 z "},"Ń":{"ha":1083,"x_min":-28,"x_max":1000,"o":"m 232 283 l 339 894 q 346 941 346 931 q 347 965 346 951 l 332 965 q 190 920 238 965 q 143 815 143 875 q 158 769 143 786 q 199 751 172 751 q 216 753 210 751 q 222 756 222 756 q 223 753 222 756 q 224 743 224 750 q 197 692 224 718 q 118 665 171 665 q 11 703 50 665 q -28 804 -28 742 q 63 974 -28 907 q 322 1042 154 1042 l 446 1042 q 533 1017 501 1042 q 582 932 565 993 l 793 188 l 875 651 q 899 881 901 796 q 887 1004 897 967 q 876 1042 876 1042 q 888 1048 876 1042 q 925 1054 899 1054 q 983 1035 965 1054 q 1000 967 1000 1015 q 992 880 1000 932 q 972 758 985 828 l 865 147 q 854 47 853 78 q 857 14 856 17 q 835 7 857 14 q 758 0 813 0 q 672 27 701 0 q 626 110 642 54 l 413 864 l 329 390 q 306 161 304 247 q 318 38 308 75 q 328 0 328 0 q 317 -6 328 0 q 279 -12 306 -12 q 222 8 240 -12 q 204 75 204 28 q 212 163 204 111 q 232 283 219 214 m 664 1163 l 775 1336 q 822 1384 794 1368 q 899 1400 849 1400 q 960 1393 938 1400 q 982 1386 982 1386 l 792 1188 q 760 1163 778 1172 q 715 1153 743 1153 q 676 1158 689 1153 q 664 1163 664 1163 z "},"ń":{"ha":790,"x_min":-47,"x_max":806,"o":"m 411 332 l 438 485 q 437 553 446 535 q 404 572 428 572 q 333 537 371 572 q 256 440 294 501 q 188 299 218 378 q 142 132 158 219 q 135 40 131 67 q 140 13 140 13 q 124 6 140 13 q 68 0 107 0 q -30 33 -12 0 q -35 138 -47 65 l 39 563 q 45 655 50 628 q 40 682 40 682 q 57 688 40 682 q 113 694 74 694 q 210 663 193 694 q 215 557 228 631 l 204 493 q 274 585 232 539 q 369 663 317 632 q 476 694 421 694 q 581 656 542 694 q 619 551 619 617 q 616 500 619 529 q 607 439 613 471 l 574 243 q 576 156 564 192 q 631 121 588 121 q 713 154 675 121 q 776 242 750 188 q 798 233 790 242 q 803 206 806 225 q 778 144 799 179 q 725 76 758 110 q 649 22 692 43 q 558 0 607 0 q 435 48 481 0 q 390 174 390 96 q 398 249 390 201 q 411 332 406 297 m 308 815 l 419 989 q 466 1037 439 1021 q 543 1053 493 1053 q 604 1046 582 1053 q 626 1039 626 1039 l 436 840 q 405 815 422 825 q 360 806 388 806 q 321 810 333 806 q 308 815 308 815 z "},"Ņ":{"ha":1083,"x_min":-28,"x_max":1000,"o":"m 232 283 l 339 894 q 346 941 346 931 q 347 965 346 951 l 332 965 q 190 920 238 965 q 143 815 143 875 q 158 769 143 786 q 199 751 172 751 q 216 753 210 751 q 222 756 222 756 q 223 753 222 756 q 224 743 224 750 q 197 692 224 718 q 118 665 171 665 q 11 703 50 665 q -28 804 -28 742 q 63 974 -28 907 q 322 1042 154 1042 l 446 1042 q 533 1017 501 1042 q 582 932 565 993 l 793 188 l 875 651 q 899 881 901 796 q 887 1004 897 967 q 876 1042 876 1042 q 888 1048 876 1042 q 925 1054 899 1054 q 983 1035 965 1054 q 1000 967 1000 1015 q 992 880 1000 932 q 972 758 985 828 l 865 147 q 854 47 853 78 q 857 14 856 17 q 835 7 857 14 q 758 0 813 0 q 672 27 701 0 q 626 110 642 54 l 413 864 l 329 390 q 306 161 304 247 q 318 38 308 75 q 328 0 328 0 q 317 -6 328 0 q 279 -12 306 -12 q 222 8 240 -12 q 204 75 204 28 q 212 163 204 111 q 232 283 219 214 m 429 -190 q 458 -119 429 -147 q 526 -90 488 -90 q 592 -117 567 -90 q 617 -187 617 -143 q 602 -262 617 -224 q 565 -333 588 -300 q 515 -387 542 -367 q 465 -407 489 -407 q 439 -397 447 -407 q 431 -378 431 -387 q 468 -328 454 -357 q 488 -271 482 -300 q 429 -190 429 -256 z "},"ņ":{"ha":790,"x_min":-47,"x_max":806,"o":"m 411 332 l 438 485 q 437 553 446 535 q 404 572 428 572 q 333 537 371 572 q 256 440 294 501 q 188 299 218 378 q 142 132 158 219 q 135 40 131 67 q 140 13 140 13 q 124 6 140 13 q 68 0 107 0 q -30 33 -12 0 q -35 138 -47 65 l 39 563 q 45 655 50 628 q 40 682 40 682 q 57 688 40 682 q 113 694 74 694 q 210 663 193 694 q 215 557 228 631 l 204 493 q 274 585 232 539 q 369 663 317 632 q 476 694 421 694 q 581 656 542 694 q 619 551 619 617 q 616 500 619 529 q 607 439 613 471 l 574 243 q 576 156 564 192 q 631 121 588 121 q 713 154 675 121 q 776 242 750 188 q 798 233 790 242 q 803 206 806 225 q 778 144 799 179 q 725 76 758 110 q 649 22 692 43 q 558 0 607 0 q 435 48 481 0 q 390 174 390 96 q 398 249 390 201 q 411 332 406 297 m 188 -190 q 217 -119 188 -147 q 285 -90 246 -90 q 350 -117 325 -90 q 375 -187 375 -143 q 360 -262 375 -224 q 323 -333 346 -300 q 274 -387 300 -367 q 224 -407 247 -407 q 197 -397 206 -407 q 189 -378 189 -387 q 226 -328 213 -357 q 246 -271 240 -300 q 188 -190 188 -256 z "},"Ň":{"ha":1083,"x_min":-28,"x_max":1000,"o":"m 232 283 l 339 894 q 346 941 346 931 q 347 965 346 951 l 332 965 q 190 920 238 965 q 143 815 143 875 q 158 769 143 786 q 199 751 172 751 q 216 753 210 751 q 222 756 222 756 q 223 753 222 756 q 224 743 224 750 q 197 692 224 718 q 118 665 171 665 q 11 703 50 665 q -28 804 -28 742 q 63 974 -28 907 q 322 1042 154 1042 l 446 1042 q 533 1017 501 1042 q 582 932 565 993 l 793 188 l 875 651 q 899 881 901 796 q 887 1004 897 967 q 876 1042 876 1042 q 888 1048 876 1042 q 925 1054 899 1054 q 983 1035 965 1054 q 1000 967 1000 1015 q 992 880 1000 932 q 972 758 985 828 l 865 147 q 854 47 853 78 q 857 14 856 17 q 835 7 857 14 q 758 0 813 0 q 672 27 701 0 q 626 110 642 54 l 413 864 l 329 390 q 306 161 304 247 q 318 38 308 75 q 328 0 328 0 q 317 -6 328 0 q 279 -12 306 -12 q 222 8 240 -12 q 204 75 204 28 q 212 163 204 111 q 232 283 219 214 m 671 1344 l 722 1257 l 825 1365 q 860 1392 844 1385 q 901 1400 876 1400 q 941 1395 929 1400 q 953 1390 953 1390 l 775 1164 q 760 1158 775 1164 q 717 1153 744 1153 q 651 1166 674 1153 q 611 1208 628 1179 l 508 1390 q 526 1395 508 1390 q 560 1400 543 1400 q 630 1388 607 1400 q 671 1344 653 1375 z "},"ň":{"ha":790,"x_min":-47,"x_max":806,"o":"m 411 332 l 438 485 q 437 553 446 535 q 404 572 428 572 q 333 537 371 572 q 256 440 294 501 q 188 299 218 378 q 142 132 158 219 q 135 40 131 67 q 140 13 140 13 q 124 6 140 13 q 68 0 107 0 q -30 33 -12 0 q -35 138 -47 65 l 39 563 q 45 655 50 628 q 40 682 40 682 q 57 688 40 682 q 113 694 74 694 q 210 663 193 694 q 215 557 228 631 l 204 493 q 274 585 232 539 q 369 663 317 632 q 476 694 421 694 q 581 656 542 694 q 619 551 619 617 q 616 500 619 529 q 607 439 613 471 l 574 243 q 576 156 564 192 q 631 121 588 121 q 713 154 675 121 q 776 242 750 188 q 798 233 790 242 q 803 206 806 225 q 778 144 799 179 q 725 76 758 110 q 649 22 692 43 q 558 0 607 0 q 435 48 481 0 q 390 174 390 96 q 398 249 390 201 q 411 332 406 297 m 342 997 l 393 910 l 496 1018 q 531 1045 515 1038 q 572 1053 547 1053 q 612 1048 600 1053 q 624 1043 624 1043 l 446 817 q 431 811 446 817 q 388 806 415 806 q 322 819 344 806 q 282 861 299 832 l 179 1043 q 197 1048 179 1043 q 231 1053 214 1053 q 301 1040 278 1053 q 342 997 324 1028 z "},"Ō":{"ha":971,"x_min":69,"x_max":901,"o":"m 726 1193 l 432 1193 q 373 1187 390 1193 q 356 1181 356 1181 q 350 1189 356 1181 q 344 1217 344 1197 q 370 1281 344 1257 q 460 1306 396 1306 l 754 1306 q 813 1312 796 1306 q 831 1318 831 1318 q 836 1310 831 1318 q 842 1282 842 1301 q 817 1218 842 1243 q 726 1193 792 1193 m 571 1042 q 815 938 728 1042 q 901 656 901 835 q 867 399 901 518 q 767 190 832 281 q 609 50 701 100 q 400 0 517 0 q 230 42 304 0 q 113 171 156 85 q 69 386 69 257 q 105 647 69 528 q 206 855 140 767 q 365 992 272 943 q 571 1042 457 1042 m 275 521 q 264 419 268 471 q 260 331 260 368 q 281 179 260 235 q 338 100 303 124 q 417 76 374 76 q 583 186 507 76 q 694 521 660 296 q 706 622 703 571 q 710 711 710 674 q 689 863 710 807 q 633 942 668 918 q 553 965 597 965 q 444 920 499 965 q 344 778 389 875 q 275 521 300 681 z "}}}
